  0
SECTION
  2
BLOCKS
  0
ENDSEC
  0
SECTION
  2
ENTITIES
  0
LINE
  8
0
 10
1.04999
 20
2
 11
1.04999
 21
0
  0
LINE
  8
0
 10
1.04999
 20
0
 11
1.95
 21
0
  0
LINE
  8
0
 10
1.95
 20
0
 11
1.95
 21
2
  0
LINE
  8
0
 10
1.95
 20
2
 11
2.04999
 21
2
  0
LINE
  8
0
 10
2.04999
 20
2
 11
2.04999
 21
0
  0
LINE
  8
0
 10
2.04999
 20
0
 11
2.95
 21
0
  0
LINE
  8
0
 10
2.95
 20
0
 11
2.95
 21
2
  0
LINE
  8
0
 10
2.95
 20
2
 11
3.04999
 21
2
  0
LINE
  8
0
 10
3.04999
 20
2
 11
3.04999
 21
0
  0
LINE
  8
0
 10
3.04999
 20
0
 11
3.95
 21
0
  0
LINE
  8
0
 10
3.95
 20
0
 11
3.95
 21
2
  0
LINE
  8
0
 10
3.95
 20
2
 11
4.04999
 21
2
  0
LINE
  8
0
 10
4.04999
 20
2
 11
4.04999
 21
0
  0
LINE
  8
0
 10
4.04999
 20
0
 11
4.95
 21
0
  0
LINE
  8
0
 10
4.95
 20
0
 11
4.95
 21
4
  0
LINE
  8
0
 10
4.95
 20
4
 11
5.04999
 21
4
  0
LINE
  8
0
 10
5.04999
 20
4
 11
5.04999
 21
0
  0
LINE
  8
0
 10
5.04999
 20
0
 11
5.95
 21
0
  0
LINE
  8
0
 10
5.95
 20
0
 11
5.95
 21
2
  0
LINE
  8
0
 10
5.95
 20
2
 11
6.04999
 21
2
  0
LINE
  8
0
 10
6.04999
 20
2
 11
6.04999
 21
0
  0
LINE
  8
0
 10
6.04999
 20
0
 11
6.95
 21
0
  0
LINE
  8
0
 10
6.95
 20
0
 11
6.95
 21
2
  0
LINE
  8
0
 10
6.95
 20
2
 11
7.04999
 21
2
  0
LINE
  8
0
 10
7.04999
 20
2
 11
7.04999
 21
0
  0
LINE
  8
0
 10
7.04999
 20
0
 11
7.95
 21
0
  0
LINE
  8
0
 10
7.95
 20
0
 11
7.95
 21
2
  0
LINE
  8
0
 10
7.95
 20
2
 11
8.04999
 21
2
  0
LINE
  8
0
 10
8.04999
 20
2
 11
8.04999
 21
0
  0
LINE
  8
0
 10
8.04999
 20
0
 11
8.95
 21
0
  0
LINE
  8
0
 10
8.95
 20
0
 11
8.95
 21
2
  0
LINE
  8
0
 10
8.95
 20
2
 11
9.04999
 21
2
  0
LINE
  8
0
 10
9.04999
 20
2
 11
9.04999
 21
0
  0
LINE
  8
0
 10
9.04999
 20
0
 11
9.95
 21
0
  0
LINE
  8
0
 10
9.95
 20
0
 11
9.95
 21
6
  0
LINE
  8
0
 10
9.95
 20
6
 11
10.05
 21
6
  0
LINE
  8
0
 10
10.05
 20
6
 11
10.05
 21
0
  0
LINE
  8
0
 10
10.05
 20
0
 11
10.95
 21
0
  0
LINE
  8
0
 10
10.95
 20
0
 11
10.95
 21
2
  0
LINE
  8
0
 10
10.95
 20
2
 11
11.05
 21
2
  0
LINE
  8
0
 10
11.05
 20
2
 11
11.05
 21
0
  0
LINE
  8
0
 10
11.05
 20
0
 11
11.95
 21
0
  0
LINE
  8
0
 10
11.95
 20
0
 11
11.95
 21
2
  0
LINE
  8
0
 10
11.95
 20
2
 11
12.05
 21
2
  0
LINE
  8
0
 10
12.05
 20
2
 11
12.05
 21
0
  0
LINE
  8
0
 10
12.05
 20
0
 11
12.95
 21
0
  0
LINE
  8
0
 10
12.95
 20
0
 11
12.95
 21
2
  0
LINE
  8
0
 10
12.95
 20
2
 11
13.05
 21
2
  0
LINE
  8
0
 10
13.05
 20
2
 11
13.05
 21
0
  0
LINE
  8
0
 10
13.05
 20
0
 11
13.95
 21
0
  0
LINE
  8
0
 10
13.95
 20
0
 11
13.95
 21
2
  0
LINE
  8
0
 10
13.95
 20
2
 11
14.05
 21
2
  0
LINE
  8
0
 10
14.05
 20
2
 11
14.05
 21
0
  0
LINE
  8
0
 10
14.05
 20
0
 11
14.95
 21
0
  0
LINE
  8
0
 10
14.95
 20
0
 11
14.95
 21
4
  0
LINE
  8
0
 10
14.95
 20
4
 11
15.05
 21
4
  0
LINE
  8
0
 10
15.05
 20
4
 11
15.05
 21
0
  0
LINE
  8
0
 10
15.05
 20
0
 11
15.95
 21
0
  0
LINE
  8
0
 10
15.95
 20
0
 11
15.95
 21
2
  0
LINE
  8
0
 10
15.95
 20
2
 11
16.05
 21
2
  0
LINE
  8
0
 10
16.05
 20
2
 11
16.05
 21
0
  0
LINE
  8
0
 10
16.05
 20
0
 11
16.95
 21
0
  0
LINE
  8
0
 10
16.95
 20
0
 11
16.95
 21
2
  0
LINE
  8
0
 10
16.95
 20
2
 11
17.05
 21
2
  0
LINE
  8
0
 10
17.05
 20
2
 11
17.05
 21
0
  0
LINE
  8
0
 10
17.05
 20
0
 11
17.95
 21
0
  0
LINE
  8
0
 10
17.95
 20
0
 11
17.95
 21
2
  0
LINE
  8
0
 10
17.95
 20
2
 11
18.05
 21
2
  0
LINE
  8
0
 10
18.05
 20
2
 11
18.05
 21
0
  0
LINE
  8
0
 10
18.05
 20
0
 11
18.95
 21
0
  0
LINE
  8
0
 10
18.95
 20
0
 11
18.95
 21
2
  0
LINE
  8
0
 10
18.95
 20
2
 11
19.05
 21
2
  0
LINE
  8
0
 10
19.05
 20
2
 11
19.05
 21
0
  0
LINE
  8
0
 10
19.05
 20
0
 11
19.95
 21
0
  0
LINE
  8
0
 10
19.95
 20
0
 11
19.95
 21
6
  0
LINE
  8
0
 10
19.95
 20
6
 11
20.05
 21
6
  0
LINE
  8
0
 10
20.05
 20
6
 11
20.05
 21
0
  0
LINE
  8
0
 10
20.05
 20
0
 11
20.95
 21
0
  0
LINE
  8
0
 10
20.95
 20
0
 11
20.95
 21
2
  0
LINE
  8
0
 10
20.95
 20
2
 11
21.05
 21
2
  0
LINE
  8
0
 10
21.05
 20
2
 11
21.05
 21
0
  0
LINE
  8
0
 10
21.05
 20
0
 11
21.95
 21
0
  0
LINE
  8
0
 10
21.95
 20
0
 11
21.95
 21
2
  0
LINE
  8
0
 10
21.95
 20
2
 11
22.05
 21
2
  0
LINE
  8
0
 10
22.05
 20
2
 11
22.05
 21
0
  0
LINE
  8
0
 10
22.05
 20
0
 11
22.95
 21
0
  0
LINE
  8
0
 10
22.95
 20
0
 11
22.95
 21
2
  0
LINE
  8
0
 10
22.95
 20
2
 11
23.05
 21
2
  0
LINE
  8
0
 10
23.05
 20
2
 11
23.05
 21
0
  0
LINE
  8
0
 10
23.05
 20
0
 11
23.95
 21
0
  0
LINE
  8
0
 10
23.95
 20
0
 11
23.95
 21
2
  0
LINE
  8
0
 10
23.95
 20
2
 11
24.05
 21
2
  0
LINE
  8
0
 10
24.05
 20
2
 11
24.05
 21
0
  0
LINE
  8
0
 10
24.05
 20
0
 11
24.95
 21
0
  0
LINE
  8
0
 10
24.95
 20
0
 11
24.95
 21
4
  0
LINE
  8
0
 10
24.95
 20
4
 11
25.05
 21
4
  0
LINE
  8
0
 10
25.05
 20
4
 11
25.05
 21
0
  0
LINE
  8
0
 10
25.05
 20
0
 11
25.95
 21
0
  0
LINE
  8
0
 10
25.95
 20
0
 11
25.95
 21
2
  0
LINE
  8
0
 10
25.95
 20
2
 11
26.05
 21
2
  0
LINE
  8
0
 10
26.05
 20
2
 11
26.05
 21
0
  0
LINE
  8
0
 10
26.05
 20
0
 11
26.95
 21
0
  0
LINE
  8
0
 10
26.95
 20
0
 11
26.95
 21
2
  0
LINE
  8
0
 10
26.95
 20
2
 11
27.05
 21
2
  0
LINE
  8
0
 10
27.05
 20
2
 11
27.05
 21
0
  0
LINE
  8
0
 10
27.05
 20
0
 11
27.95
 21
0
  0
LINE
  8
0
 10
27.95
 20
0
 11
27.95
 21
2
  0
LINE
  8
0
 10
27.95
 20
2
 11
28.05
 21
2
  0
LINE
  8
0
 10
28.05
 20
2
 11
28.05
 21
0
  0
LINE
  8
0
 10
28.05
 20
0
 11
28.95
 21
0
  0
LINE
  8
0
 10
28.95
 20
0
 11
28.95
 21
2
  0
LINE
  8
0
 10
28.95
 20
2
 11
29.05
 21
2
  0
LINE
  8
0
 10
29.05
 20
2
 11
29.05
 21
0
  0
LINE
  8
0
 10
29.05
 20
0
 11
29.95
 21
0
  0
LINE
  8
0
 10
29.95
 20
0
 11
29.95
 21
6
  0
LINE
  8
0
 10
29.95
 20
6
 11
30.05
 21
6
  0
LINE
  8
0
 10
30.05
 20
6
 11
30.05
 21
0
  0
LINE
  8
0
 10
30.05
 20
0
 11
30.95
 21
0
  0
LINE
  8
0
 10
30.95
 20
0
 11
30.95
 21
2
  0
LINE
  8
0
 10
30.95
 20
2
 11
31.05
 21
2
  0
LINE
  8
0
 10
31.05
 20
2
 11
31.05
 21
0
  0
LINE
  8
0
 10
31.05
 20
0
 11
31.95
 21
0
  0
LINE
  8
0
 10
31.95
 20
0
 11
31.95
 21
2
  0
LINE
  8
0
 10
31.95
 20
2
 11
32.05
 21
2
  0
LINE
  8
0
 10
32.05
 20
2
 11
32.05
 21
0
  0
LINE
  8
0
 10
32.05
 20
0
 11
32.95
 21
0
  0
LINE
  8
0
 10
32.95
 20
0
 11
32.95
 21
2
  0
LINE
  8
0
 10
32.95
 20
2
 11
33.05
 21
2
  0
LINE
  8
0
 10
33.05
 20
2
 11
33.05
 21
0
  0
LINE
  8
0
 10
33.05
 20
0
 11
33.95
 21
0
  0
LINE
  8
0
 10
33.95
 20
0
 11
33.95
 21
2
  0
LINE
  8
0
 10
33.95
 20
2
 11
34.05
 21
2
  0
LINE
  8
0
 10
34.05
 20
2
 11
34.05
 21
0
  0
LINE
  8
0
 10
34.05
 20
0
 11
34.95
 21
0
  0
LINE
  8
0
 10
34.95
 20
0
 11
34.95
 21
4
  0
LINE
  8
0
 10
34.95
 20
4
 11
35.05
 21
4
  0
LINE
  8
0
 10
35.05
 20
4
 11
35.05
 21
0
  0
LINE
  8
0
 10
35.05
 20
0
 11
35.95
 21
0
  0
LINE
  8
0
 10
35.95
 20
0
 11
35.95
 21
2
  0
LINE
  8
0
 10
35.95
 20
2
 11
36.05
 21
2
  0
LINE
  8
0
 10
36.05
 20
2
 11
36.05
 21
0
  0
LINE
  8
0
 10
36.05
 20
0
 11
36.95
 21
0
  0
LINE
  8
0
 10
36.95
 20
0
 11
36.95
 21
2
  0
LINE
  8
0
 10
36.95
 20
2
 11
37.05
 21
2
  0
LINE
  8
0
 10
37.05
 20
2
 11
37.05
 21
0
  0
LINE
  8
0
 10
37.05
 20
0
 11
37.95
 21
0
  0
LINE
  8
0
 10
37.95
 20
0
 11
37.95
 21
2
  0
LINE
  8
0
 10
37.95
 20
2
 11
38.05
 21
2
  0
LINE
  8
0
 10
38.05
 20
2
 11
38.05
 21
0
  0
LINE
  8
0
 10
38.05
 20
0
 11
38.95
 21
0
  0
LINE
  8
0
 10
38.95
 20
0
 11
38.95
 21
2
  0
LINE
  8
0
 10
38.95
 20
2
 11
39.05
 21
2
  0
LINE
  8
0
 10
39.05
 20
2
 11
39.05
 21
0
  0
LINE
  8
0
 10
39.05
 20
0
 11
39.95
 21
0
  0
LINE
  8
0
 10
39.95
 20
0
 11
39.95
 21
6
  0
LINE
  8
0
 10
39.95
 20
6
 11
40.05
 21
6
  0
LINE
  8
0
 10
40.05
 20
6
 11
40.05
 21
0
  0
LINE
  8
0
 10
40.05
 20
0
 11
40.95
 21
0
  0
LINE
  8
0
 10
40.95
 20
0
 11
40.95
 21
2
  0
LINE
  8
0
 10
40.95
 20
2
 11
41.05
 21
2
  0
LINE
  8
0
 10
41.05
 20
2
 11
41.05
 21
0
  0
LINE
  8
0
 10
41.05
 20
0
 11
41.95
 21
0
  0
LINE
  8
0
 10
41.95
 20
0
 11
41.95
 21
2
  0
LINE
  8
0
 10
41.95
 20
2
 11
42.05
 21
2
  0
LINE
  8
0
 10
42.05
 20
2
 11
42.05
 21
0
  0
LINE
  8
0
 10
42.05
 20
0
 11
42.95
 21
0
  0
LINE
  8
0
 10
42.95
 20
0
 11
42.95
 21
2
  0
LINE
  8
0
 10
42.95
 20
2
 11
43.05
 21
2
  0
LINE
  8
0
 10
43.05
 20
2
 11
43.05
 21
0
  0
LINE
  8
0
 10
43.05
 20
0
 11
43.95
 21
0
  0
LINE
  8
0
 10
43.95
 20
0
 11
43.95
 21
2
  0
LINE
  8
0
 10
43.95
 20
2
 11
44.05
 21
2
  0
LINE
  8
0
 10
44.05
 20
2
 11
44.05
 21
0
  0
LINE
  8
0
 10
44.05
 20
0
 11
44.95
 21
0
  0
LINE
  8
0
 10
44.95
 20
0
 11
44.95
 21
4
  0
LINE
  8
0
 10
44.95
 20
4
 11
45.05
 21
4
  0
LINE
  8
0
 10
45.05
 20
4
 11
45.05
 21
0
  0
LINE
  8
0
 10
45.05
 20
0
 11
45.95
 21
0
  0
LINE
  8
0
 10
45.95
 20
0
 11
45.95
 21
2
  0
LINE
  8
0
 10
45.95
 20
2
 11
46.05
 21
2
  0
LINE
  8
0
 10
46.05
 20
2
 11
46.05
 21
0
  0
LINE
  8
0
 10
46.05
 20
0
 11
46.95
 21
0
  0
LINE
  8
0
 10
46.95
 20
0
 11
46.95
 21
2
  0
LINE
  8
0
 10
46.95
 20
2
 11
47.05
 21
2
  0
LINE
  8
0
 10
47.05
 20
2
 11
47.05
 21
0
  0
LINE
  8
0
 10
47.05
 20
0
 11
47.95
 21
0
  0
LINE
  8
0
 10
47.95
 20
0
 11
47.95
 21
2
  0
LINE
  8
0
 10
47.95
 20
2
 11
48.05
 21
2
  0
LINE
  8
0
 10
48.05
 20
2
 11
48.05
 21
0
  0
LINE
  8
0
 10
48.05
 20
0
 11
48.95
 21
0
  0
LINE
  8
0
 10
48.95
 20
0
 11
48.95
 21
2
  0
LINE
  8
0
 10
48.95
 20
2
 11
49.05
 21
2
  0
LINE
  8
0
 10
49.05
 20
2
 11
49.05
 21
0
  0
LINE
  8
0
 10
49.05
 20
0
 11
49.95
 21
0
  0
LINE
  8
0
 10
49.95
 20
0
 11
49.95
 21
6
  0
LINE
  8
0
 10
49.95
 20
6
 11
50.05
 21
6
  0
LINE
  8
0
 10
50.05
 20
6
 11
50.05
 21
0
  0
LINE
  8
0
 10
50.05
 20
0
 11
50.95
 21
0
  0
LINE
  8
0
 10
50.95
 20
0
 11
50.95
 21
2
  0
LINE
  8
0
 10
50.95
 20
2
 11
51.05
 21
2
  0
LINE
  8
0
 10
51.05
 20
2
 11
51.05
 21
0
  0
LINE
  8
0
 10
51.05
 20
0
 11
51.95
 21
0
  0
LINE
  8
0
 10
51.95
 20
0
 11
51.95
 21
2
  0
LINE
  8
0
 10
51.95
 20
2
 11
52.05
 21
2
  0
LINE
  8
0
 10
52.05
 20
2
 11
52.05
 21
0
  0
LINE
  8
0
 10
52.05
 20
0
 11
52.95
 21
0
  0
LINE
  8
0
 10
52.95
 20
0
 11
52.95
 21
2
  0
LINE
  8
0
 10
52.95
 20
2
 11
53.05
 21
2
  0
LINE
  8
0
 10
53.05
 20
2
 11
53.05
 21
0
  0
LINE
  8
0
 10
53.05
 20
0
 11
53.95
 21
0
  0
LINE
  8
0
 10
53.95
 20
0
 11
53.95
 21
2
  0
LINE
  8
0
 10
53.95
 20
2
 11
54.05
 21
2
  0
LINE
  8
0
 10
54.05
 20
2
 11
54.05
 21
0
  0
LINE
  8
0
 10
54.05
 20
0
 11
54.95
 21
0
  0
LINE
  8
0
 10
54.95
 20
0
 11
54.95
 21
4
  0
LINE
  8
0
 10
54.95
 20
4
 11
55.05
 21
4
  0
LINE
  8
0
 10
55.05
 20
4
 11
55.05
 21
0
  0
LINE
  8
0
 10
55.05
 20
0
 11
55.95
 21
0
  0
LINE
  8
0
 10
55.95
 20
0
 11
55.95
 21
2
  0
LINE
  8
0
 10
55.95
 20
2
 11
56.05
 21
2
  0
LINE
  8
0
 10
56.05
 20
2
 11
56.05
 21
0
  0
LINE
  8
0
 10
56.05
 20
0
 11
56.95
 21
0
  0
LINE
  8
0
 10
56.95
 20
0
 11
56.95
 21
2
  0
LINE
  8
0
 10
56.95
 20
2
 11
57.05
 21
2
  0
LINE
  8
0
 10
57.05
 20
2
 11
57.05
 21
0
  0
LINE
  8
0
 10
57.05
 20
0
 11
57.95
 21
0
  0
LINE
  8
0
 10
57.95
 20
0
 11
57.95
 21
2
  0
LINE
  8
0
 10
57.95
 20
2
 11
58.05
 21
2
  0
LINE
  8
0
 10
58.05
 20
2
 11
58.05
 21
0
  0
LINE
  8
0
 10
58.05
 20
0
 11
58.95
 21
0
  0
LINE
  8
0
 10
58.95
 20
0
 11
58.95
 21
2
  0
LINE
  8
0
 10
58.95
 20
2
 11
59.05
 21
2
  0
LINE
  8
0
 10
59.05
 20
2
 11
59.05
 21
0
  0
LINE
  8
0
 10
59.05
 20
0
 11
59.95
 21
0
  0
LINE
  8
0
 10
59.95
 20
0
 11
59.95
 21
6
  0
LINE
  8
0
 10
59.95
 20
6
 11
60.05
 21
6
  0
LINE
  8
0
 10
60.05
 20
6
 11
60.05
 21
0
  0
LINE
  8
0
 10
60.05
 20
0
 11
60.95
 21
0
  0
LINE
  8
0
 10
60.95
 20
0
 11
60.95
 21
2
  0
LINE
  8
0
 10
60.95
 20
2
 11
61.05
 21
2
  0
LINE
  8
0
 10
61.05
 20
2
 11
61.05
 21
0
  0
LINE
  8
0
 10
61.05
 20
0
 11
61.95
 21
0
  0
LINE
  8
0
 10
61.95
 20
0
 11
61.95
 21
2
  0
LINE
  8
0
 10
61.95
 20
2
 11
62.05
 21
2
  0
LINE
  8
0
 10
62.05
 20
2
 11
62.05
 21
0
  0
LINE
  8
0
 10
62.05
 20
0
 11
62.95
 21
0
  0
LINE
  8
0
 10
62.95
 20
0
 11
62.95
 21
2
  0
LINE
  8
0
 10
62.95
 20
2
 11
63.05
 21
2
  0
LINE
  8
0
 10
63.05
 20
2
 11
63.05
 21
0
  0
LINE
  8
0
 10
63.05
 20
0
 11
63.95
 21
0
  0
LINE
  8
0
 10
63.95
 20
0
 11
63.95
 21
2
  0
LINE
  8
0
 10
63.95
 20
2
 11
64.05
 21
2
  0
LINE
  8
0
 10
64.05
 20
2
 11
64.05
 21
0
  0
LINE
  8
0
 10
64.05
 20
0
 11
64.95
 21
0
  0
LINE
  8
0
 10
64.95
 20
0
 11
64.95
 21
4
  0
LINE
  8
0
 10
64.95
 20
4
 11
65.05
 21
4
  0
LINE
  8
0
 10
65.05
 20
4
 11
65.05
 21
0
  0
LINE
  8
0
 10
65.05
 20
0
 11
65.95
 21
0
  0
LINE
  8
0
 10
65.95
 20
0
 11
65.95
 21
2
  0
LINE
  8
0
 10
65.95
 20
2
 11
66.05
 21
2
  0
LINE
  8
0
 10
66.05
 20
2
 11
66.05
 21
0
  0
LINE
  8
0
 10
66.05
 20
0
 11
66.95
 21
0
  0
LINE
  8
0
 10
66.95
 20
0
 11
66.95
 21
2
  0
LINE
  8
0
 10
66.95
 20
2
 11
67.05
 21
2
  0
LINE
  8
0
 10
67.05
 20
2
 11
67.05
 21
0
  0
LINE
  8
0
 10
67.05
 20
0
 11
67.95
 21
0
  0
LINE
  8
0
 10
67.95
 20
0
 11
67.95
 21
2
  0
LINE
  8
0
 10
67.95
 20
2
 11
68.05
 21
2
  0
LINE
  8
0
 10
68.05
 20
2
 11
68.05
 21
0
  0
LINE
  8
0
 10
68.05
 20
0
 11
68.95
 21
0
  0
LINE
  8
0
 10
68.95
 20
0
 11
68.95
 21
2
  0
LINE
  8
0
 10
68.95
 20
2
 11
69.05
 21
2
  0
LINE
  8
0
 10
69.05
 20
2
 11
69.05
 21
0
  0
LINE
  8
0
 10
69.05
 20
0
 11
69.95
 21
0
  0
LINE
  8
0
 10
69.95
 20
0
 11
69.95
 21
6
  0
LINE
  8
0
 10
69.95
 20
6
 11
70.05
 21
6
  0
LINE
  8
0
 10
70.05
 20
6
 11
70.05
 21
0
  0
LINE
  8
0
 10
70.05
 20
0
 11
70.95
 21
0
  0
LINE
  8
0
 10
70.95
 20
0
 11
70.95
 21
2
  0
LINE
  8
0
 10
70.95
 20
2
 11
71.05
 21
2
  0
LINE
  8
0
 10
71.05
 20
2
 11
71.05
 21
0
  0
LINE
  8
0
 10
71.05
 20
0
 11
71.95
 21
0
  0
LINE
  8
0
 10
71.95
 20
0
 11
71.95
 21
2
  0
LINE
  8
0
 10
71.95
 20
2
 11
72.05
 21
2
  0
LINE
  8
0
 10
72.05
 20
2
 11
72.05
 21
0
  0
LINE
  8
0
 10
72.05
 20
0
 11
72.95
 21
0
  0
LINE
  8
0
 10
72.95
 20
0
 11
72.95
 21
2
  0
LINE
  8
0
 10
72.95
 20
2
 11
73.05
 21
2
  0
LINE
  8
0
 10
73.05
 20
2
 11
73.05
 21
0
  0
LINE
  8
0
 10
73.05
 20
0
 11
73.95
 21
0
  0
LINE
  8
0
 10
73.95
 20
0
 11
73.95
 21
2
  0
LINE
  8
0
 10
73.95
 20
2
 11
74.05
 21
2
  0
LINE
  8
0
 10
74.05
 20
2
 11
74.05
 21
0
  0
LINE
  8
0
 10
74.05
 20
0
 11
74.95
 21
0
  0
LINE
  8
0
 10
74.95
 20
0
 11
74.95
 21
4
  0
LINE
  8
0
 10
74.95
 20
4
 11
75.05
 21
4
  0
LINE
  8
0
 10
75.05
 20
4
 11
75.05
 21
0
  0
LINE
  8
0
 10
75.05
 20
0
 11
75.95
 21
0
  0
LINE
  8
0
 10
75.95
 20
0
 11
75.95
 21
2
  0
LINE
  8
0
 10
75.95
 20
2
 11
76.05
 21
2
  0
LINE
  8
0
 10
76.05
 20
2
 11
76.05
 21
0
  0
LINE
  8
0
 10
76.05
 20
0
 11
76.95
 21
0
  0
LINE
  8
0
 10
76.95
 20
0
 11
76.95
 21
2
  0
LINE
  8
0
 10
76.95
 20
2
 11
77.05
 21
2
  0
LINE
  8
0
 10
77.05
 20
2
 11
77.05
 21
0
  0
LINE
  8
0
 10
77.05
 20
0
 11
77.95
 21
0
  0
LINE
  8
0
 10
77.95
 20
0
 11
77.95
 21
2
  0
LINE
  8
0
 10
77.95
 20
2
 11
78.05
 21
2
  0
LINE
  8
0
 10
78.05
 20
2
 11
78.05
 21
0
  0
LINE
  8
0
 10
78.05
 20
0
 11
78.95
 21
0
  0
LINE
  8
0
 10
78.95
 20
0
 11
78.95
 21
2
  0
LINE
  8
0
 10
78.95
 20
2
 11
79.05
 21
2
  0
LINE
  8
0
 10
79.05
 20
2
 11
79.05
 21
0
  0
LINE
  8
0
 10
79.05
 20
0
 11
79.95
 21
0
  0
LINE
  8
0
 10
79.95
 20
0
 11
79.95
 21
6
  0
LINE
  8
0
 10
79.95
 20
6
 11
80.05
 21
6
  0
LINE
  8
0
 10
80.05
 20
6
 11
80.05
 21
0
  0
LINE
  8
0
 10
80.05
 20
0
 11
80.95
 21
0
  0
LINE
  8
0
 10
80.95
 20
0
 11
80.95
 21
2
  0
LINE
  8
0
 10
80.95
 20
2
 11
81.05
 21
2
  0
LINE
  8
0
 10
81.05
 20
2
 11
81.05
 21
0
  0
LINE
  8
0
 10
81.05
 20
0
 11
81.95
 21
0
  0
LINE
  8
0
 10
81.95
 20
0
 11
81.95
 21
2
  0
LINE
  8
0
 10
81.95
 20
2
 11
82.05
 21
2
  0
LINE
  8
0
 10
82.05
 20
2
 11
82.05
 21
0
  0
LINE
  8
0
 10
82.05
 20
0
 11
82.95
 21
0
  0
LINE
  8
0
 10
82.95
 20
0
 11
82.95
 21
2
  0
LINE
  8
0
 10
82.95
 20
2
 11
83.05
 21
2
  0
LINE
  8
0
 10
83.05
 20
2
 11
83.05
 21
0
  0
LINE
  8
0
 10
83.05
 20
0
 11
83.95
 21
0
  0
LINE
  8
0
 10
83.95
 20
0
 11
83.95
 21
2
  0
LINE
  8
0
 10
83.95
 20
2
 11
84.05
 21
2
  0
LINE
  8
0
 10
84.05
 20
2
 11
84.05
 21
0
  0
LINE
  8
0
 10
84.05
 20
0
 11
84.95
 21
0
  0
LINE
  8
0
 10
84.95
 20
0
 11
84.95
 21
4
  0
LINE
  8
0
 10
84.95
 20
4
 11
85.05
 21
4
  0
LINE
  8
0
 10
85.05
 20
4
 11
85.05
 21
0
  0
LINE
  8
0
 10
85.05
 20
0
 11
85.95
 21
0
  0
LINE
  8
0
 10
85.95
 20
0
 11
85.95
 21
2
  0
LINE
  8
0
 10
85.95
 20
2
 11
86.05
 21
2
  0
LINE
  8
0
 10
86.05
 20
2
 11
86.05
 21
0
  0
LINE
  8
0
 10
86.05
 20
0
 11
86.95
 21
0
  0
LINE
  8
0
 10
86.95
 20
0
 11
86.95
 21
2
  0
LINE
  8
0
 10
86.95
 20
2
 11
87.05
 21
2
  0
LINE
  8
0
 10
87.05
 20
2
 11
87.05
 21
0
  0
LINE
  8
0
 10
87.05
 20
0
 11
87.95
 21
0
  0
LINE
  8
0
 10
87.95
 20
0
 11
87.95
 21
2
  0
LINE
  8
0
 10
87.95
 20
2
 11
88.05
 21
2
  0
LINE
  8
0
 10
88.05
 20
2
 11
88.05
 21
0
  0
LINE
  8
0
 10
88.05
 20
0
 11
88.95
 21
0
  0
LINE
  8
0
 10
88.95
 20
0
 11
88.95
 21
2
  0
LINE
  8
0
 10
88.95
 20
2
 11
89.05
 21
2
  0
LINE
  8
0
 10
89.05
 20
2
 11
89.05
 21
0
  0
LINE
  8
0
 10
89.05
 20
0
 11
89.95
 21
0
  0
LINE
  8
0
 10
89.95
 20
0
 11
89.95
 21
6
  0
LINE
  8
0
 10
89.95
 20
6
 11
90.05
 21
6
  0
LINE
  8
0
 10
90.05
 20
6
 11
90.05
 21
0
  0
LINE
  8
0
 10
90.05
 20
0
 11
90.95
 21
0
  0
LINE
  8
0
 10
90.95
 20
0
 11
90.95
 21
2
  0
LINE
  8
0
 10
90.95
 20
2
 11
91.05
 21
2
  0
LINE
  8
0
 10
91.05
 20
2
 11
91.05
 21
0
  0
LINE
  8
0
 10
91.05
 20
0
 11
91.95
 21
0
  0
LINE
  8
0
 10
91.95
 20
0
 11
91.95
 21
2
  0
LINE
  8
0
 10
91.95
 20
2
 11
92.05
 21
2
  0
LINE
  8
0
 10
92.05
 20
2
 11
92.05
 21
0
  0
LINE
  8
0
 10
92.05
 20
0
 11
92.95
 21
0
  0
LINE
  8
0
 10
92.95
 20
0
 11
92.95
 21
2
  0
LINE
  8
0
 10
92.95
 20
2
 11
93.05
 21
2
  0
LINE
  8
0
 10
93.05
 20
2
 11
93.05
 21
0
  0
LINE
  8
0
 10
93.05
 20
0
 11
93.95
 21
0
  0
LINE
  8
0
 10
93.95
 20
0
 11
93.95
 21
2
  0
LINE
  8
0
 10
93.95
 20
2
 11
94.05
 21
2
  0
LINE
  8
0
 10
94.05
 20
2
 11
94.05
 21
0
  0
LINE
  8
0
 10
94.05
 20
0
 11
94.95
 21
0
  0
LINE
  8
0
 10
94.95
 20
0
 11
94.95
 21
4
  0
LINE
  8
0
 10
94.95
 20
4
 11
95.05
 21
4
  0
LINE
  8
0
 10
95.05
 20
4
 11
95.05
 21
0
  0
LINE
  8
0
 10
95.05
 20
0
 11
95.95
 21
0
  0
LINE
  8
0
 10
95.95
 20
0
 11
95.95
 21
2
  0
LINE
  8
0
 10
95.95
 20
2
 11
96.05
 21
2
  0
LINE
  8
0
 10
96.05
 20
2
 11
96.05
 21
0
  0
LINE
  8
0
 10
96.05
 20
0
 11
96.95
 21
0
  0
LINE
  8
0
 10
96.95
 20
0
 11
96.95
 21
2
  0
LINE
  8
0
 10
96.95
 20
2
 11
97.05
 21
2
  0
LINE
  8
0
 10
97.05
 20
2
 11
97.05
 21
0
  0
LINE
  8
0
 10
97.05
 20
0
 11
97.95
 21
0
  0
LINE
  8
0
 10
97.95
 20
0
 11
97.95
 21
2
  0
LINE
  8
0
 10
97.95
 20
2
 11
98.05
 21
2
  0
LINE
  8
0
 10
98.05
 20
2
 11
98.05
 21
0
  0
LINE
  8
0
 10
98.05
 20
0
 11
98.95
 21
0
  0
LINE
  8
0
 10
98.95
 20
0
 11
98.95
 21
2
  0
LINE
  8
0
 10
98.95
 20
2
 11
99.05
 21
2
  0
LINE
  8
0
 10
99.05
 20
2
 11
99.05
 21
0
  0
LINE
  8
0
 10
99.05
 20
0
 11
99.95
 21
0
  0
LINE
  8
0
 10
99.95
 20
0
 11
99.95
 21
6
  0
LINE
  8
0
 10
99.95
 20
6
 11
100.05
 21
6
  0
LINE
  8
0
 10
100.05
 20
6
 11
100.05
 21
0
  0
LINE
  8
0
 10
100.05
 20
0
 11
100.95
 21
0
  0
LINE
  8
0
 10
100.95
 20
0
 11
100.95
 21
2
  0
LINE
  8
0
 10
100.95
 20
2
 11
101.05
 21
2
  0
LINE
  8
0
 10
101.05
 20
2
 11
101.05
 21
0
  0
LINE
  8
0
 10
101.05
 20
0
 11
101.95
 21
0
  0
LINE
  8
0
 10
101.95
 20
0
 11
101.95
 21
2
  0
LINE
  8
0
 10
101.95
 20
2
 11
102.05
 21
2
  0
LINE
  8
0
 10
102.05
 20
2
 11
102.05
 21
0
  0
LINE
  8
0
 10
102.05
 20
0
 11
102.95
 21
0
  0
LINE
  8
0
 10
102.95
 20
0
 11
102.95
 21
2
  0
LINE
  8
0
 10
102.95
 20
2
 11
103.05
 21
2
  0
LINE
  8
0
 10
103.05
 20
2
 11
103.05
 21
0
  0
LINE
  8
0
 10
103.05
 20
0
 11
103.95
 21
0
  0
LINE
  8
0
 10
103.95
 20
0
 11
103.95
 21
2
  0
LINE
  8
0
 10
103.95
 20
2
 11
104.05
 21
2
  0
LINE
  8
0
 10
104.05
 20
2
 11
104.05
 21
0
  0
LINE
  8
0
 10
104.05
 20
0
 11
104.95
 21
0
  0
LINE
  8
0
 10
104.95
 20
0
 11
104.95
 21
4
  0
LINE
  8
0
 10
104.95
 20
4
 11
105.05
 21
4
  0
LINE
  8
0
 10
105.05
 20
4
 11
105.05
 21
0
  0
LINE
  8
0
 10
105.05
 20
0
 11
105.95
 21
0
  0
LINE
  8
0
 10
105.95
 20
0
 11
105.95
 21
2
  0
LINE
  8
0
 10
105.95
 20
2
 11
106.05
 21
2
  0
LINE
  8
0
 10
106.05
 20
2
 11
106.05
 21
0
  0
LINE
  8
0
 10
106.05
 20
0
 11
106.95
 21
0
  0
LINE
  8
0
 10
106.95
 20
0
 11
106.95
 21
2
  0
LINE
  8
0
 10
106.95
 20
2
 11
107.05
 21
2
  0
LINE
  8
0
 10
107.05
 20
2
 11
107.05
 21
0
  0
LINE
  8
0
 10
107.05
 20
0
 11
107.95
 21
0
  0
LINE
  8
0
 10
107.95
 20
0
 11
107.95
 21
2
  0
LINE
  8
0
 10
107.95
 20
2
 11
108.05
 21
2
  0
LINE
  8
0
 10
108.05
 20
2
 11
108.05
 21
0
  0
LINE
  8
0
 10
108.05
 20
0
 11
108.95
 21
0
  0
LINE
  8
0
 10
108.95
 20
0
 11
108.95
 21
2
  0
LINE
  8
0
 10
108.95
 20
2
 11
109.05
 21
2
  0
LINE
  8
0
 10
109.05
 20
2
 11
109.05
 21
0
  0
LINE
  8
0
 10
109.05
 20
0
 11
109.95
 21
0
  0
LINE
  8
0
 10
109.95
 20
0
 11
109.95
 21
6
  0
LINE
  8
0
 10
109.95
 20
6
 11
110.05
 21
6
  0
LINE
  8
0
 10
110.05
 20
6
 11
110.05
 21
0
  0
LINE
  8
0
 10
110.05
 20
0
 11
110.95
 21
0
  0
LINE
  8
0
 10
110.95
 20
0
 11
110.95
 21
2
  0
LINE
  8
0
 10
110.95
 20
2
 11
111.05
 21
2
  0
LINE
  8
0
 10
111.05
 20
2
 11
111.05
 21
0
  0
LINE
  8
0
 10
111.05
 20
0
 11
111.95
 21
0
  0
LINE
  8
0
 10
111.95
 20
0
 11
111.95
 21
2
  0
LINE
  8
0
 10
111.95
 20
2
 11
112.05
 21
2
  0
LINE
  8
0
 10
112.05
 20
2
 11
112.05
 21
0
  0
LINE
  8
0
 10
112.05
 20
0
 11
112.95
 21
0
  0
LINE
  8
0
 10
112.95
 20
0
 11
112.95
 21
2
  0
LINE
  8
0
 10
112.95
 20
2
 11
113.05
 21
2
  0
LINE
  8
0
 10
113.05
 20
2
 11
113.05
 21
0
  0
LINE
  8
0
 10
113.05
 20
0
 11
113.95
 21
0
  0
LINE
  8
0
 10
113.95
 20
0
 11
113.95
 21
2
  0
LINE
  8
0
 10
113.95
 20
2
 11
114.05
 21
2
  0
LINE
  8
0
 10
114.05
 20
2
 11
114.05
 21
0
  0
LINE
  8
0
 10
114.05
 20
0
 11
114.95
 21
0
  0
LINE
  8
0
 10
114.95
 20
0
 11
114.95
 21
4
  0
LINE
  8
0
 10
114.95
 20
4
 11
115.05
 21
4
  0
LINE
  8
0
 10
115.05
 20
4
 11
115.05
 21
0
  0
LINE
  8
0
 10
115.05
 20
0
 11
115.95
 21
0
  0
LINE
  8
0
 10
115.95
 20
0
 11
115.95
 21
2
  0
LINE
  8
0
 10
115.95
 20
2
 11
116.05
 21
2
  0
LINE
  8
0
 10
116.05
 20
2
 11
116.05
 21
0
  0
LINE
  8
0
 10
116.05
 20
0
 11
116.95
 21
0
  0
LINE
  8
0
 10
116.95
 20
0
 11
116.95
 21
2
  0
LINE
  8
0
 10
116.95
 20
2
 11
117.05
 21
2
  0
LINE
  8
0
 10
117.05
 20
2
 11
117.05
 21
0
  0
LINE
  8
0
 10
117.05
 20
0
 11
117.95
 21
0
  0
LINE
  8
0
 10
117.95
 20
0
 11
117.95
 21
2
  0
LINE
  8
0
 10
117.95
 20
2
 11
118.05
 21
2
  0
LINE
  8
0
 10
118.05
 20
2
 11
118.05
 21
0
  0
LINE
  8
0
 10
118.05
 20
0
 11
118.95
 21
0
  0
LINE
  8
0
 10
118.95
 20
0
 11
118.95
 21
2
  0
LINE
  8
0
 10
118.95
 20
2
 11
119.05
 21
2
  0
LINE
  8
0
 10
119.05
 20
2
 11
119.05
 21
0
  0
LINE
  8
0
 10
119.05
 20
0
 11
119.95
 21
0
  0
LINE
  8
0
 10
119.95
 20
0
 11
119.95
 21
6
  0
LINE
  8
0
 10
119.95
 20
6
 11
120.05
 21
6
  0
LINE
  8
0
 10
120.05
 20
6
 11
120.05
 21
0
  0
LINE
  8
0
 10
120.05
 20
0
 11
120.95
 21
0
  0
LINE
  8
0
 10
120.95
 20
0
 11
120.95
 21
2
  0
LINE
  8
0
 10
120.95
 20
2
 11
121.05
 21
2
  0
LINE
  8
0
 10
121.05
 20
2
 11
121.05
 21
0
  0
LINE
  8
0
 10
121.05
 20
0
 11
121.95
 21
0
  0
LINE
  8
0
 10
121.95
 20
0
 11
121.95
 21
2
  0
LINE
  8
0
 10
121.95
 20
2
 11
122.05
 21
2
  0
LINE
  8
0
 10
122.05
 20
2
 11
122.05
 21
0
  0
LINE
  8
0
 10
122.05
 20
0
 11
122.95
 21
0
  0
LINE
  8
0
 10
122.95
 20
0
 11
122.95
 21
2
  0
LINE
  8
0
 10
122.95
 20
2
 11
123.05
 21
2
  0
LINE
  8
0
 10
123.05
 20
2
 11
123.05
 21
0
  0
LINE
  8
0
 10
123.05
 20
0
 11
123.95
 21
0
  0
LINE
  8
0
 10
123.95
 20
0
 11
123.95
 21
2
  0
LINE
  8
0
 10
123.95
 20
2
 11
124.05
 21
2
  0
LINE
  8
0
 10
124.05
 20
2
 11
124.05
 21
0
  0
LINE
  8
0
 10
124.05
 20
0
 11
124.95
 21
0
  0
LINE
  8
0
 10
124.95
 20
0
 11
124.95
 21
4
  0
LINE
  8
0
 10
124.95
 20
4
 11
125.05
 21
4
  0
LINE
  8
0
 10
125.05
 20
4
 11
125.05
 21
0
  0
LINE
  8
0
 10
125.05
 20
0
 11
125.95
 21
0
  0
LINE
  8
0
 10
125.95
 20
0
 11
125.95
 21
2
  0
LINE
  8
0
 10
125.95
 20
2
 11
126.05
 21
2
  0
LINE
  8
0
 10
126.05
 20
2
 11
126.05
 21
0
  0
LINE
  8
0
 10
126.05
 20
0
 11
126.95
 21
0
  0
LINE
  8
0
 10
126.95
 20
0
 11
126.95
 21
2
  0
LINE
  8
0
 10
126.95
 20
2
 11
127.05
 21
2
  0
LINE
  8
0
 10
127.05
 20
2
 11
127.05
 21
0
  0
LINE
  8
0
 10
127.05
 20
0
 11
127.95
 21
0
  0
LINE
  8
0
 10
127.95
 20
0
 11
127.95
 21
2
  0
LINE
  8
0
 10
127.95
 20
2
 11
128.05
 21
2
  0
LINE
  8
0
 10
128.05
 20
2
 11
128.05
 21
0
  0
LINE
  8
0
 10
128.05
 20
0
 11
128.95
 21
0
  0
LINE
  8
0
 10
128.95
 20
0
 11
128.95
 21
2
  0
LINE
  8
0
 10
128.95
 20
2
 11
129.05
 21
2
  0
LINE
  8
0
 10
129.05
 20
2
 11
129.05
 21
0
  0
LINE
  8
0
 10
129.05
 20
0
 11
129.95
 21
0
  0
LINE
  8
0
 10
129.95
 20
0
 11
129.95
 21
6
  0
LINE
  8
0
 10
129.95
 20
6
 11
130.05
 21
6
  0
LINE
  8
0
 10
130.05
 20
6
 11
130.05
 21
0
  0
LINE
  8
0
 10
130.05
 20
0
 11
130.95
 21
0
  0
LINE
  8
0
 10
130.95
 20
0
 11
130.95
 21
2
  0
LINE
  8
0
 10
130.95
 20
2
 11
131.05
 21
2
  0
LINE
  8
0
 10
131.05
 20
2
 11
131.05
 21
0
  0
LINE
  8
0
 10
131.05
 20
0
 11
131.95
 21
0
  0
LINE
  8
0
 10
131.95
 20
0
 11
131.95
 21
2
  0
LINE
  8
0
 10
131.95
 20
2
 11
132.05
 21
2
  0
LINE
  8
0
 10
132.05
 20
2
 11
132.05
 21
0
  0
LINE
  8
0
 10
132.05
 20
0
 11
132.95
 21
0
  0
LINE
  8
0
 10
132.95
 20
0
 11
132.95
 21
2
  0
LINE
  8
0
 10
132.95
 20
2
 11
133.05
 21
2
  0
LINE
  8
0
 10
133.05
 20
2
 11
133.05
 21
0
  0
LINE
  8
0
 10
133.05
 20
0
 11
133.95
 21
0
  0
LINE
  8
0
 10
133.95
 20
0
 11
133.95
 21
2
  0
LINE
  8
0
 10
133.95
 20
2
 11
134.05
 21
2
  0
LINE
  8
0
 10
134.05
 20
2
 11
134.05
 21
0
  0
LINE
  8
0
 10
134.05
 20
0
 11
134.95
 21
0
  0
LINE
  8
0
 10
134.95
 20
0
 11
134.95
 21
4
  0
LINE
  8
0
 10
134.95
 20
4
 11
135.05
 21
4
  0
LINE
  8
0
 10
135.05
 20
4
 11
135.05
 21
0
  0
LINE
  8
0
 10
135.05
 20
0
 11
135.95
 21
0
  0
LINE
  8
0
 10
135.95
 20
0
 11
135.95
 21
2
  0
LINE
  8
0
 10
135.95
 20
2
 11
136.05
 21
2
  0
LINE
  8
0
 10
136.05
 20
2
 11
136.05
 21
0
  0
LINE
  8
0
 10
136.05
 20
0
 11
136.95
 21
0
  0
LINE
  8
0
 10
136.95
 20
0
 11
136.95
 21
2
  0
LINE
  8
0
 10
136.95
 20
2
 11
137.05
 21
2
  0
LINE
  8
0
 10
137.05
 20
2
 11
137.05
 21
0
  0
LINE
  8
0
 10
137.05
 20
0
 11
137.95
 21
0
  0
LINE
  8
0
 10
137.95
 20
0
 11
137.95
 21
2
  0
LINE
  8
0
 10
137.95
 20
2
 11
138.05
 21
2
  0
LINE
  8
0
 10
138.05
 20
2
 11
138.05
 21
0
  0
LINE
  8
0
 10
138.05
 20
0
 11
138.95
 21
0
  0
LINE
  8
0
 10
138.95
 20
0
 11
138.95
 21
2
  0
LINE
  8
0
 10
138.95
 20
2
 11
139.05
 21
2
  0
LINE
  8
0
 10
139.05
 20
2
 11
139.05
 21
0
  0
LINE
  8
0
 10
139.05
 20
0
 11
139.95
 21
0
  0
LINE
  8
0
 10
139.95
 20
0
 11
139.95
 21
6
  0
LINE
  8
0
 10
139.95
 20
6
 11
140.05
 21
6
  0
LINE
  8
0
 10
140.05
 20
6
 11
140.05
 21
0
  0
LINE
  8
0
 10
140.05
 20
0
 11
140.95
 21
0
  0
LINE
  8
0
 10
140.95
 20
0
 11
140.95
 21
2
  0
LINE
  8
0
 10
140.95
 20
2
 11
141.05
 21
2
  0
LINE
  8
0
 10
141.05
 20
2
 11
141.05
 21
0
  0
LINE
  8
0
 10
141.05
 20
0
 11
141.95
 21
0
  0
LINE
  8
0
 10
141.95
 20
0
 11
141.95
 21
2
  0
LINE
  8
0
 10
141.95
 20
2
 11
142.05
 21
2
  0
LINE
  8
0
 10
142.05
 20
2
 11
142.05
 21
0
  0
LINE
  8
0
 10
142.05
 20
0
 11
142.95
 21
0
  0
LINE
  8
0
 10
142.95
 20
0
 11
142.95
 21
2
  0
LINE
  8
0
 10
142.95
 20
2
 11
143.05
 21
2
  0
LINE
  8
0
 10
143.05
 20
2
 11
143.05
 21
0
  0
LINE
  8
0
 10
143.05
 20
0
 11
143.95
 21
0
  0
LINE
  8
0
 10
143.95
 20
0
 11
143.95
 21
2
  0
LINE
  8
0
 10
143.95
 20
2
 11
144.05
 21
2
  0
LINE
  8
0
 10
144.05
 20
2
 11
144.05
 21
0
  0
LINE
  8
0
 10
144.05
 20
0
 11
144.95
 21
0
  0
LINE
  8
0
 10
144.95
 20
0
 11
144.95
 21
4
  0
LINE
  8
0
 10
144.95
 20
4
 11
145.05
 21
4
  0
LINE
  8
0
 10
145.05
 20
4
 11
145.05
 21
0
  0
LINE
  8
0
 10
145.05
 20
0
 11
145.95
 21
0
  0
LINE
  8
0
 10
145.95
 20
0
 11
145.95
 21
2
  0
LINE
  8
0
 10
145.95
 20
2
 11
146.05
 21
2
  0
LINE
  8
0
 10
146.05
 20
2
 11
146.05
 21
0
  0
LINE
  8
0
 10
146.05
 20
0
 11
146.95
 21
0
  0
LINE
  8
0
 10
146.95
 20
0
 11
146.95
 21
2
  0
LINE
  8
0
 10
146.95
 20
2
 11
147.05
 21
2
  0
LINE
  8
0
 10
147.05
 20
2
 11
147.05
 21
0
  0
LINE
  8
0
 10
147.05
 20
0
 11
147.95
 21
0
  0
LINE
  8
0
 10
147.95
 20
0
 11
147.95
 21
2
  0
LINE
  8
0
 10
147.95
 20
2
 11
148.05
 21
2
  0
LINE
  8
0
 10
148.05
 20
2
 11
148.05
 21
0
  0
LINE
  8
0
 10
148.05
 20
0
 11
148.95
 21
0
  0
LINE
  8
0
 10
148.95
 20
0
 11
148.95
 21
2
  0
LINE
  8
0
 10
148.95
 20
2
 11
149.05
 21
2
  0
LINE
  8
0
 10
149.05
 20
2
 11
149.05
 21
0
  0
LINE
  8
0
 10
149.05
 20
0
 11
149.95
 21
0
  0
LINE
  8
0
 10
149.95
 20
0
 11
149.95
 21
6
  0
LINE
  8
0
 10
149.95
 20
6
 11
150.05
 21
6
  0
LINE
  8
0
 10
150.05
 20
6
 11
150.05
 21
0
  0
LINE
  8
0
 10
150.05
 20
0
 11
150.95
 21
0
  0
LINE
  8
0
 10
150.95
 20
0
 11
150.95
 21
2
  0
LINE
  8
0
 10
150.95
 20
2
 11
151.05
 21
2
  0
LINE
  8
0
 10
151.05
 20
2
 11
151.05
 21
0
  0
LINE
  8
0
 10
151.05
 20
0
 11
151.95
 21
0
  0
LINE
  8
0
 10
151.95
 20
0
 11
151.95
 21
2
  0
LINE
  8
0
 10
151.95
 20
2
 11
152.05
 21
2
  0
LINE
  8
0
 10
152.05
 20
2
 11
152.05
 21
0
  0
LINE
  8
0
 10
152.05
 20
0
 11
152.95
 21
0
  0
LINE
  8
0
 10
152.95
 20
0
 11
152.95
 21
2
  0
LINE
  8
0
 10
152.95
 20
2
 11
153.05
 21
2
  0
LINE
  8
0
 10
153.05
 20
2
 11
153.05
 21
0
  0
LINE
  8
0
 10
153.05
 20
0
 11
153.95
 21
0
  0
LINE
  8
0
 10
153.95
 20
0
 11
153.95
 21
2
  0
LINE
  8
0
 10
153.95
 20
2
 11
154.05
 21
2
  0
LINE
  8
0
 10
154.05
 20
2
 11
154.05
 21
0
  0
LINE
  8
0
 10
154.05
 20
0
 11
154.95
 21
0
  0
LINE
  8
0
 10
154.95
 20
0
 11
154.95
 21
4
  0
LINE
  8
0
 10
154.95
 20
4
 11
155.05
 21
4
  0
LINE
  8
0
 10
155.05
 20
4
 11
155.05
 21
0
  0
LINE
  8
0
 10
155.05
 20
0
 11
155.95
 21
0
  0
LINE
  8
0
 10
155.95
 20
0
 11
155.95
 21
2
  0
LINE
  8
0
 10
155.95
 20
2
 11
156.05
 21
2
  0
LINE
  8
0
 10
156.05
 20
2
 11
156.05
 21
0
  0
LINE
  8
0
 10
156.05
 20
0
 11
156.95
 21
0
  0
LINE
  8
0
 10
156.95
 20
0
 11
156.95
 21
2
  0
LINE
  8
0
 10
156.95
 20
2
 11
157.05
 21
2
  0
LINE
  8
0
 10
157.05
 20
2
 11
157.05
 21
0
  0
LINE
  8
0
 10
157.05
 20
0
 11
157.95
 21
0
  0
LINE
  8
0
 10
157.95
 20
0
 11
157.95
 21
2
  0
LINE
  8
0
 10
157.95
 20
2
 11
158.05
 21
2
  0
LINE
  8
0
 10
158.05
 20
2
 11
158.05
 21
0
  0
LINE
  8
0
 10
158.05
 20
0
 11
158.95
 21
0
  0
LINE
  8
0
 10
158.95
 20
0
 11
158.95
 21
2
  0
LINE
  8
0
 10
158.95
 20
2
 11
159.05
 21
2
  0
LINE
  8
0
 10
159.05
 20
2
 11
159.05
 21
0
  0
LINE
  8
0
 10
159.05
 20
0
 11
159.95
 21
0
  0
LINE
  8
0
 10
159.95
 20
0
 11
159.95
 21
6
  0
LINE
  8
0
 10
159.95
 20
6
 11
160.05
 21
6
  0
LINE
  8
0
 10
160.05
 20
6
 11
160.05
 21
0
  0
LINE
  8
0
 10
160.05
 20
0
 11
160.95
 21
0
  0
LINE
  8
0
 10
160.95
 20
0
 11
160.95
 21
2
  0
LINE
  8
0
 10
160.95
 20
2
 11
161.05
 21
2
  0
LINE
  8
0
 10
161.05
 20
2
 11
161.05
 21
0
  0
LINE
  8
0
 10
161.05
 20
0
 11
161.95
 21
0
  0
LINE
  8
0
 10
161.95
 20
0
 11
161.95
 21
2
  0
LINE
  8
0
 10
161.95
 20
2
 11
162.05
 21
2
  0
LINE
  8
0
 10
162.05
 20
2
 11
162.05
 21
0
  0
LINE
  8
0
 10
162.05
 20
0
 11
162.95
 21
0
  0
LINE
  8
0
 10
162.95
 20
0
 11
162.95
 21
2
  0
LINE
  8
0
 10
162.95
 20
2
 11
163.05
 21
2
  0
LINE
  8
0
 10
163.05
 20
2
 11
163.05
 21
0
  0
LINE
  8
0
 10
163.05
 20
0
 11
163.95
 21
0
  0
LINE
  8
0
 10
163.95
 20
0
 11
163.95
 21
2
  0
LINE
  8
0
 10
163.95
 20
2
 11
164.05
 21
2
  0
LINE
  8
0
 10
164.05
 20
2
 11
164.05
 21
0
  0
LINE
  8
0
 10
164.05
 20
0
 11
164.95
 21
0
  0
LINE
  8
0
 10
164.95
 20
0
 11
164.95
 21
4
  0
LINE
  8
0
 10
164.95
 20
4
 11
165.05
 21
4
  0
LINE
  8
0
 10
165.05
 20
4
 11
165.05
 21
0
  0
LINE
  8
0
 10
165.05
 20
0
 11
165.95
 21
0
  0
LINE
  8
0
 10
165.95
 20
0
 11
165.95
 21
2
  0
LINE
  8
0
 10
165.95
 20
2
 11
166.05
 21
2
  0
LINE
  8
0
 10
166.05
 20
2
 11
166.05
 21
0
  0
LINE
  8
0
 10
166.05
 20
0
 11
166.95
 21
0
  0
LINE
  8
0
 10
166.95
 20
0
 11
166.95
 21
2
  0
LINE
  8
0
 10
166.95
 20
2
 11
167.05
 21
2
  0
LINE
  8
0
 10
167.05
 20
2
 11
167.05
 21
0
  0
LINE
  8
0
 10
167.05
 20
0
 11
167.95
 21
0
  0
LINE
  8
0
 10
167.95
 20
0
 11
167.95
 21
2
  0
LINE
  8
0
 10
167.95
 20
2
 11
168.05
 21
2
  0
LINE
  8
0
 10
168.05
 20
2
 11
168.05
 21
0
  0
LINE
  8
0
 10
168.05
 20
0
 11
168.95
 21
0
  0
LINE
  8
0
 10
168.95
 20
0
 11
168.95
 21
2
  0
LINE
  8
0
 10
168.95
 20
2
 11
169.05
 21
2
  0
LINE
  8
0
 10
169.05
 20
2
 11
169.05
 21
0
  0
LINE
  8
0
 10
169.05
 20
0
 11
169.95
 21
0
  0
LINE
  8
0
 10
169.95
 20
0
 11
169.95
 21
6
  0
LINE
  8
0
 10
169.95
 20
6
 11
170.05
 21
6
  0
LINE
  8
0
 10
170.05
 20
6
 11
170.05
 21
0
  0
LINE
  8
0
 10
170.05
 20
0
 11
170.95
 21
0
  0
LINE
  8
0
 10
170.95
 20
0
 11
170.95
 21
2
  0
LINE
  8
0
 10
170.95
 20
2
 11
171.05
 21
2
  0
LINE
  8
0
 10
171.05
 20
2
 11
171.05
 21
0
  0
LINE
  8
0
 10
171.05
 20
0
 11
171.95
 21
0
  0
LINE
  8
0
 10
171.95
 20
0
 11
171.95
 21
2
  0
LINE
  8
0
 10
171.95
 20
2
 11
172.05
 21
2
  0
LINE
  8
0
 10
172.05
 20
2
 11
172.05
 21
0
  0
LINE
  8
0
 10
172.05
 20
0
 11
172.95
 21
0
  0
LINE
  8
0
 10
172.95
 20
0
 11
172.95
 21
2
  0
LINE
  8
0
 10
172.95
 20
2
 11
173.05
 21
2
  0
LINE
  8
0
 10
173.05
 20
2
 11
173.05
 21
0
  0
LINE
  8
0
 10
173.05
 20
0
 11
173.95
 21
0
  0
LINE
  8
0
 10
173.95
 20
0
 11
173.95
 21
2
  0
LINE
  8
0
 10
173.95
 20
2
 11
174.05
 21
2
  0
LINE
  8
0
 10
174.05
 20
2
 11
174.05
 21
0
  0
LINE
  8
0
 10
174.05
 20
0
 11
174.95
 21
0
  0
LINE
  8
0
 10
174.95
 20
0
 11
174.95
 21
4
  0
LINE
  8
0
 10
174.95
 20
4
 11
175.05
 21
4
  0
LINE
  8
0
 10
175.05
 20
4
 11
175.05
 21
0
  0
LINE
  8
0
 10
175.05
 20
0
 11
175.95
 21
0
  0
LINE
  8
0
 10
175.95
 20
0
 11
175.95
 21
2
  0
LINE
  8
0
 10
175.95
 20
2
 11
176.05
 21
2
  0
LINE
  8
0
 10
176.05
 20
2
 11
176.05
 21
0
  0
LINE
  8
0
 10
176.05
 20
0
 11
176.95
 21
0
  0
LINE
  8
0
 10
176.95
 20
0
 11
176.95
 21
2
  0
LINE
  8
0
 10
176.95
 20
2
 11
177.05
 21
2
  0
LINE
  8
0
 10
177.05
 20
2
 11
177.05
 21
0
  0
LINE
  8
0
 10
177.05
 20
0
 11
177.95
 21
0
  0
LINE
  8
0
 10
177.95
 20
0
 11
177.95
 21
2
  0
LINE
  8
0
 10
177.95
 20
2
 11
178.05
 21
2
  0
LINE
  8
0
 10
178.05
 20
2
 11
178.05
 21
0
  0
LINE
  8
0
 10
178.05
 20
0
 11
178.95
 21
0
  0
LINE
  8
0
 10
178.95
 20
0
 11
178.95
 21
2
  0
LINE
  8
0
 10
178.95
 20
2
 11
179.05
 21
2
  0
LINE
  8
0
 10
179.05
 20
2
 11
179.05
 21
0
  0
LINE
  8
0
 10
179.05
 20
0
 11
179.95
 21
0
  0
LINE
  8
0
 10
179.95
 20
0
 11
179.95
 21
6
  0
LINE
  8
0
 10
179.95
 20
6
 11
180.05
 21
6
  0
LINE
  8
0
 10
180.05
 20
6
 11
180.05
 21
0
  0
LINE
  8
0
 10
180.05
 20
0
 11
180.95
 21
0
  0
LINE
  8
0
 10
180.95
 20
0
 11
180.95
 21
2
  0
LINE
  8
0
 10
180.95
 20
2
 11
181.05
 21
2
  0
LINE
  8
0
 10
181.05
 20
2
 11
181.05
 21
0
  0
LINE
  8
0
 10
181.05
 20
0
 11
181.95
 21
0
  0
LINE
  8
0
 10
181.95
 20
0
 11
181.95
 21
2
  0
LINE
  8
0
 10
181.95
 20
2
 11
182.05
 21
2
  0
LINE
  8
0
 10
182.05
 20
2
 11
182.05
 21
0
  0
LINE
  8
0
 10
182.05
 20
0
 11
182.95
 21
0
  0
LINE
  8
0
 10
182.95
 20
0
 11
182.95
 21
2
  0
LINE
  8
0
 10
182.95
 20
2
 11
183.05
 21
2
  0
LINE
  8
0
 10
183.05
 20
2
 11
183.05
 21
0
  0
LINE
  8
0
 10
183.05
 20
0
 11
183.95
 21
0
  0
LINE
  8
0
 10
183.95
 20
0
 11
183.95
 21
2
  0
LINE
  8
0
 10
183.95
 20
2
 11
184.05
 21
2
  0
LINE
  8
0
 10
184.05
 20
2
 11
184.05
 21
0
  0
LINE
  8
0
 10
184.05
 20
0
 11
184.95
 21
0
  0
LINE
  8
0
 10
184.95
 20
0
 11
184.95
 21
4
  0
LINE
  8
0
 10
184.95
 20
4
 11
185.05
 21
4
  0
LINE
  8
0
 10
185.05
 20
4
 11
185.05
 21
0
  0
LINE
  8
0
 10
185.05
 20
0
 11
185.95
 21
0
  0
LINE
  8
0
 10
185.95
 20
0
 11
185.95
 21
2
  0
LINE
  8
0
 10
185.95
 20
2
 11
186.05
 21
2
  0
LINE
  8
0
 10
186.05
 20
2
 11
186.05
 21
0
  0
LINE
  8
0
 10
186.05
 20
0
 11
186.95
 21
0
  0
LINE
  8
0
 10
186.95
 20
0
 11
186.95
 21
2
  0
LINE
  8
0
 10
186.95
 20
2
 11
187.05
 21
2
  0
LINE
  8
0
 10
187.05
 20
2
 11
187.05
 21
0
  0
LINE
  8
0
 10
187.05
 20
0
 11
187.95
 21
0
  0
LINE
  8
0
 10
187.95
 20
0
 11
187.95
 21
2
  0
LINE
  8
0
 10
187.95
 20
2
 11
188.05
 21
2
  0
LINE
  8
0
 10
188.05
 20
2
 11
188.05
 21
0
  0
LINE
  8
0
 10
188.05
 20
0
 11
188.95
 21
0
  0
LINE
  8
0
 10
188.95
 20
0
 11
188.95
 21
2
  0
LINE
  8
0
 10
188.95
 20
2
 11
189.05
 21
2
  0
LINE
  8
0
 10
189.05
 20
2
 11
189.05
 21
0
  0
LINE
  8
0
 10
189.05
 20
0
 11
189.95
 21
0
  0
LINE
  8
0
 10
189.95
 20
0
 11
189.95
 21
6
  0
LINE
  8
0
 10
189.95
 20
6
 11
190.05
 21
6
  0
LINE
  8
0
 10
190.05
 20
6
 11
190.05
 21
0
  0
LINE
  8
0
 10
190.05
 20
0
 11
190.95
 21
0
  0
LINE
  8
0
 10
190.95
 20
0
 11
190.95
 21
2
  0
LINE
  8
0
 10
190.95
 20
2
 11
191.05
 21
2
  0
LINE
  8
0
 10
191.05
 20
2
 11
191.05
 21
0
  0
LINE
  8
0
 10
191.05
 20
0
 11
191.95
 21
0
  0
LINE
  8
0
 10
191.95
 20
0
 11
191.95
 21
2
  0
LINE
  8
0
 10
191.95
 20
2
 11
192.05
 21
2
  0
LINE
  8
0
 10
192.05
 20
2
 11
192.05
 21
0
  0
LINE
  8
0
 10
192.05
 20
0
 11
192.95
 21
0
  0
LINE
  8
0
 10
192.95
 20
0
 11
192.95
 21
2
  0
LINE
  8
0
 10
192.95
 20
2
 11
193.05
 21
2
  0
LINE
  8
0
 10
193.05
 20
2
 11
193.05
 21
0
  0
LINE
  8
0
 10
193.05
 20
0
 11
193.95
 21
0
  0
LINE
  8
0
 10
193.95
 20
0
 11
193.95
 21
2
  0
LINE
  8
0
 10
193.95
 20
2
 11
194.05
 21
2
  0
LINE
  8
0
 10
194.05
 20
2
 11
194.05
 21
0
  0
LINE
  8
0
 10
194.05
 20
0
 11
194.95
 21
0
  0
LINE
  8
0
 10
194.95
 20
0
 11
194.95
 21
4
  0
LINE
  8
0
 10
194.95
 20
4
 11
195.05
 21
4
  0
LINE
  8
0
 10
195.05
 20
4
 11
195.05
 21
0
  0
LINE
  8
0
 10
195.05
 20
0
 11
195.95
 21
0
  0
LINE
  8
0
 10
195.95
 20
0
 11
195.95
 21
2
  0
LINE
  8
0
 10
195.95
 20
2
 11
196.05
 21
2
  0
LINE
  8
0
 10
196.05
 20
2
 11
196.05
 21
0
  0
LINE
  8
0
 10
196.05
 20
0
 11
196.95
 21
0
  0
LINE
  8
0
 10
196.95
 20
0
 11
196.95
 21
2
  0
LINE
  8
0
 10
196.95
 20
2
 11
197.05
 21
2
  0
LINE
  8
0
 10
197.05
 20
2
 11
197.05
 21
0
  0
LINE
  8
0
 10
197.05
 20
0
 11
197.95
 21
0
  0
LINE
  8
0
 10
197.95
 20
0
 11
197.95
 21
2
  0
LINE
  8
0
 10
197.95
 20
2
 11
198.05
 21
2
  0
LINE
  8
0
 10
198.05
 20
2
 11
198.05
 21
0
  0
LINE
  8
0
 10
198.05
 20
0
 11
198.95
 21
0
  0
LINE
  8
0
 10
198.95
 20
0
 11
198.95
 21
2
  0
LINE
  8
0
 10
198.95
 20
2
 11
199.05
 21
2
  0
LINE
  8
0
 10
199.05
 20
2
 11
199.05
 21
0
  0
LINE
  8
0
 10
199.05
 20
0
 11
199.95
 21
0
  0
LINE
  8
0
 10
199.95
 20
0
 11
199.95
 21
6
  0
LINE
  8
0
 10
199.95
 20
6
 11
200.05
 21
6
  0
LINE
  8
0
 10
200.05
 20
6
 11
200.05
 21
0
  0
LINE
  8
0
 10
200.05
 20
0
 11
200.95
 21
0
  0
LINE
  8
0
 10
200.95
 20
0
 11
200.95
 21
2
  0
LINE
  8
0
 10
200.95
 20
2
 11
201.05
 21
2
  0
LINE
  8
0
 10
201.05
 20
2
 11
201.05
 21
0
  0
LINE
  8
0
 10
201.05
 20
0
 11
201.95
 21
0
  0
LINE
  8
0
 10
201.95
 20
0
 11
201.95
 21
2
  0
LINE
  8
0
 10
201.95
 20
2
 11
202.05
 21
2
  0
LINE
  8
0
 10
202.05
 20
2
 11
202.05
 21
0
  0
LINE
  8
0
 10
202.05
 20
0
 11
202.95
 21
0
  0
LINE
  8
0
 10
202.95
 20
0
 11
202.95
 21
2
  0
LINE
  8
0
 10
202.95
 20
2
 11
203.05
 21
2
  0
LINE
  8
0
 10
203.05
 20
2
 11
203.05
 21
0
  0
LINE
  8
0
 10
203.05
 20
0
 11
203.95
 21
0
  0
LINE
  8
0
 10
203.95
 20
0
 11
203.95
 21
2
  0
LINE
  8
0
 10
203.95
 20
2
 11
204.05
 21
2
  0
LINE
  8
0
 10
204.05
 20
2
 11
204.05
 21
0
  0
LINE
  8
0
 10
204.05
 20
0
 11
204.95
 21
0
  0
LINE
  8
0
 10
204.95
 20
0
 11
204.95
 21
4
  0
LINE
  8
0
 10
204.95
 20
4
 11
205.05
 21
4
  0
LINE
  8
0
 10
205.05
 20
4
 11
205.05
 21
0
  0
LINE
  8
0
 10
205.05
 20
0
 11
205.95
 21
0
  0
LINE
  8
0
 10
205.95
 20
0
 11
205.95
 21
2
  0
LINE
  8
0
 10
205.95
 20
2
 11
206.05
 21
2
  0
LINE
  8
0
 10
206.05
 20
2
 11
206.05
 21
0
  0
LINE
  8
0
 10
206.05
 20
0
 11
206.95
 21
0
  0
LINE
  8
0
 10
206.95
 20
0
 11
206.95
 21
2
  0
LINE
  8
0
 10
206.95
 20
2
 11
207.05
 21
2
  0
LINE
  8
0
 10
207.05
 20
2
 11
207.05
 21
0
  0
LINE
  8
0
 10
207.05
 20
0
 11
207.95
 21
0
  0
LINE
  8
0
 10
207.95
 20
0
 11
207.95
 21
2
  0
LINE
  8
0
 10
207.95
 20
2
 11
208.05
 21
2
  0
LINE
  8
0
 10
208.05
 20
2
 11
208.05
 21
0
  0
LINE
  8
0
 10
208.05
 20
0
 11
208.95
 21
0
  0
LINE
  8
0
 10
208.95
 20
0
 11
208.95
 21
2
  0
LINE
  8
0
 10
208.95
 20
2
 11
209.05
 21
2
  0
LINE
  8
0
 10
209.05
 20
2
 11
209.05
 21
0
  0
LINE
  8
0
 10
209.05
 20
0
 11
209.95
 21
0
  0
LINE
  8
0
 10
209.95
 20
0
 11
209.95
 21
6
  0
LINE
  8
0
 10
209.95
 20
6
 11
210.05
 21
6
  0
LINE
  8
0
 10
210.05
 20
6
 11
210.05
 21
0
  0
LINE
  8
0
 10
210.05
 20
0
 11
210.95
 21
0
  0
LINE
  8
0
 10
210.95
 20
0
 11
210.95
 21
2
  0
LINE
  8
0
 10
210.95
 20
2
 11
211.05
 21
2
  0
LINE
  8
0
 10
211.05
 20
2
 11
211.05
 21
0
  0
LINE
  8
0
 10
211.05
 20
0
 11
211.95
 21
0
  0
LINE
  8
0
 10
211.95
 20
0
 11
211.95
 21
2
  0
LINE
  8
0
 10
211.95
 20
2
 11
212.05
 21
2
  0
LINE
  8
0
 10
212.05
 20
2
 11
212.05
 21
0
  0
LINE
  8
0
 10
212.05
 20
0
 11
212.95
 21
0
  0
LINE
  8
0
 10
212.95
 20
0
 11
212.95
 21
2
  0
LINE
  8
0
 10
212.95
 20
2
 11
213.05
 21
2
  0
LINE
  8
0
 10
213.05
 20
2
 11
213.05
 21
0
  0
LINE
  8
0
 10
213.05
 20
0
 11
213.95
 21
0
  0
LINE
  8
0
 10
213.95
 20
0
 11
213.95
 21
2
  0
LINE
  8
0
 10
213.95
 20
2
 11
214.05
 21
2
  0
LINE
  8
0
 10
214.05
 20
2
 11
214.05
 21
0
  0
LINE
  8
0
 10
214.05
 20
0
 11
214.95
 21
0
  0
LINE
  8
0
 10
214.95
 20
0
 11
214.95
 21
4
  0
LINE
  8
0
 10
214.95
 20
4
 11
215.05
 21
4
  0
LINE
  8
0
 10
215.05
 20
4
 11
215.05
 21
0
  0
LINE
  8
0
 10
215.05
 20
0
 11
215.95
 21
0
  0
LINE
  8
0
 10
215.95
 20
0
 11
215.95
 21
2
  0
LINE
  8
0
 10
215.95
 20
2
 11
216.05
 21
2
  0
LINE
  8
0
 10
216.05
 20
2
 11
216.05
 21
0
  0
LINE
  8
0
 10
216.05
 20
0
 11
216.95
 21
0
  0
LINE
  8
0
 10
216.95
 20
0
 11
216.95
 21
2
  0
LINE
  8
0
 10
216.95
 20
2
 11
217.05
 21
2
  0
LINE
  8
0
 10
217.05
 20
2
 11
217.05
 21
0
  0
LINE
  8
0
 10
217.05
 20
0
 11
217.95
 21
0
  0
LINE
  8
0
 10
217.95
 20
0
 11
217.95
 21
2
  0
LINE
  8
0
 10
217.95
 20
2
 11
218.05
 21
2
  0
LINE
  8
0
 10
218.05
 20
2
 11
218.05
 21
0
  0
LINE
  8
0
 10
218.05
 20
0
 11
218.95
 21
0
  0
LINE
  8
0
 10
218.95
 20
0
 11
218.95
 21
2
  0
LINE
  8
0
 10
218.95
 20
2
 11
219.05
 21
2
  0
LINE
  8
0
 10
219.05
 20
2
 11
219.05
 21
0
  0
LINE
  8
0
 10
219.05
 20
0
 11
219.95
 21
0
  0
LINE
  8
0
 10
219.95
 20
0
 11
219.95
 21
6
  0
LINE
  8
0
 10
219.95
 20
6
 11
220.05
 21
6
  0
LINE
  8
0
 10
220.05
 20
6
 11
220.05
 21
0
  0
LINE
  8
0
 10
220.05
 20
0
 11
220.95
 21
0
  0
LINE
  8
0
 10
220.95
 20
0
 11
220.95
 21
2
  0
LINE
  8
0
 10
220.95
 20
2
 11
221.05
 21
2
  0
LINE
  8
0
 10
221.05
 20
2
 11
221.05
 21
0
  0
LINE
  8
0
 10
221.05
 20
0
 11
221.95
 21
0
  0
LINE
  8
0
 10
221.95
 20
0
 11
221.95
 21
2
  0
LINE
  8
0
 10
221.95
 20
2
 11
222.05
 21
2
  0
LINE
  8
0
 10
222.05
 20
2
 11
222.05
 21
0
  0
LINE
  8
0
 10
222.05
 20
0
 11
222.95
 21
0
  0
LINE
  8
0
 10
222.95
 20
0
 11
222.95
 21
2
  0
LINE
  8
0
 10
222.95
 20
2
 11
223.05
 21
2
  0
LINE
  8
0
 10
223.05
 20
2
 11
223.05
 21
0
  0
LINE
  8
0
 10
223.05
 20
0
 11
223.95
 21
0
  0
LINE
  8
0
 10
223.95
 20
0
 11
223.95
 21
2
  0
LINE
  8
0
 10
223.95
 20
2
 11
224.05
 21
2
  0
LINE
  8
0
 10
224.05
 20
2
 11
224.05
 21
0
  0
LINE
  8
0
 10
224.05
 20
0
 11
224.95
 21
0
  0
LINE
  8
0
 10
224.95
 20
0
 11
224.95
 21
4
  0
LINE
  8
0
 10
224.95
 20
4
 11
225.05
 21
4
  0
LINE
  8
0
 10
225.05
 20
4
 11
225.05
 21
0
  0
LINE
  8
0
 10
225.05
 20
0
 11
225.95
 21
0
  0
LINE
  8
0
 10
225.95
 20
0
 11
225.95
 21
2
  0
LINE
  8
0
 10
225.95
 20
2
 11
226.05
 21
2
  0
LINE
  8
0
 10
226.05
 20
2
 11
226.05
 21
0
  0
LINE
  8
0
 10
226.05
 20
0
 11
226.95
 21
0
  0
LINE
  8
0
 10
226.95
 20
0
 11
226.95
 21
2
  0
LINE
  8
0
 10
226.95
 20
2
 11
227.05
 21
2
  0
LINE
  8
0
 10
227.05
 20
2
 11
227.05
 21
0
  0
LINE
  8
0
 10
227.05
 20
0
 11
227.95
 21
0
  0
LINE
  8
0
 10
227.95
 20
0
 11
227.95
 21
2
  0
LINE
  8
0
 10
227.95
 20
2
 11
228.05
 21
2
  0
LINE
  8
0
 10
228.05
 20
2
 11
228.05
 21
0
  0
LINE
  8
0
 10
228.05
 20
0
 11
228.95
 21
0
  0
LINE
  8
0
 10
228.95
 20
0
 11
228.95
 21
2
  0
LINE
  8
0
 10
228.95
 20
2
 11
229.05
 21
2
  0
LINE
  8
0
 10
229.05
 20
2
 11
229.05
 21
0
  0
LINE
  8
0
 10
229.05
 20
0
 11
229.95
 21
0
  0
LINE
  8
0
 10
229.95
 20
0
 11
229.95
 21
6
  0
LINE
  8
0
 10
229.95
 20
6
 11
230.05
 21
6
  0
LINE
  8
0
 10
230.05
 20
6
 11
230.05
 21
0
  0
LINE
  8
0
 10
230.05
 20
0
 11
230.95
 21
0
  0
LINE
  8
0
 10
230.95
 20
0
 11
230.95
 21
2
  0
LINE
  8
0
 10
230.95
 20
2
 11
231.05
 21
2
  0
LINE
  8
0
 10
231.05
 20
2
 11
231.05
 21
0
  0
LINE
  8
0
 10
231.05
 20
0
 11
231.95
 21
0
  0
LINE
  8
0
 10
231.95
 20
0
 11
231.95
 21
2
  0
LINE
  8
0
 10
231.95
 20
2
 11
232.05
 21
2
  0
LINE
  8
0
 10
232.05
 20
2
 11
232.05
 21
0
  0
LINE
  8
0
 10
232.05
 20
0
 11
232.95
 21
0
  0
LINE
  8
0
 10
232.95
 20
0
 11
232.95
 21
2
  0
LINE
  8
0
 10
232.95
 20
2
 11
233.05
 21
2
  0
LINE
  8
0
 10
233.05
 20
2
 11
233.05
 21
0
  0
LINE
  8
0
 10
233.05
 20
0
 11
233.95
 21
0
  0
LINE
  8
0
 10
233.95
 20
0
 11
233.95
 21
2
  0
LINE
  8
0
 10
233.95
 20
2
 11
234.05
 21
2
  0
LINE
  8
0
 10
234.05
 20
2
 11
234.05
 21
0
  0
LINE
  8
0
 10
234.05
 20
0
 11
234.95
 21
0
  0
LINE
  8
0
 10
234.95
 20
0
 11
234.95
 21
4
  0
LINE
  8
0
 10
234.95
 20
4
 11
235.05
 21
4
  0
LINE
  8
0
 10
235.05
 20
4
 11
235.05
 21
0
  0
LINE
  8
0
 10
235.05
 20
0
 11
235.95
 21
0
  0
LINE
  8
0
 10
235.95
 20
0
 11
235.95
 21
2
  0
LINE
  8
0
 10
235.95
 20
2
 11
236.05
 21
2
  0
LINE
  8
0
 10
236.05
 20
2
 11
236.05
 21
0
  0
LINE
  8
0
 10
236.05
 20
0
 11
236.95
 21
0
  0
LINE
  8
0
 10
236.95
 20
0
 11
236.95
 21
2
  0
LINE
  8
0
 10
236.95
 20
2
 11
237.05
 21
2
  0
LINE
  8
0
 10
237.05
 20
2
 11
237.05
 21
0
  0
LINE
  8
0
 10
237.05
 20
0
 11
237.95
 21
0
  0
LINE
  8
0
 10
237.95
 20
0
 11
237.95
 21
2
  0
LINE
  8
0
 10
237.95
 20
2
 11
238.05
 21
2
  0
LINE
  8
0
 10
238.05
 20
2
 11
238.05
 21
0
  0
LINE
  8
0
 10
238.05
 20
0
 11
238.95
 21
0
  0
LINE
  8
0
 10
238.95
 20
0
 11
238.95
 21
2
  0
LINE
  8
0
 10
238.95
 20
2
 11
239.05
 21
2
  0
LINE
  8
0
 10
239.05
 20
2
 11
239.05
 21
0
  0
LINE
  8
0
 10
239.05
 20
0
 11
239.95
 21
0
  0
LINE
  8
0
 10
239.95
 20
0
 11
239.95
 21
6
  0
LINE
  8
0
 10
239.95
 20
6
 11
240.05
 21
6
  0
LINE
  8
0
 10
240.05
 20
6
 11
240.05
 21
0
  0
LINE
  8
0
 10
240.05
 20
0
 11
240.95
 21
0
  0
LINE
  8
0
 10
240.95
 20
0
 11
240.95
 21
2
  0
LINE
  8
0
 10
240.95
 20
2
 11
241.05
 21
2
  0
LINE
  8
0
 10
241.05
 20
2
 11
241.05
 21
0
  0
LINE
  8
0
 10
241.05
 20
0
 11
241.95
 21
0
  0
LINE
  8
0
 10
241.95
 20
0
 11
241.95
 21
2
  0
LINE
  8
0
 10
241.95
 20
2
 11
242.05
 21
2
  0
LINE
  8
0
 10
242.05
 20
2
 11
242.05
 21
0
  0
LINE
  8
0
 10
242.05
 20
0
 11
242.95
 21
0
  0
LINE
  8
0
 10
242.95
 20
0
 11
242.95
 21
2
  0
LINE
  8
0
 10
242.95
 20
2
 11
243.05
 21
2
  0
LINE
  8
0
 10
243.05
 20
2
 11
243.05
 21
0
  0
LINE
  8
0
 10
243.05
 20
0
 11
243.95
 21
0
  0
LINE
  8
0
 10
243.95
 20
0
 11
243.95
 21
2
  0
LINE
  8
0
 10
243.95
 20
2
 11
244.05
 21
2
  0
LINE
  8
0
 10
244.05
 20
2
 11
244.05
 21
0
  0
LINE
  8
0
 10
244.05
 20
0
 11
244.95
 21
0
  0
LINE
  8
0
 10
244.95
 20
0
 11
244.95
 21
4
  0
LINE
  8
0
 10
244.95
 20
4
 11
245.05
 21
4
  0
LINE
  8
0
 10
245.05
 20
4
 11
245.05
 21
0
  0
LINE
  8
0
 10
245.05
 20
0
 11
245.95
 21
0
  0
LINE
  8
0
 10
245.95
 20
0
 11
245.95
 21
2
  0
LINE
  8
0
 10
245.95
 20
2
 11
246.05
 21
2
  0
LINE
  8
0
 10
246.05
 20
2
 11
246.05
 21
0
  0
LINE
  8
0
 10
246.05
 20
0
 11
246.95
 21
0
  0
LINE
  8
0
 10
246.95
 20
0
 11
246.95
 21
2
  0
LINE
  8
0
 10
246.95
 20
2
 11
247.05
 21
2
  0
LINE
  8
0
 10
247.05
 20
2
 11
247.05
 21
0
  0
LINE
  8
0
 10
247.05
 20
0
 11
247.95
 21
0
  0
LINE
  8
0
 10
247.95
 20
0
 11
247.95
 21
2
  0
LINE
  8
0
 10
247.95
 20
2
 11
248.05
 21
2
  0
LINE
  8
0
 10
248.05
 20
2
 11
248.05
 21
0
  0
LINE
  8
0
 10
248.05
 20
0
 11
248.95
 21
0
  0
LINE
  8
0
 10
248.95
 20
0
 11
248.95
 21
2
  0
LINE
  8
0
 10
248.95
 20
2
 11
249.05
 21
2
  0
LINE
  8
0
 10
249.05
 20
2
 11
249.05
 21
0
  0
LINE
  8
0
 10
249.05
 20
0
 11
249.95
 21
0
  0
LINE
  8
0
 10
249.95
 20
0
 11
249.95
 21
6
  0
LINE
  8
0
 10
249.95
 20
6
 11
250.05
 21
6
  0
LINE
  8
0
 10
250.05
 20
6
 11
250.05
 21
0
  0
LINE
  8
0
 10
250.05
 20
0
 11
250.95
 21
0
  0
LINE
  8
0
 10
250.95
 20
0
 11
250.95
 21
2
  0
LINE
  8
0
 10
250.95
 20
2
 11
251.05
 21
2
  0
LINE
  8
0
 10
251.05
 20
2
 11
251.05
 21
0
  0
LINE
  8
0
 10
251.05
 20
0
 11
251.95
 21
0
  0
LINE
  8
0
 10
251.95
 20
0
 11
251.95
 21
2
  0
LINE
  8
0
 10
251.95
 20
2
 11
252.05
 21
2
  0
LINE
  8
0
 10
252.05
 20
2
 11
252.05
 21
0
  0
LINE
  8
0
 10
252.05
 20
0
 11
252.95
 21
0
  0
LINE
  8
0
 10
252.95
 20
0
 11
252.95
 21
2
  0
LINE
  8
0
 10
252.95
 20
2
 11
253.05
 21
2
  0
LINE
  8
0
 10
253.05
 20
2
 11
253.05
 21
0
  0
LINE
  8
0
 10
253.05
 20
0
 11
253.95
 21
0
  0
LINE
  8
0
 10
253.95
 20
0
 11
253.95
 21
2
  0
LINE
  8
0
 10
253.95
 20
2
 11
254.05
 21
2
  0
LINE
  8
0
 10
254.05
 20
2
 11
254.05
 21
0
  0
LINE
  8
0
 10
254.05
 20
0
 11
254.95
 21
0
  0
LINE
  8
0
 10
254.95
 20
0
 11
254.95
 21
4
  0
LINE
  8
0
 10
254.95
 20
4
 11
255.05
 21
4
  0
LINE
  8
0
 10
255.05
 20
4
 11
255.05
 21
0
  0
LINE
  8
0
 10
255.05
 20
0
 11
255.95
 21
0
  0
LINE
  8
0
 10
255.95
 20
0
 11
255.95
 21
2
  0
LINE
  8
0
 10
255.95
 20
2
 11
256.05
 21
2
  0
LINE
  8
0
 10
256.05
 20
2
 11
256.05
 21
0
  0
LINE
  8
0
 10
256.05
 20
0
 11
256.95
 21
0
  0
LINE
  8
0
 10
256.95
 20
0
 11
256.95
 21
2
  0
LINE
  8
0
 10
256.95
 20
2
 11
257.05
 21
2
  0
LINE
  8
0
 10
257.05
 20
2
 11
257.05
 21
0
  0
LINE
  8
0
 10
257.05
 20
0
 11
257.95
 21
0
  0
LINE
  8
0
 10
257.95
 20
0
 11
257.95
 21
2
  0
LINE
  8
0
 10
257.95
 20
2
 11
258.05
 21
2
  0
LINE
  8
0
 10
258.05
 20
2
 11
258.05
 21
0
  0
LINE
  8
0
 10
258.05
 20
0
 11
258.95
 21
0
  0
LINE
  8
0
 10
258.95
 20
0
 11
258.95
 21
2
  0
LINE
  8
0
 10
258.95
 20
2
 11
259.05
 21
2
  0
LINE
  8
0
 10
259.05
 20
2
 11
259.05
 21
0
  0
LINE
  8
0
 10
259.05
 20
0
 11
259.95
 21
0
  0
LINE
  8
0
 10
259.95
 20
0
 11
259.95
 21
6
  0
LINE
  8
0
 10
259.95
 20
6
 11
260.05
 21
6
  0
LINE
  8
0
 10
260.05
 20
6
 11
260.05
 21
0
  0
LINE
  8
0
 10
260.05
 20
0
 11
260.95
 21
0
  0
LINE
  8
0
 10
260.95
 20
0
 11
260.95
 21
2
  0
LINE
  8
0
 10
260.95
 20
2
 11
261.05
 21
2
  0
LINE
  8
0
 10
261.05
 20
2
 11
261.05
 21
0
  0
LINE
  8
0
 10
261.05
 20
0
 11
261.95
 21
0
  0
LINE
  8
0
 10
261.95
 20
0
 11
261.95
 21
2
  0
LINE
  8
0
 10
261.95
 20
2
 11
262.05
 21
2
  0
LINE
  8
0
 10
262.05
 20
2
 11
262.05
 21
0
  0
LINE
  8
0
 10
262.05
 20
0
 11
262.95
 21
0
  0
LINE
  8
0
 10
262.95
 20
0
 11
262.95
 21
2
  0
LINE
  8
0
 10
262.95
 20
2
 11
263.05
 21
2
  0
LINE
  8
0
 10
263.05
 20
2
 11
263.05
 21
0
  0
LINE
  8
0
 10
263.05
 20
0
 11
263.95
 21
0
  0
LINE
  8
0
 10
263.95
 20
0
 11
263.95
 21
2
  0
LINE
  8
0
 10
263.95
 20
2
 11
264.05
 21
2
  0
LINE
  8
0
 10
264.05
 20
2
 11
264.05
 21
0
  0
LINE
  8
0
 10
264.05
 20
0
 11
264.95
 21
0
  0
LINE
  8
0
 10
264.95
 20
0
 11
264.95
 21
4
  0
LINE
  8
0
 10
264.95
 20
4
 11
265.05
 21
4
  0
LINE
  8
0
 10
265.05
 20
4
 11
265.05
 21
0
  0
LINE
  8
0
 10
265.05
 20
0
 11
265.95
 21
0
  0
LINE
  8
0
 10
265.95
 20
0
 11
265.95
 21
2
  0
LINE
  8
0
 10
265.95
 20
2
 11
266.05
 21
2
  0
LINE
  8
0
 10
266.05
 20
2
 11
266.05
 21
0
  0
LINE
  8
0
 10
266.05
 20
0
 11
266.95
 21
0
  0
LINE
  8
0
 10
266.95
 20
0
 11
266.95
 21
2
  0
LINE
  8
0
 10
266.95
 20
2
 11
267.05
 21
2
  0
LINE
  8
0
 10
267.05
 20
2
 11
267.05
 21
0
  0
LINE
  8
0
 10
267.05
 20
0
 11
267.95
 21
0
  0
LINE
  8
0
 10
267.95
 20
0
 11
267.95
 21
2
  0
LINE
  8
0
 10
267.95
 20
2
 11
268.05
 21
2
  0
LINE
  8
0
 10
268.05
 20
2
 11
268.05
 21
0
  0
LINE
  8
0
 10
268.05
 20
0
 11
268.95
 21
0
  0
LINE
  8
0
 10
268.95
 20
0
 11
268.95
 21
2
  0
LINE
  8
0
 10
268.95
 20
2
 11
269.05
 21
2
  0
LINE
  8
0
 10
269.05
 20
2
 11
269.05
 21
0
  0
LINE
  8
0
 10
269.05
 20
0
 11
269.95
 21
0
  0
LINE
  8
0
 10
269.95
 20
0
 11
269.95
 21
6
  0
LINE
  8
0
 10
269.95
 20
6
 11
270.05
 21
6
  0
LINE
  8
0
 10
270.05
 20
6
 11
270.05
 21
0
  0
LINE
  8
0
 10
270.05
 20
0
 11
270.95
 21
0
  0
LINE
  8
0
 10
270.95
 20
0
 11
270.95
 21
2
  0
LINE
  8
0
 10
270.95
 20
2
 11
271.05
 21
2
  0
LINE
  8
0
 10
271.05
 20
2
 11
271.05
 21
0
  0
LINE
  8
0
 10
271.05
 20
0
 11
271.95
 21
0
  0
LINE
  8
0
 10
271.95
 20
0
 11
271.95
 21
2
  0
LINE
  8
0
 10
271.95
 20
2
 11
272.05
 21
2
  0
LINE
  8
0
 10
272.05
 20
2
 11
272.05
 21
0
  0
LINE
  8
0
 10
272.05
 20
0
 11
272.95
 21
0
  0
LINE
  8
0
 10
272.95
 20
0
 11
272.95
 21
2
  0
LINE
  8
0
 10
272.95
 20
2
 11
273.05
 21
2
  0
LINE
  8
0
 10
273.05
 20
2
 11
273.05
 21
0
  0
LINE
  8
0
 10
273.05
 20
0
 11
273.95
 21
0
  0
LINE
  8
0
 10
273.95
 20
0
 11
273.95
 21
2
  0
LINE
  8
0
 10
273.95
 20
2
 11
274.05
 21
2
  0
LINE
  8
0
 10
274.05
 20
2
 11
274.05
 21
0
  0
LINE
  8
0
 10
274.05
 20
0
 11
274.95
 21
0
  0
LINE
  8
0
 10
274.95
 20
0
 11
274.95
 21
4
  0
LINE
  8
0
 10
274.95
 20
4
 11
275.05
 21
4
  0
LINE
  8
0
 10
275.05
 20
4
 11
275.05
 21
0
  0
LINE
  8
0
 10
275.05
 20
0
 11
275.95
 21
0
  0
LINE
  8
0
 10
275.95
 20
0
 11
275.95
 21
2
  0
LINE
  8
0
 10
275.95
 20
2
 11
276.05
 21
2
  0
LINE
  8
0
 10
276.05
 20
2
 11
276.05
 21
0
  0
LINE
  8
0
 10
276.05
 20
0
 11
276.95
 21
0
  0
LINE
  8
0
 10
276.95
 20
0
 11
276.95
 21
2
  0
LINE
  8
0
 10
276.95
 20
2
 11
277.05
 21
2
  0
LINE
  8
0
 10
277.05
 20
2
 11
277.05
 21
0
  0
LINE
  8
0
 10
277.05
 20
0
 11
277.95
 21
0
  0
LINE
  8
0
 10
277.95
 20
0
 11
277.95
 21
2
  0
LINE
  8
0
 10
277.95
 20
2
 11
278.05
 21
2
  0
LINE
  8
0
 10
278.05
 20
2
 11
278.05
 21
0
  0
LINE
  8
0
 10
278.05
 20
0
 11
278.95
 21
0
  0
LINE
  8
0
 10
278.95
 20
0
 11
278.95
 21
2
  0
LINE
  8
0
 10
278.95
 20
2
 11
279.05
 21
2
  0
LINE
  8
0
 10
279.05
 20
2
 11
279.05
 21
0
  0
LINE
  8
0
 10
279.05
 20
0
 11
279.95
 21
0
  0
LINE
  8
0
 10
279.95
 20
0
 11
279.95
 21
6
  0
LINE
  8
0
 10
279.95
 20
6
 11
280.05
 21
6
  0
LINE
  8
0
 10
280.05
 20
6
 11
280.05
 21
0
  0
LINE
  8
0
 10
280.05
 20
0
 11
280.95
 21
0
  0
LINE
  8
0
 10
280.95
 20
0
 11
280.95
 21
2
  0
LINE
  8
0
 10
280.95
 20
2
 11
281.05
 21
2
  0
LINE
  8
0
 10
281.05
 20
2
 11
281.05
 21
0
  0
LINE
  8
0
 10
281.05
 20
0
 11
281.95
 21
0
  0
LINE
  8
0
 10
281.95
 20
0
 11
281.95
 21
2
  0
LINE
  8
0
 10
281.95
 20
2
 11
282.05
 21
2
  0
LINE
  8
0
 10
282.05
 20
2
 11
282.05
 21
0
  0
LINE
  8
0
 10
282.05
 20
0
 11
282.95
 21
0
  0
LINE
  8
0
 10
282.95
 20
0
 11
282.95
 21
2
  0
LINE
  8
0
 10
282.95
 20
2
 11
283.05
 21
2
  0
LINE
  8
0
 10
283.05
 20
2
 11
283.05
 21
0
  0
LINE
  8
0
 10
283.05
 20
0
 11
283.95
 21
0
  0
LINE
  8
0
 10
283.95
 20
0
 11
283.95
 21
2
  0
LINE
  8
0
 10
283.95
 20
2
 11
284.05
 21
2
  0
LINE
  8
0
 10
284.05
 20
2
 11
284.05
 21
0
  0
LINE
  8
0
 10
284.05
 20
0
 11
284.95
 21
0
  0
LINE
  8
0
 10
284.95
 20
0
 11
284.95
 21
4
  0
LINE
  8
0
 10
284.95
 20
4
 11
285.05
 21
4
  0
LINE
  8
0
 10
285.05
 20
4
 11
285.05
 21
0
  0
LINE
  8
0
 10
285.05
 20
0
 11
285.95
 21
0
  0
LINE
  8
0
 10
285.95
 20
0
 11
285.95
 21
2
  0
LINE
  8
0
 10
285.95
 20
2
 11
286.05
 21
2
  0
LINE
  8
0
 10
286.05
 20
2
 11
286.05
 21
0
  0
LINE
  8
0
 10
286.05
 20
0
 11
286.95
 21
0
  0
LINE
  8
0
 10
286.95
 20
0
 11
286.95
 21
2
  0
LINE
  8
0
 10
286.95
 20
2
 11
287.05
 21
2
  0
LINE
  8
0
 10
287.05
 20
2
 11
287.05
 21
0
  0
LINE
  8
0
 10
287.05
 20
0
 11
287.95
 21
0
  0
LINE
  8
0
 10
287.95
 20
0
 11
287.95
 21
2
  0
LINE
  8
0
 10
287.95
 20
2
 11
288.05
 21
2
  0
LINE
  8
0
 10
288.05
 20
2
 11
288.05
 21
0
  0
LINE
  8
0
 10
288.05
 20
0
 11
288.95
 21
0
  0
LINE
  8
0
 10
288.95
 20
0
 11
288.95
 21
2
  0
LINE
  8
0
 10
288.95
 20
2
 11
289.05
 21
2
  0
LINE
  8
0
 10
289.05
 20
2
 11
289.05
 21
0
  0
LINE
  8
0
 10
289.05
 20
0
 11
289.95
 21
0
  0
LINE
  8
0
 10
289.95
 20
0
 11
289.95
 21
6
  0
LINE
  8
0
 10
289.95
 20
6
 11
290.05
 21
6
  0
LINE
  8
0
 10
290.05
 20
6
 11
290.05
 21
0
  0
LINE
  8
0
 10
290.05
 20
0
 11
290.95
 21
0
  0
LINE
  8
0
 10
290.95
 20
0
 11
290.95
 21
2
  0
LINE
  8
0
 10
290.95
 20
2
 11
291.05
 21
2
  0
LINE
  8
0
 10
291.05
 20
2
 11
291.05
 21
0
  0
LINE
  8
0
 10
291.05
 20
0
 11
291.95
 21
0
  0
LINE
  8
0
 10
291.95
 20
0
 11
291.95
 21
2
  0
LINE
  8
0
 10
291.95
 20
2
 11
292.05
 21
2
  0
LINE
  8
0
 10
292.05
 20
2
 11
292.05
 21
0
  0
LINE
  8
0
 10
292.05
 20
0
 11
292.95
 21
0
  0
LINE
  8
0
 10
292.95
 20
0
 11
292.95
 21
2
  0
LINE
  8
0
 10
292.95
 20
2
 11
293.05
 21
2
  0
LINE
  8
0
 10
293.05
 20
2
 11
293.05
 21
0
  0
LINE
  8
0
 10
293.05
 20
0
 11
293.95
 21
0
  0
LINE
  8
0
 10
293.95
 20
0
 11
293.95
 21
2
  0
LINE
  8
0
 10
293.95
 20
2
 11
294.05
 21
2
  0
LINE
  8
0
 10
294.05
 20
2
 11
294.05
 21
0
  0
LINE
  8
0
 10
294.05
 20
0
 11
294.95
 21
0
  0
LINE
  8
0
 10
294.95
 20
0
 11
294.95
 21
4
  0
LINE
  8
0
 10
294.95
 20
4
 11
295.05
 21
4
  0
LINE
  8
0
 10
295.05
 20
4
 11
295.05
 21
0
  0
LINE
  8
0
 10
295.05
 20
0
 11
295.95
 21
0
  0
LINE
  8
0
 10
295.95
 20
0
 11
295.95
 21
2
  0
LINE
  8
0
 10
295.95
 20
2
 11
296.05
 21
2
  0
LINE
  8
0
 10
296.05
 20
2
 11
296.05
 21
0
  0
LINE
  8
0
 10
296.05
 20
0
 11
296.95
 21
0
  0
LINE
  8
0
 10
296.95
 20
0
 11
296.95
 21
2
  0
LINE
  8
0
 10
296.95
 20
2
 11
297.05
 21
2
  0
LINE
  8
0
 10
297.05
 20
2
 11
297.05
 21
0
  0
LINE
  8
0
 10
297.05
 20
0
 11
297.95
 21
0
  0
LINE
  8
0
 10
297.95
 20
0
 11
297.95
 21
2
  0
LINE
  8
0
 10
297.95
 20
2
 11
298.05
 21
2
  0
LINE
  8
0
 10
298.05
 20
2
 11
298.05
 21
0
  0
LINE
  8
0
 10
298.05
 20
0
 11
298.95
 21
0
  0
LINE
  8
0
 10
298.95
 20
0
 11
298.95
 21
2
  0
LINE
  8
0
 10
298.95
 20
2
 11
299.05
 21
2
  0
LINE
  8
0
 10
299.05
 20
2
 11
299.05
 21
0
  0
LINE
  8
0
 10
299.05
 20
0
 11
300
 21
0
  0
LINE
  8
0
 10
300
 20
0
 11
300
 21
10
  0
LINE
  8
0
 10
300
 20
10
 11
0
 21
10
  0
LINE
  8
0
 10
0
 20
10
 11
0
 21
0
  0
LINE
  8
0
 10
0
 20
0
 11
0.949997
 21
0
  0
LINE
  8
0
 10
0.949997
 20
0
 11
0.949997
 21
2
  0
LINE
  8
0
 10
0.949997
 20
2
 11
1.04999
 21
2
  0
ENDSEC
  0
SECTION
  2
OBJECTS
  0
DICTIONARY
  0
ENDSEC
  0
EOF
