  0
SECTION
  2
BLOCKS
  0
ENDSEC
  0
SECTION
  2
ENTITIES
  0
LINE
  8
0
 10
10
 20
300
 11
0
 21
300
  0
LINE
  8
0
 10
0
 20
300
 11
0
 21
299.05
  0
LINE
  8
0
 10
0
 20
299.05
 11
2
 21
299.05
  0
LINE
  8
0
 10
2
 20
299.05
 11
2
 21
298.95
  0
LINE
  8
0
 10
2
 20
298.95
 11
0
 21
298.95
  0
LINE
  8
0
 10
0
 20
298.95
 11
0
 21
298.05
  0
LINE
  8
0
 10
0
 20
298.05
 11
2
 21
298.05
  0
LINE
  8
0
 10
2
 20
298.05
 11
2
 21
297.95
  0
LINE
  8
0
 10
2
 20
297.95
 11
0
 21
297.95
  0
LINE
  8
0
 10
0
 20
297.95
 11
0
 21
297.05
  0
LINE
  8
0
 10
0
 20
297.05
 11
2
 21
297.05
  0
LINE
  8
0
 10
2
 20
297.05
 11
2
 21
296.95
  0
LINE
  8
0
 10
2
 20
296.95
 11
0
 21
296.95
  0
LINE
  8
0
 10
0
 20
296.95
 11
0
 21
296.05
  0
LINE
  8
0
 10
0
 20
296.05
 11
2
 21
296.05
  0
LINE
  8
0
 10
2
 20
296.05
 11
2
 21
295.95
  0
LINE
  8
0
 10
2
 20
295.95
 11
0
 21
295.95
  0
LINE
  8
0
 10
0
 20
295.95
 11
0
 21
295.05
  0
LINE
  8
0
 10
0
 20
295.05
 11
4
 21
295.05
  0
LINE
  8
0
 10
4
 20
295.05
 11
4
 21
294.95
  0
LINE
  8
0
 10
4
 20
294.95
 11
0
 21
294.95
  0
LINE
  8
0
 10
0
 20
294.95
 11
0
 21
294.05
  0
LINE
  8
0
 10
0
 20
294.05
 11
2
 21
294.05
  0
LINE
  8
0
 10
2
 20
294.05
 11
2
 21
293.95
  0
LINE
  8
0
 10
2
 20
293.95
 11
0
 21
293.95
  0
LINE
  8
0
 10
0
 20
293.95
 11
0
 21
293.05
  0
LINE
  8
0
 10
0
 20
293.05
 11
2
 21
293.05
  0
LINE
  8
0
 10
2
 20
293.05
 11
2
 21
292.95
  0
LINE
  8
0
 10
2
 20
292.95
 11
0
 21
292.95
  0
LINE
  8
0
 10
0
 20
292.95
 11
0
 21
292.05
  0
LINE
  8
0
 10
0
 20
292.05
 11
2
 21
292.05
  0
LINE
  8
0
 10
2
 20
292.05
 11
2
 21
291.95
  0
LINE
  8
0
 10
2
 20
291.95
 11
0
 21
291.95
  0
LINE
  8
0
 10
0
 20
291.95
 11
0
 21
291.05
  0
LINE
  8
0
 10
0
 20
291.05
 11
2
 21
291.05
  0
LINE
  8
0
 10
2
 20
291.05
 11
2
 21
290.95
  0
LINE
  8
0
 10
2
 20
290.95
 11
0
 21
290.95
  0
LINE
  8
0
 10
0
 20
290.95
 11
0
 21
290.05
  0
LINE
  8
0
 10
0
 20
290.05
 11
6
 21
290.05
  0
LINE
  8
0
 10
6
 20
290.05
 11
6
 21
289.95
  0
LINE
  8
0
 10
6
 20
289.95
 11
0
 21
289.95
  0
LINE
  8
0
 10
0
 20
289.95
 11
0
 21
289.05
  0
LINE
  8
0
 10
0
 20
289.05
 11
2
 21
289.05
  0
LINE
  8
0
 10
2
 20
289.05
 11
2
 21
288.95
  0
LINE
  8
0
 10
2
 20
288.95
 11
0
 21
288.95
  0
LINE
  8
0
 10
0
 20
288.95
 11
0
 21
288.05
  0
LINE
  8
0
 10
0
 20
288.05
 11
2
 21
288.05
  0
LINE
  8
0
 10
2
 20
288.05
 11
2
 21
287.95
  0
LINE
  8
0
 10
2
 20
287.95
 11
0
 21
287.95
  0
LINE
  8
0
 10
0
 20
287.95
 11
0
 21
287.05
  0
LINE
  8
0
 10
0
 20
287.05
 11
2
 21
287.05
  0
LINE
  8
0
 10
2
 20
287.05
 11
2
 21
286.95
  0
LINE
  8
0
 10
2
 20
286.95
 11
0
 21
286.95
  0
LINE
  8
0
 10
0
 20
286.95
 11
0
 21
286.05
  0
LINE
  8
0
 10
0
 20
286.05
 11
2
 21
286.05
  0
LINE
  8
0
 10
2
 20
286.05
 11
2
 21
285.95
  0
LINE
  8
0
 10
2
 20
285.95
 11
0
 21
285.95
  0
LINE
  8
0
 10
0
 20
285.95
 11
0
 21
285.05
  0
LINE
  8
0
 10
0
 20
285.05
 11
4
 21
285.05
  0
LINE
  8
0
 10
4
 20
285.05
 11
4
 21
284.95
  0
LINE
  8
0
 10
4
 20
284.95
 11
0
 21
284.95
  0
LINE
  8
0
 10
0
 20
284.95
 11
0
 21
284.05
  0
LINE
  8
0
 10
0
 20
284.05
 11
2
 21
284.05
  0
LINE
  8
0
 10
2
 20
284.05
 11
2
 21
283.95
  0
LINE
  8
0
 10
2
 20
283.95
 11
0
 21
283.95
  0
LINE
  8
0
 10
0
 20
283.95
 11
0
 21
283.05
  0
LINE
  8
0
 10
0
 20
283.05
 11
2
 21
283.05
  0
LINE
  8
0
 10
2
 20
283.05
 11
2
 21
282.95
  0
LINE
  8
0
 10
2
 20
282.95
 11
0
 21
282.95
  0
LINE
  8
0
 10
0
 20
282.95
 11
0
 21
282.05
  0
LINE
  8
0
 10
0
 20
282.05
 11
2
 21
282.05
  0
LINE
  8
0
 10
2
 20
282.05
 11
2
 21
281.95
  0
LINE
  8
0
 10
2
 20
281.95
 11
0
 21
281.95
  0
LINE
  8
0
 10
0
 20
281.95
 11
0
 21
281.05
  0
LINE
  8
0
 10
0
 20
281.05
 11
2
 21
281.05
  0
LINE
  8
0
 10
2
 20
281.05
 11
2
 21
280.95
  0
LINE
  8
0
 10
2
 20
280.95
 11
0
 21
280.95
  0
LINE
  8
0
 10
0
 20
280.95
 11
0
 21
280.05
  0
LINE
  8
0
 10
0
 20
280.05
 11
6
 21
280.05
  0
LINE
  8
0
 10
6
 20
280.05
 11
6
 21
279.95
  0
LINE
  8
0
 10
6
 20
279.95
 11
0
 21
279.95
  0
LINE
  8
0
 10
0
 20
279.95
 11
0
 21
279.05
  0
LINE
  8
0
 10
0
 20
279.05
 11
2
 21
279.05
  0
LINE
  8
0
 10
2
 20
279.05
 11
2
 21
278.95
  0
LINE
  8
0
 10
2
 20
278.95
 11
0
 21
278.95
  0
LINE
  8
0
 10
0
 20
278.95
 11
0
 21
278.05
  0
LINE
  8
0
 10
0
 20
278.05
 11
2
 21
278.05
  0
LINE
  8
0
 10
2
 20
278.05
 11
2
 21
277.95
  0
LINE
  8
0
 10
2
 20
277.95
 11
0
 21
277.95
  0
LINE
  8
0
 10
0
 20
277.95
 11
0
 21
277.05
  0
LINE
  8
0
 10
0
 20
277.05
 11
2
 21
277.05
  0
LINE
  8
0
 10
2
 20
277.05
 11
2
 21
276.95
  0
LINE
  8
0
 10
2
 20
276.95
 11
0
 21
276.95
  0
LINE
  8
0
 10
0
 20
276.95
 11
0
 21
276.05
  0
LINE
  8
0
 10
0
 20
276.05
 11
2
 21
276.05
  0
LINE
  8
0
 10
2
 20
276.05
 11
2
 21
275.95
  0
LINE
  8
0
 10
2
 20
275.95
 11
0
 21
275.95
  0
LINE
  8
0
 10
0
 20
275.95
 11
0
 21
275.05
  0
LINE
  8
0
 10
0
 20
275.05
 11
4
 21
275.05
  0
LINE
  8
0
 10
4
 20
275.05
 11
4
 21
274.95
  0
LINE
  8
0
 10
4
 20
274.95
 11
0
 21
274.95
  0
LINE
  8
0
 10
0
 20
274.95
 11
0
 21
274.05
  0
LINE
  8
0
 10
0
 20
274.05
 11
2
 21
274.05
  0
LINE
  8
0
 10
2
 20
274.05
 11
2
 21
273.95
  0
LINE
  8
0
 10
2
 20
273.95
 11
0
 21
273.95
  0
LINE
  8
0
 10
0
 20
273.95
 11
0
 21
273.05
  0
LINE
  8
0
 10
0
 20
273.05
 11
2
 21
273.05
  0
LINE
  8
0
 10
2
 20
273.05
 11
2
 21
272.95
  0
LINE
  8
0
 10
2
 20
272.95
 11
0
 21
272.95
  0
LINE
  8
0
 10
0
 20
272.95
 11
0
 21
272.05
  0
LINE
  8
0
 10
0
 20
272.05
 11
2
 21
272.05
  0
LINE
  8
0
 10
2
 20
272.05
 11
2
 21
271.95
  0
LINE
  8
0
 10
2
 20
271.95
 11
0
 21
271.95
  0
LINE
  8
0
 10
0
 20
271.95
 11
0
 21
271.05
  0
LINE
  8
0
 10
0
 20
271.05
 11
2
 21
271.05
  0
LINE
  8
0
 10
2
 20
271.05
 11
2
 21
270.95
  0
LINE
  8
0
 10
2
 20
270.95
 11
0
 21
270.95
  0
LINE
  8
0
 10
0
 20
270.95
 11
0
 21
270.05
  0
LINE
  8
0
 10
0
 20
270.05
 11
6
 21
270.05
  0
LINE
  8
0
 10
6
 20
270.05
 11
6
 21
269.95
  0
LINE
  8
0
 10
6
 20
269.95
 11
0
 21
269.95
  0
LINE
  8
0
 10
0
 20
269.95
 11
0
 21
269.05
  0
LINE
  8
0
 10
0
 20
269.05
 11
2
 21
269.05
  0
LINE
  8
0
 10
2
 20
269.05
 11
2
 21
268.95
  0
LINE
  8
0
 10
2
 20
268.95
 11
0
 21
268.95
  0
LINE
  8
0
 10
0
 20
268.95
 11
0
 21
268.05
  0
LINE
  8
0
 10
0
 20
268.05
 11
2
 21
268.05
  0
LINE
  8
0
 10
2
 20
268.05
 11
2
 21
267.95
  0
LINE
  8
0
 10
2
 20
267.95
 11
0
 21
267.95
  0
LINE
  8
0
 10
0
 20
267.95
 11
0
 21
267.05
  0
LINE
  8
0
 10
0
 20
267.05
 11
2
 21
267.05
  0
LINE
  8
0
 10
2
 20
267.05
 11
2
 21
266.95
  0
LINE
  8
0
 10
2
 20
266.95
 11
0
 21
266.95
  0
LINE
  8
0
 10
0
 20
266.95
 11
0
 21
266.05
  0
LINE
  8
0
 10
0
 20
266.05
 11
2
 21
266.05
  0
LINE
  8
0
 10
2
 20
266.05
 11
2
 21
265.95
  0
LINE
  8
0
 10
2
 20
265.95
 11
0
 21
265.95
  0
LINE
  8
0
 10
0
 20
265.95
 11
0
 21
265.05
  0
LINE
  8
0
 10
0
 20
265.05
 11
4
 21
265.05
  0
LINE
  8
0
 10
4
 20
265.05
 11
4
 21
264.95
  0
LINE
  8
0
 10
4
 20
264.95
 11
0
 21
264.95
  0
LINE
  8
0
 10
0
 20
264.95
 11
0
 21
264.05
  0
LINE
  8
0
 10
0
 20
264.05
 11
2
 21
264.05
  0
LINE
  8
0
 10
2
 20
264.05
 11
2
 21
263.95
  0
LINE
  8
0
 10
2
 20
263.95
 11
0
 21
263.95
  0
LINE
  8
0
 10
0
 20
263.95
 11
0
 21
263.05
  0
LINE
  8
0
 10
0
 20
263.05
 11
2
 21
263.05
  0
LINE
  8
0
 10
2
 20
263.05
 11
2
 21
262.95
  0
LINE
  8
0
 10
2
 20
262.95
 11
0
 21
262.95
  0
LINE
  8
0
 10
0
 20
262.95
 11
0
 21
262.05
  0
LINE
  8
0
 10
0
 20
262.05
 11
2
 21
262.05
  0
LINE
  8
0
 10
2
 20
262.05
 11
2
 21
261.95
  0
LINE
  8
0
 10
2
 20
261.95
 11
0
 21
261.95
  0
LINE
  8
0
 10
0
 20
261.95
 11
0
 21
261.05
  0
LINE
  8
0
 10
0
 20
261.05
 11
2
 21
261.05
  0
LINE
  8
0
 10
2
 20
261.05
 11
2
 21
260.95
  0
LINE
  8
0
 10
2
 20
260.95
 11
0
 21
260.95
  0
LINE
  8
0
 10
0
 20
260.95
 11
0
 21
260.05
  0
LINE
  8
0
 10
0
 20
260.05
 11
6
 21
260.05
  0
LINE
  8
0
 10
6
 20
260.05
 11
6
 21
259.95
  0
LINE
  8
0
 10
6
 20
259.95
 11
0
 21
259.95
  0
LINE
  8
0
 10
0
 20
259.95
 11
0
 21
259.05
  0
LINE
  8
0
 10
0
 20
259.05
 11
2
 21
259.05
  0
LINE
  8
0
 10
2
 20
259.05
 11
2
 21
258.95
  0
LINE
  8
0
 10
2
 20
258.95
 11
0
 21
258.95
  0
LINE
  8
0
 10
0
 20
258.95
 11
0
 21
258.05
  0
LINE
  8
0
 10
0
 20
258.05
 11
2
 21
258.05
  0
LINE
  8
0
 10
2
 20
258.05
 11
2
 21
257.95
  0
LINE
  8
0
 10
2
 20
257.95
 11
0
 21
257.95
  0
LINE
  8
0
 10
0
 20
257.95
 11
0
 21
257.05
  0
LINE
  8
0
 10
0
 20
257.05
 11
2
 21
257.05
  0
LINE
  8
0
 10
2
 20
257.05
 11
2
 21
256.95
  0
LINE
  8
0
 10
2
 20
256.95
 11
0
 21
256.95
  0
LINE
  8
0
 10
0
 20
256.95
 11
0
 21
256.05
  0
LINE
  8
0
 10
0
 20
256.05
 11
2
 21
256.05
  0
LINE
  8
0
 10
2
 20
256.05
 11
2
 21
255.95
  0
LINE
  8
0
 10
2
 20
255.95
 11
0
 21
255.95
  0
LINE
  8
0
 10
0
 20
255.95
 11
0
 21
255.05
  0
LINE
  8
0
 10
0
 20
255.05
 11
4
 21
255.05
  0
LINE
  8
0
 10
4
 20
255.05
 11
4
 21
254.95
  0
LINE
  8
0
 10
4
 20
254.95
 11
0
 21
254.95
  0
LINE
  8
0
 10
0
 20
254.95
 11
0
 21
254.05
  0
LINE
  8
0
 10
0
 20
254.05
 11
2
 21
254.05
  0
LINE
  8
0
 10
2
 20
254.05
 11
2
 21
253.95
  0
LINE
  8
0
 10
2
 20
253.95
 11
0
 21
253.95
  0
LINE
  8
0
 10
0
 20
253.95
 11
0
 21
253.05
  0
LINE
  8
0
 10
0
 20
253.05
 11
2
 21
253.05
  0
LINE
  8
0
 10
2
 20
253.05
 11
2
 21
252.95
  0
LINE
  8
0
 10
2
 20
252.95
 11
0
 21
252.95
  0
LINE
  8
0
 10
0
 20
252.95
 11
0
 21
252.05
  0
LINE
  8
0
 10
0
 20
252.05
 11
2
 21
252.05
  0
LINE
  8
0
 10
2
 20
252.05
 11
2
 21
251.95
  0
LINE
  8
0
 10
2
 20
251.95
 11
0
 21
251.95
  0
LINE
  8
0
 10
0
 20
251.95
 11
0
 21
251.05
  0
LINE
  8
0
 10
0
 20
251.05
 11
2
 21
251.05
  0
LINE
  8
0
 10
2
 20
251.05
 11
2
 21
250.95
  0
LINE
  8
0
 10
2
 20
250.95
 11
0
 21
250.95
  0
LINE
  8
0
 10
0
 20
250.95
 11
0
 21
250.05
  0
LINE
  8
0
 10
0
 20
250.05
 11
6
 21
250.05
  0
LINE
  8
0
 10
6
 20
250.05
 11
6
 21
249.95
  0
LINE
  8
0
 10
6
 20
249.95
 11
0
 21
249.95
  0
LINE
  8
0
 10
0
 20
249.95
 11
0
 21
249.05
  0
LINE
  8
0
 10
0
 20
249.05
 11
2
 21
249.05
  0
LINE
  8
0
 10
2
 20
249.05
 11
2
 21
248.95
  0
LINE
  8
0
 10
2
 20
248.95
 11
0
 21
248.95
  0
LINE
  8
0
 10
0
 20
248.95
 11
0
 21
248.05
  0
LINE
  8
0
 10
0
 20
248.05
 11
2
 21
248.05
  0
LINE
  8
0
 10
2
 20
248.05
 11
2
 21
247.95
  0
LINE
  8
0
 10
2
 20
247.95
 11
0
 21
247.95
  0
LINE
  8
0
 10
0
 20
247.95
 11
0
 21
247.05
  0
LINE
  8
0
 10
0
 20
247.05
 11
2
 21
247.05
  0
LINE
  8
0
 10
2
 20
247.05
 11
2
 21
246.95
  0
LINE
  8
0
 10
2
 20
246.95
 11
0
 21
246.95
  0
LINE
  8
0
 10
0
 20
246.95
 11
0
 21
246.05
  0
LINE
  8
0
 10
0
 20
246.05
 11
2
 21
246.05
  0
LINE
  8
0
 10
2
 20
246.05
 11
2
 21
245.95
  0
LINE
  8
0
 10
2
 20
245.95
 11
0
 21
245.95
  0
LINE
  8
0
 10
0
 20
245.95
 11
0
 21
245.05
  0
LINE
  8
0
 10
0
 20
245.05
 11
4
 21
245.05
  0
LINE
  8
0
 10
4
 20
245.05
 11
4
 21
244.95
  0
LINE
  8
0
 10
4
 20
244.95
 11
0
 21
244.95
  0
LINE
  8
0
 10
0
 20
244.95
 11
0
 21
244.05
  0
LINE
  8
0
 10
0
 20
244.05
 11
2
 21
244.05
  0
LINE
  8
0
 10
2
 20
244.05
 11
2
 21
243.95
  0
LINE
  8
0
 10
2
 20
243.95
 11
0
 21
243.95
  0
LINE
  8
0
 10
0
 20
243.95
 11
0
 21
243.05
  0
LINE
  8
0
 10
0
 20
243.05
 11
2
 21
243.05
  0
LINE
  8
0
 10
2
 20
243.05
 11
2
 21
242.95
  0
LINE
  8
0
 10
2
 20
242.95
 11
0
 21
242.95
  0
LINE
  8
0
 10
0
 20
242.95
 11
0
 21
242.05
  0
LINE
  8
0
 10
0
 20
242.05
 11
2
 21
242.05
  0
LINE
  8
0
 10
2
 20
242.05
 11
2
 21
241.95
  0
LINE
  8
0
 10
2
 20
241.95
 11
0
 21
241.95
  0
LINE
  8
0
 10
0
 20
241.95
 11
0
 21
241.05
  0
LINE
  8
0
 10
0
 20
241.05
 11
2
 21
241.05
  0
LINE
  8
0
 10
2
 20
241.05
 11
2
 21
240.95
  0
LINE
  8
0
 10
2
 20
240.95
 11
0
 21
240.95
  0
LINE
  8
0
 10
0
 20
240.95
 11
0
 21
240.05
  0
LINE
  8
0
 10
0
 20
240.05
 11
6
 21
240.05
  0
LINE
  8
0
 10
6
 20
240.05
 11
6
 21
239.95
  0
LINE
  8
0
 10
6
 20
239.95
 11
0
 21
239.95
  0
LINE
  8
0
 10
0
 20
239.95
 11
0
 21
239.05
  0
LINE
  8
0
 10
0
 20
239.05
 11
2
 21
239.05
  0
LINE
  8
0
 10
2
 20
239.05
 11
2
 21
238.95
  0
LINE
  8
0
 10
2
 20
238.95
 11
0
 21
238.95
  0
LINE
  8
0
 10
0
 20
238.95
 11
0
 21
238.05
  0
LINE
  8
0
 10
0
 20
238.05
 11
2
 21
238.05
  0
LINE
  8
0
 10
2
 20
238.05
 11
2
 21
237.95
  0
LINE
  8
0
 10
2
 20
237.95
 11
0
 21
237.95
  0
LINE
  8
0
 10
0
 20
237.95
 11
0
 21
237.05
  0
LINE
  8
0
 10
0
 20
237.05
 11
2
 21
237.05
  0
LINE
  8
0
 10
2
 20
237.05
 11
2
 21
236.95
  0
LINE
  8
0
 10
2
 20
236.95
 11
0
 21
236.95
  0
LINE
  8
0
 10
0
 20
236.95
 11
0
 21
236.05
  0
LINE
  8
0
 10
0
 20
236.05
 11
2
 21
236.05
  0
LINE
  8
0
 10
2
 20
236.05
 11
2
 21
235.95
  0
LINE
  8
0
 10
2
 20
235.95
 11
0
 21
235.95
  0
LINE
  8
0
 10
0
 20
235.95
 11
0
 21
235.05
  0
LINE
  8
0
 10
0
 20
235.05
 11
4
 21
235.05
  0
LINE
  8
0
 10
4
 20
235.05
 11
4
 21
234.95
  0
LINE
  8
0
 10
4
 20
234.95
 11
0
 21
234.95
  0
LINE
  8
0
 10
0
 20
234.95
 11
0
 21
234.05
  0
LINE
  8
0
 10
0
 20
234.05
 11
2
 21
234.05
  0
LINE
  8
0
 10
2
 20
234.05
 11
2
 21
233.95
  0
LINE
  8
0
 10
2
 20
233.95
 11
0
 21
233.95
  0
LINE
  8
0
 10
0
 20
233.95
 11
0
 21
233.05
  0
LINE
  8
0
 10
0
 20
233.05
 11
2
 21
233.05
  0
LINE
  8
0
 10
2
 20
233.05
 11
2
 21
232.95
  0
LINE
  8
0
 10
2
 20
232.95
 11
0
 21
232.95
  0
LINE
  8
0
 10
0
 20
232.95
 11
0
 21
232.05
  0
LINE
  8
0
 10
0
 20
232.05
 11
2
 21
232.05
  0
LINE
  8
0
 10
2
 20
232.05
 11
2
 21
231.95
  0
LINE
  8
0
 10
2
 20
231.95
 11
0
 21
231.95
  0
LINE
  8
0
 10
0
 20
231.95
 11
0
 21
231.05
  0
LINE
  8
0
 10
0
 20
231.05
 11
2
 21
231.05
  0
LINE
  8
0
 10
2
 20
231.05
 11
2
 21
230.95
  0
LINE
  8
0
 10
2
 20
230.95
 11
0
 21
230.95
  0
LINE
  8
0
 10
0
 20
230.95
 11
0
 21
230.05
  0
LINE
  8
0
 10
0
 20
230.05
 11
6
 21
230.05
  0
LINE
  8
0
 10
6
 20
230.05
 11
6
 21
229.95
  0
LINE
  8
0
 10
6
 20
229.95
 11
0
 21
229.95
  0
LINE
  8
0
 10
0
 20
229.95
 11
0
 21
229.05
  0
LINE
  8
0
 10
0
 20
229.05
 11
2
 21
229.05
  0
LINE
  8
0
 10
2
 20
229.05
 11
2
 21
228.95
  0
LINE
  8
0
 10
2
 20
228.95
 11
0
 21
228.95
  0
LINE
  8
0
 10
0
 20
228.95
 11
0
 21
228.05
  0
LINE
  8
0
 10
0
 20
228.05
 11
2
 21
228.05
  0
LINE
  8
0
 10
2
 20
228.05
 11
2
 21
227.95
  0
LINE
  8
0
 10
2
 20
227.95
 11
0
 21
227.95
  0
LINE
  8
0
 10
0
 20
227.95
 11
0
 21
227.05
  0
LINE
  8
0
 10
0
 20
227.05
 11
2
 21
227.05
  0
LINE
  8
0
 10
2
 20
227.05
 11
2
 21
226.95
  0
LINE
  8
0
 10
2
 20
226.95
 11
0
 21
226.95
  0
LINE
  8
0
 10
0
 20
226.95
 11
0
 21
226.05
  0
LINE
  8
0
 10
0
 20
226.05
 11
2
 21
226.05
  0
LINE
  8
0
 10
2
 20
226.05
 11
2
 21
225.95
  0
LINE
  8
0
 10
2
 20
225.95
 11
0
 21
225.95
  0
LINE
  8
0
 10
0
 20
225.95
 11
0
 21
225.05
  0
LINE
  8
0
 10
0
 20
225.05
 11
4
 21
225.05
  0
LINE
  8
0
 10
4
 20
225.05
 11
4
 21
224.95
  0
LINE
  8
0
 10
4
 20
224.95
 11
0
 21
224.95
  0
LINE
  8
0
 10
0
 20
224.95
 11
0
 21
224.05
  0
LINE
  8
0
 10
0
 20
224.05
 11
2
 21
224.05
  0
LINE
  8
0
 10
2
 20
224.05
 11
2
 21
223.95
  0
LINE
  8
0
 10
2
 20
223.95
 11
0
 21
223.95
  0
LINE
  8
0
 10
0
 20
223.95
 11
0
 21
223.05
  0
LINE
  8
0
 10
0
 20
223.05
 11
2
 21
223.05
  0
LINE
  8
0
 10
2
 20
223.05
 11
2
 21
222.95
  0
LINE
  8
0
 10
2
 20
222.95
 11
0
 21
222.95
  0
LINE
  8
0
 10
0
 20
222.95
 11
0
 21
222.05
  0
LINE
  8
0
 10
0
 20
222.05
 11
2
 21
222.05
  0
LINE
  8
0
 10
2
 20
222.05
 11
2
 21
221.95
  0
LINE
  8
0
 10
2
 20
221.95
 11
0
 21
221.95
  0
LINE
  8
0
 10
0
 20
221.95
 11
0
 21
221.05
  0
LINE
  8
0
 10
0
 20
221.05
 11
2
 21
221.05
  0
LINE
  8
0
 10
2
 20
221.05
 11
2
 21
220.95
  0
LINE
  8
0
 10
2
 20
220.95
 11
0
 21
220.95
  0
LINE
  8
0
 10
0
 20
220.95
 11
0
 21
220.05
  0
LINE
  8
0
 10
0
 20
220.05
 11
6
 21
220.05
  0
LINE
  8
0
 10
6
 20
220.05
 11
6
 21
219.95
  0
LINE
  8
0
 10
6
 20
219.95
 11
0
 21
219.95
  0
LINE
  8
0
 10
0
 20
219.95
 11
0
 21
219.05
  0
LINE
  8
0
 10
0
 20
219.05
 11
2
 21
219.05
  0
LINE
  8
0
 10
2
 20
219.05
 11
2
 21
218.95
  0
LINE
  8
0
 10
2
 20
218.95
 11
0
 21
218.95
  0
LINE
  8
0
 10
0
 20
218.95
 11
0
 21
218.05
  0
LINE
  8
0
 10
0
 20
218.05
 11
2
 21
218.05
  0
LINE
  8
0
 10
2
 20
218.05
 11
2
 21
217.95
  0
LINE
  8
0
 10
2
 20
217.95
 11
0
 21
217.95
  0
LINE
  8
0
 10
0
 20
217.95
 11
0
 21
217.05
  0
LINE
  8
0
 10
0
 20
217.05
 11
2
 21
217.05
  0
LINE
  8
0
 10
2
 20
217.05
 11
2
 21
216.95
  0
LINE
  8
0
 10
2
 20
216.95
 11
0
 21
216.95
  0
LINE
  8
0
 10
0
 20
216.95
 11
0
 21
216.05
  0
LINE
  8
0
 10
0
 20
216.05
 11
2
 21
216.05
  0
LINE
  8
0
 10
2
 20
216.05
 11
2
 21
215.95
  0
LINE
  8
0
 10
2
 20
215.95
 11
0
 21
215.95
  0
LINE
  8
0
 10
0
 20
215.95
 11
0
 21
215.05
  0
LINE
  8
0
 10
0
 20
215.05
 11
4
 21
215.05
  0
LINE
  8
0
 10
4
 20
215.05
 11
4
 21
214.95
  0
LINE
  8
0
 10
4
 20
214.95
 11
0
 21
214.95
  0
LINE
  8
0
 10
0
 20
214.95
 11
0
 21
214.05
  0
LINE
  8
0
 10
0
 20
214.05
 11
2
 21
214.05
  0
LINE
  8
0
 10
2
 20
214.05
 11
2
 21
213.95
  0
LINE
  8
0
 10
2
 20
213.95
 11
0
 21
213.95
  0
LINE
  8
0
 10
0
 20
213.95
 11
0
 21
213.05
  0
LINE
  8
0
 10
0
 20
213.05
 11
2
 21
213.05
  0
LINE
  8
0
 10
2
 20
213.05
 11
2
 21
212.95
  0
LINE
  8
0
 10
2
 20
212.95
 11
0
 21
212.95
  0
LINE
  8
0
 10
0
 20
212.95
 11
0
 21
212.05
  0
LINE
  8
0
 10
0
 20
212.05
 11
2
 21
212.05
  0
LINE
  8
0
 10
2
 20
212.05
 11
2
 21
211.95
  0
LINE
  8
0
 10
2
 20
211.95
 11
0
 21
211.95
  0
LINE
  8
0
 10
0
 20
211.95
 11
0
 21
211.05
  0
LINE
  8
0
 10
0
 20
211.05
 11
2
 21
211.05
  0
LINE
  8
0
 10
2
 20
211.05
 11
2
 21
210.95
  0
LINE
  8
0
 10
2
 20
210.95
 11
0
 21
210.95
  0
LINE
  8
0
 10
0
 20
210.95
 11
0
 21
210.05
  0
LINE
  8
0
 10
0
 20
210.05
 11
6
 21
210.05
  0
LINE
  8
0
 10
6
 20
210.05
 11
6
 21
209.95
  0
LINE
  8
0
 10
6
 20
209.95
 11
0
 21
209.95
  0
LINE
  8
0
 10
0
 20
209.95
 11
0
 21
209.05
  0
LINE
  8
0
 10
0
 20
209.05
 11
2
 21
209.05
  0
LINE
  8
0
 10
2
 20
209.05
 11
2
 21
208.95
  0
LINE
  8
0
 10
2
 20
208.95
 11
0
 21
208.95
  0
LINE
  8
0
 10
0
 20
208.95
 11
0
 21
208.05
  0
LINE
  8
0
 10
0
 20
208.05
 11
2
 21
208.05
  0
LINE
  8
0
 10
2
 20
208.05
 11
2
 21
207.95
  0
LINE
  8
0
 10
2
 20
207.95
 11
0
 21
207.95
  0
LINE
  8
0
 10
0
 20
207.95
 11
0
 21
207.05
  0
LINE
  8
0
 10
0
 20
207.05
 11
2
 21
207.05
  0
LINE
  8
0
 10
2
 20
207.05
 11
2
 21
206.95
  0
LINE
  8
0
 10
2
 20
206.95
 11
0
 21
206.95
  0
LINE
  8
0
 10
0
 20
206.95
 11
0
 21
206.05
  0
LINE
  8
0
 10
0
 20
206.05
 11
2
 21
206.05
  0
LINE
  8
0
 10
2
 20
206.05
 11
2
 21
205.95
  0
LINE
  8
0
 10
2
 20
205.95
 11
0
 21
205.95
  0
LINE
  8
0
 10
0
 20
205.95
 11
0
 21
205.05
  0
LINE
  8
0
 10
0
 20
205.05
 11
4
 21
205.05
  0
LINE
  8
0
 10
4
 20
205.05
 11
4
 21
204.95
  0
LINE
  8
0
 10
4
 20
204.95
 11
0
 21
204.95
  0
LINE
  8
0
 10
0
 20
204.95
 11
0
 21
204.05
  0
LINE
  8
0
 10
0
 20
204.05
 11
2
 21
204.05
  0
LINE
  8
0
 10
2
 20
204.05
 11
2
 21
203.95
  0
LINE
  8
0
 10
2
 20
203.95
 11
0
 21
203.95
  0
LINE
  8
0
 10
0
 20
203.95
 11
0
 21
203.05
  0
LINE
  8
0
 10
0
 20
203.05
 11
2
 21
203.05
  0
LINE
  8
0
 10
2
 20
203.05
 11
2
 21
202.95
  0
LINE
  8
0
 10
2
 20
202.95
 11
0
 21
202.95
  0
LINE
  8
0
 10
0
 20
202.95
 11
0
 21
202.05
  0
LINE
  8
0
 10
0
 20
202.05
 11
2
 21
202.05
  0
LINE
  8
0
 10
2
 20
202.05
 11
2
 21
201.95
  0
LINE
  8
0
 10
2
 20
201.95
 11
0
 21
201.95
  0
LINE
  8
0
 10
0
 20
201.95
 11
0
 21
201.05
  0
LINE
  8
0
 10
0
 20
201.05
 11
2
 21
201.05
  0
LINE
  8
0
 10
2
 20
201.05
 11
2
 21
200.95
  0
LINE
  8
0
 10
2
 20
200.95
 11
0
 21
200.95
  0
LINE
  8
0
 10
0
 20
200.95
 11
0
 21
200.05
  0
LINE
  8
0
 10
0
 20
200.05
 11
6
 21
200.05
  0
LINE
  8
0
 10
6
 20
200.05
 11
6
 21
199.95
  0
LINE
  8
0
 10
6
 20
199.95
 11
0
 21
199.95
  0
LINE
  8
0
 10
0
 20
199.95
 11
0
 21
199.05
  0
LINE
  8
0
 10
0
 20
199.05
 11
2
 21
199.05
  0
LINE
  8
0
 10
2
 20
199.05
 11
2
 21
198.95
  0
LINE
  8
0
 10
2
 20
198.95
 11
0
 21
198.95
  0
LINE
  8
0
 10
0
 20
198.95
 11
0
 21
198.05
  0
LINE
  8
0
 10
0
 20
198.05
 11
2
 21
198.05
  0
LINE
  8
0
 10
2
 20
198.05
 11
2
 21
197.95
  0
LINE
  8
0
 10
2
 20
197.95
 11
0
 21
197.95
  0
LINE
  8
0
 10
0
 20
197.95
 11
0
 21
197.05
  0
LINE
  8
0
 10
0
 20
197.05
 11
2
 21
197.05
  0
LINE
  8
0
 10
2
 20
197.05
 11
2
 21
196.95
  0
LINE
  8
0
 10
2
 20
196.95
 11
0
 21
196.95
  0
LINE
  8
0
 10
0
 20
196.95
 11
0
 21
196.05
  0
LINE
  8
0
 10
0
 20
196.05
 11
2
 21
196.05
  0
LINE
  8
0
 10
2
 20
196.05
 11
2
 21
195.95
  0
LINE
  8
0
 10
2
 20
195.95
 11
0
 21
195.95
  0
LINE
  8
0
 10
0
 20
195.95
 11
0
 21
195.05
  0
LINE
  8
0
 10
0
 20
195.05
 11
4
 21
195.05
  0
LINE
  8
0
 10
4
 20
195.05
 11
4
 21
194.95
  0
LINE
  8
0
 10
4
 20
194.95
 11
0
 21
194.95
  0
LINE
  8
0
 10
0
 20
194.95
 11
0
 21
194.05
  0
LINE
  8
0
 10
0
 20
194.05
 11
2
 21
194.05
  0
LINE
  8
0
 10
2
 20
194.05
 11
2
 21
193.95
  0
LINE
  8
0
 10
2
 20
193.95
 11
0
 21
193.95
  0
LINE
  8
0
 10
0
 20
193.95
 11
0
 21
193.05
  0
LINE
  8
0
 10
0
 20
193.05
 11
2
 21
193.05
  0
LINE
  8
0
 10
2
 20
193.05
 11
2
 21
192.95
  0
LINE
  8
0
 10
2
 20
192.95
 11
0
 21
192.95
  0
LINE
  8
0
 10
0
 20
192.95
 11
0
 21
192.05
  0
LINE
  8
0
 10
0
 20
192.05
 11
2
 21
192.05
  0
LINE
  8
0
 10
2
 20
192.05
 11
2
 21
191.95
  0
LINE
  8
0
 10
2
 20
191.95
 11
0
 21
191.95
  0
LINE
  8
0
 10
0
 20
191.95
 11
0
 21
191.05
  0
LINE
  8
0
 10
0
 20
191.05
 11
2
 21
191.05
  0
LINE
  8
0
 10
2
 20
191.05
 11
2
 21
190.95
  0
LINE
  8
0
 10
2
 20
190.95
 11
0
 21
190.95
  0
LINE
  8
0
 10
0
 20
190.95
 11
0
 21
190.05
  0
LINE
  8
0
 10
0
 20
190.05
 11
6
 21
190.05
  0
LINE
  8
0
 10
6
 20
190.05
 11
6
 21
189.95
  0
LINE
  8
0
 10
6
 20
189.95
 11
0
 21
189.95
  0
LINE
  8
0
 10
0
 20
189.95
 11
0
 21
189.05
  0
LINE
  8
0
 10
0
 20
189.05
 11
2
 21
189.05
  0
LINE
  8
0
 10
2
 20
189.05
 11
2
 21
188.95
  0
LINE
  8
0
 10
2
 20
188.95
 11
0
 21
188.95
  0
LINE
  8
0
 10
0
 20
188.95
 11
0
 21
188.05
  0
LINE
  8
0
 10
0
 20
188.05
 11
2
 21
188.05
  0
LINE
  8
0
 10
2
 20
188.05
 11
2
 21
187.95
  0
LINE
  8
0
 10
2
 20
187.95
 11
0
 21
187.95
  0
LINE
  8
0
 10
0
 20
187.95
 11
0
 21
187.05
  0
LINE
  8
0
 10
0
 20
187.05
 11
2
 21
187.05
  0
LINE
  8
0
 10
2
 20
187.05
 11
2
 21
186.95
  0
LINE
  8
0
 10
2
 20
186.95
 11
0
 21
186.95
  0
LINE
  8
0
 10
0
 20
186.95
 11
0
 21
186.05
  0
LINE
  8
0
 10
0
 20
186.05
 11
2
 21
186.05
  0
LINE
  8
0
 10
2
 20
186.05
 11
2
 21
185.95
  0
LINE
  8
0
 10
2
 20
185.95
 11
0
 21
185.95
  0
LINE
  8
0
 10
0
 20
185.95
 11
0
 21
185.05
  0
LINE
  8
0
 10
0
 20
185.05
 11
4
 21
185.05
  0
LINE
  8
0
 10
4
 20
185.05
 11
4
 21
184.95
  0
LINE
  8
0
 10
4
 20
184.95
 11
0
 21
184.95
  0
LINE
  8
0
 10
0
 20
184.95
 11
0
 21
184.05
  0
LINE
  8
0
 10
0
 20
184.05
 11
2
 21
184.05
  0
LINE
  8
0
 10
2
 20
184.05
 11
2
 21
183.95
  0
LINE
  8
0
 10
2
 20
183.95
 11
0
 21
183.95
  0
LINE
  8
0
 10
0
 20
183.95
 11
0
 21
183.05
  0
LINE
  8
0
 10
0
 20
183.05
 11
2
 21
183.05
  0
LINE
  8
0
 10
2
 20
183.05
 11
2
 21
182.95
  0
LINE
  8
0
 10
2
 20
182.95
 11
0
 21
182.95
  0
LINE
  8
0
 10
0
 20
182.95
 11
0
 21
182.05
  0
LINE
  8
0
 10
0
 20
182.05
 11
2
 21
182.05
  0
LINE
  8
0
 10
2
 20
182.05
 11
2
 21
181.95
  0
LINE
  8
0
 10
2
 20
181.95
 11
0
 21
181.95
  0
LINE
  8
0
 10
0
 20
181.95
 11
0
 21
181.05
  0
LINE
  8
0
 10
0
 20
181.05
 11
2
 21
181.05
  0
LINE
  8
0
 10
2
 20
181.05
 11
2
 21
180.95
  0
LINE
  8
0
 10
2
 20
180.95
 11
0
 21
180.95
  0
LINE
  8
0
 10
0
 20
180.95
 11
0
 21
180.05
  0
LINE
  8
0
 10
0
 20
180.05
 11
6
 21
180.05
  0
LINE
  8
0
 10
6
 20
180.05
 11
6
 21
179.95
  0
LINE
  8
0
 10
6
 20
179.95
 11
0
 21
179.95
  0
LINE
  8
0
 10
0
 20
179.95
 11
0
 21
179.05
  0
LINE
  8
0
 10
0
 20
179.05
 11
2
 21
179.05
  0
LINE
  8
0
 10
2
 20
179.05
 11
2
 21
178.95
  0
LINE
  8
0
 10
2
 20
178.95
 11
0
 21
178.95
  0
LINE
  8
0
 10
0
 20
178.95
 11
0
 21
178.05
  0
LINE
  8
0
 10
0
 20
178.05
 11
2
 21
178.05
  0
LINE
  8
0
 10
2
 20
178.05
 11
2
 21
177.95
  0
LINE
  8
0
 10
2
 20
177.95
 11
0
 21
177.95
  0
LINE
  8
0
 10
0
 20
177.95
 11
0
 21
177.05
  0
LINE
  8
0
 10
0
 20
177.05
 11
2
 21
177.05
  0
LINE
  8
0
 10
2
 20
177.05
 11
2
 21
176.95
  0
LINE
  8
0
 10
2
 20
176.95
 11
0
 21
176.95
  0
LINE
  8
0
 10
0
 20
176.95
 11
0
 21
176.05
  0
LINE
  8
0
 10
0
 20
176.05
 11
2
 21
176.05
  0
LINE
  8
0
 10
2
 20
176.05
 11
2
 21
175.95
  0
LINE
  8
0
 10
2
 20
175.95
 11
0
 21
175.95
  0
LINE
  8
0
 10
0
 20
175.95
 11
0
 21
175.05
  0
LINE
  8
0
 10
0
 20
175.05
 11
4
 21
175.05
  0
LINE
  8
0
 10
4
 20
175.05
 11
4
 21
174.95
  0
LINE
  8
0
 10
4
 20
174.95
 11
0
 21
174.95
  0
LINE
  8
0
 10
0
 20
174.95
 11
0
 21
174.05
  0
LINE
  8
0
 10
0
 20
174.05
 11
2
 21
174.05
  0
LINE
  8
0
 10
2
 20
174.05
 11
2
 21
173.95
  0
LINE
  8
0
 10
2
 20
173.95
 11
0
 21
173.95
  0
LINE
  8
0
 10
0
 20
173.95
 11
0
 21
173.05
  0
LINE
  8
0
 10
0
 20
173.05
 11
2
 21
173.05
  0
LINE
  8
0
 10
2
 20
173.05
 11
2
 21
172.95
  0
LINE
  8
0
 10
2
 20
172.95
 11
0
 21
172.95
  0
LINE
  8
0
 10
0
 20
172.95
 11
0
 21
172.05
  0
LINE
  8
0
 10
0
 20
172.05
 11
2
 21
172.05
  0
LINE
  8
0
 10
2
 20
172.05
 11
2
 21
171.95
  0
LINE
  8
0
 10
2
 20
171.95
 11
0
 21
171.95
  0
LINE
  8
0
 10
0
 20
171.95
 11
0
 21
171.05
  0
LINE
  8
0
 10
0
 20
171.05
 11
2
 21
171.05
  0
LINE
  8
0
 10
2
 20
171.05
 11
2
 21
170.95
  0
LINE
  8
0
 10
2
 20
170.95
 11
0
 21
170.95
  0
LINE
  8
0
 10
0
 20
170.95
 11
0
 21
170.05
  0
LINE
  8
0
 10
0
 20
170.05
 11
6
 21
170.05
  0
LINE
  8
0
 10
6
 20
170.05
 11
6
 21
169.95
  0
LINE
  8
0
 10
6
 20
169.95
 11
0
 21
169.95
  0
LINE
  8
0
 10
0
 20
169.95
 11
0
 21
169.05
  0
LINE
  8
0
 10
0
 20
169.05
 11
2
 21
169.05
  0
LINE
  8
0
 10
2
 20
169.05
 11
2
 21
168.95
  0
LINE
  8
0
 10
2
 20
168.95
 11
0
 21
168.95
  0
LINE
  8
0
 10
0
 20
168.95
 11
0
 21
168.05
  0
LINE
  8
0
 10
0
 20
168.05
 11
2
 21
168.05
  0
LINE
  8
0
 10
2
 20
168.05
 11
2
 21
167.95
  0
LINE
  8
0
 10
2
 20
167.95
 11
0
 21
167.95
  0
LINE
  8
0
 10
0
 20
167.95
 11
0
 21
167.05
  0
LINE
  8
0
 10
0
 20
167.05
 11
2
 21
167.05
  0
LINE
  8
0
 10
2
 20
167.05
 11
2
 21
166.95
  0
LINE
  8
0
 10
2
 20
166.95
 11
0
 21
166.95
  0
LINE
  8
0
 10
0
 20
166.95
 11
0
 21
166.05
  0
LINE
  8
0
 10
0
 20
166.05
 11
2
 21
166.05
  0
LINE
  8
0
 10
2
 20
166.05
 11
2
 21
165.95
  0
LINE
  8
0
 10
2
 20
165.95
 11
0
 21
165.95
  0
LINE
  8
0
 10
0
 20
165.95
 11
0
 21
165.05
  0
LINE
  8
0
 10
0
 20
165.05
 11
4
 21
165.05
  0
LINE
  8
0
 10
4
 20
165.05
 11
4
 21
164.95
  0
LINE
  8
0
 10
4
 20
164.95
 11
0
 21
164.95
  0
LINE
  8
0
 10
0
 20
164.95
 11
0
 21
164.05
  0
LINE
  8
0
 10
0
 20
164.05
 11
2
 21
164.05
  0
LINE
  8
0
 10
2
 20
164.05
 11
2
 21
163.95
  0
LINE
  8
0
 10
2
 20
163.95
 11
0
 21
163.95
  0
LINE
  8
0
 10
0
 20
163.95
 11
0
 21
163.05
  0
LINE
  8
0
 10
0
 20
163.05
 11
2
 21
163.05
  0
LINE
  8
0
 10
2
 20
163.05
 11
2
 21
162.95
  0
LINE
  8
0
 10
2
 20
162.95
 11
0
 21
162.95
  0
LINE
  8
0
 10
0
 20
162.95
 11
0
 21
162.05
  0
LINE
  8
0
 10
0
 20
162.05
 11
2
 21
162.05
  0
LINE
  8
0
 10
2
 20
162.05
 11
2
 21
161.95
  0
LINE
  8
0
 10
2
 20
161.95
 11
0
 21
161.95
  0
LINE
  8
0
 10
0
 20
161.95
 11
0
 21
161.05
  0
LINE
  8
0
 10
0
 20
161.05
 11
2
 21
161.05
  0
LINE
  8
0
 10
2
 20
161.05
 11
2
 21
160.95
  0
LINE
  8
0
 10
2
 20
160.95
 11
0
 21
160.95
  0
LINE
  8
0
 10
0
 20
160.95
 11
0
 21
160.05
  0
LINE
  8
0
 10
0
 20
160.05
 11
6
 21
160.05
  0
LINE
  8
0
 10
6
 20
160.05
 11
6
 21
159.95
  0
LINE
  8
0
 10
6
 20
159.95
 11
0
 21
159.95
  0
LINE
  8
0
 10
0
 20
159.95
 11
0
 21
159.05
  0
LINE
  8
0
 10
0
 20
159.05
 11
2
 21
159.05
  0
LINE
  8
0
 10
2
 20
159.05
 11
2
 21
158.95
  0
LINE
  8
0
 10
2
 20
158.95
 11
0
 21
158.95
  0
LINE
  8
0
 10
0
 20
158.95
 11
0
 21
158.05
  0
LINE
  8
0
 10
0
 20
158.05
 11
2
 21
158.05
  0
LINE
  8
0
 10
2
 20
158.05
 11
2
 21
157.95
  0
LINE
  8
0
 10
2
 20
157.95
 11
0
 21
157.95
  0
LINE
  8
0
 10
0
 20
157.95
 11
0
 21
157.05
  0
LINE
  8
0
 10
0
 20
157.05
 11
2
 21
157.05
  0
LINE
  8
0
 10
2
 20
157.05
 11
2
 21
156.95
  0
LINE
  8
0
 10
2
 20
156.95
 11
0
 21
156.95
  0
LINE
  8
0
 10
0
 20
156.95
 11
0
 21
156.05
  0
LINE
  8
0
 10
0
 20
156.05
 11
2
 21
156.05
  0
LINE
  8
0
 10
2
 20
156.05
 11
2
 21
155.95
  0
LINE
  8
0
 10
2
 20
155.95
 11
0
 21
155.95
  0
LINE
  8
0
 10
0
 20
155.95
 11
0
 21
155.05
  0
LINE
  8
0
 10
0
 20
155.05
 11
4
 21
155.05
  0
LINE
  8
0
 10
4
 20
155.05
 11
4
 21
154.95
  0
LINE
  8
0
 10
4
 20
154.95
 11
0
 21
154.95
  0
LINE
  8
0
 10
0
 20
154.95
 11
0
 21
154.05
  0
LINE
  8
0
 10
0
 20
154.05
 11
2
 21
154.05
  0
LINE
  8
0
 10
2
 20
154.05
 11
2
 21
153.95
  0
LINE
  8
0
 10
2
 20
153.95
 11
0
 21
153.95
  0
LINE
  8
0
 10
0
 20
153.95
 11
0
 21
153.05
  0
LINE
  8
0
 10
0
 20
153.05
 11
2
 21
153.05
  0
LINE
  8
0
 10
2
 20
153.05
 11
2
 21
152.95
  0
LINE
  8
0
 10
2
 20
152.95
 11
0
 21
152.95
  0
LINE
  8
0
 10
0
 20
152.95
 11
0
 21
152.05
  0
LINE
  8
0
 10
0
 20
152.05
 11
2
 21
152.05
  0
LINE
  8
0
 10
2
 20
152.05
 11
2
 21
151.95
  0
LINE
  8
0
 10
2
 20
151.95
 11
0
 21
151.95
  0
LINE
  8
0
 10
0
 20
151.95
 11
0
 21
151.05
  0
LINE
  8
0
 10
0
 20
151.05
 11
2
 21
151.05
  0
LINE
  8
0
 10
2
 20
151.05
 11
2
 21
150.95
  0
LINE
  8
0
 10
2
 20
150.95
 11
0
 21
150.95
  0
LINE
  8
0
 10
0
 20
150.95
 11
0
 21
150.05
  0
LINE
  8
0
 10
0
 20
150.05
 11
6
 21
150.05
  0
LINE
  8
0
 10
6
 20
150.05
 11
6
 21
149.95
  0
LINE
  8
0
 10
6
 20
149.95
 11
0
 21
149.95
  0
LINE
  8
0
 10
0
 20
149.95
 11
0
 21
149.05
  0
LINE
  8
0
 10
0
 20
149.05
 11
2
 21
149.05
  0
LINE
  8
0
 10
2
 20
149.05
 11
2
 21
148.95
  0
LINE
  8
0
 10
2
 20
148.95
 11
0
 21
148.95
  0
LINE
  8
0
 10
0
 20
148.95
 11
0
 21
148.05
  0
LINE
  8
0
 10
0
 20
148.05
 11
2
 21
148.05
  0
LINE
  8
0
 10
2
 20
148.05
 11
2
 21
147.95
  0
LINE
  8
0
 10
2
 20
147.95
 11
0
 21
147.95
  0
LINE
  8
0
 10
0
 20
147.95
 11
0
 21
147.05
  0
LINE
  8
0
 10
0
 20
147.05
 11
2
 21
147.05
  0
LINE
  8
0
 10
2
 20
147.05
 11
2
 21
146.95
  0
LINE
  8
0
 10
2
 20
146.95
 11
0
 21
146.95
  0
LINE
  8
0
 10
0
 20
146.95
 11
0
 21
146.05
  0
LINE
  8
0
 10
0
 20
146.05
 11
2
 21
146.05
  0
LINE
  8
0
 10
2
 20
146.05
 11
2
 21
145.95
  0
LINE
  8
0
 10
2
 20
145.95
 11
0
 21
145.95
  0
LINE
  8
0
 10
0
 20
145.95
 11
0
 21
145.05
  0
LINE
  8
0
 10
0
 20
145.05
 11
4
 21
145.05
  0
LINE
  8
0
 10
4
 20
145.05
 11
4
 21
144.95
  0
LINE
  8
0
 10
4
 20
144.95
 11
0
 21
144.95
  0
LINE
  8
0
 10
0
 20
144.95
 11
0
 21
144.05
  0
LINE
  8
0
 10
0
 20
144.05
 11
2
 21
144.05
  0
LINE
  8
0
 10
2
 20
144.05
 11
2
 21
143.95
  0
LINE
  8
0
 10
2
 20
143.95
 11
0
 21
143.95
  0
LINE
  8
0
 10
0
 20
143.95
 11
0
 21
143.05
  0
LINE
  8
0
 10
0
 20
143.05
 11
2
 21
143.05
  0
LINE
  8
0
 10
2
 20
143.05
 11
2
 21
142.95
  0
LINE
  8
0
 10
2
 20
142.95
 11
0
 21
142.95
  0
LINE
  8
0
 10
0
 20
142.95
 11
0
 21
142.05
  0
LINE
  8
0
 10
0
 20
142.05
 11
2
 21
142.05
  0
LINE
  8
0
 10
2
 20
142.05
 11
2
 21
141.95
  0
LINE
  8
0
 10
2
 20
141.95
 11
0
 21
141.95
  0
LINE
  8
0
 10
0
 20
141.95
 11
0
 21
141.05
  0
LINE
  8
0
 10
0
 20
141.05
 11
2
 21
141.05
  0
LINE
  8
0
 10
2
 20
141.05
 11
2
 21
140.95
  0
LINE
  8
0
 10
2
 20
140.95
 11
0
 21
140.95
  0
LINE
  8
0
 10
0
 20
140.95
 11
0
 21
140.05
  0
LINE
  8
0
 10
0
 20
140.05
 11
6
 21
140.05
  0
LINE
  8
0
 10
6
 20
140.05
 11
6
 21
139.95
  0
LINE
  8
0
 10
6
 20
139.95
 11
0
 21
139.95
  0
LINE
  8
0
 10
0
 20
139.95
 11
0
 21
139.05
  0
LINE
  8
0
 10
0
 20
139.05
 11
2
 21
139.05
  0
LINE
  8
0
 10
2
 20
139.05
 11
2
 21
138.95
  0
LINE
  8
0
 10
2
 20
138.95
 11
0
 21
138.95
  0
LINE
  8
0
 10
0
 20
138.95
 11
0
 21
138.05
  0
LINE
  8
0
 10
0
 20
138.05
 11
2
 21
138.05
  0
LINE
  8
0
 10
2
 20
138.05
 11
2
 21
137.95
  0
LINE
  8
0
 10
2
 20
137.95
 11
0
 21
137.95
  0
LINE
  8
0
 10
0
 20
137.95
 11
0
 21
137.05
  0
LINE
  8
0
 10
0
 20
137.05
 11
2
 21
137.05
  0
LINE
  8
0
 10
2
 20
137.05
 11
2
 21
136.95
  0
LINE
  8
0
 10
2
 20
136.95
 11
0
 21
136.95
  0
LINE
  8
0
 10
0
 20
136.95
 11
0
 21
136.05
  0
LINE
  8
0
 10
0
 20
136.05
 11
2
 21
136.05
  0
LINE
  8
0
 10
2
 20
136.05
 11
2
 21
135.95
  0
LINE
  8
0
 10
2
 20
135.95
 11
0
 21
135.95
  0
LINE
  8
0
 10
0
 20
135.95
 11
0
 21
135.05
  0
LINE
  8
0
 10
0
 20
135.05
 11
4
 21
135.05
  0
LINE
  8
0
 10
4
 20
135.05
 11
4
 21
134.95
  0
LINE
  8
0
 10
4
 20
134.95
 11
0
 21
134.95
  0
LINE
  8
0
 10
0
 20
134.95
 11
0
 21
134.05
  0
LINE
  8
0
 10
0
 20
134.05
 11
2
 21
134.05
  0
LINE
  8
0
 10
2
 20
134.05
 11
2
 21
133.95
  0
LINE
  8
0
 10
2
 20
133.95
 11
0
 21
133.95
  0
LINE
  8
0
 10
0
 20
133.95
 11
0
 21
133.05
  0
LINE
  8
0
 10
0
 20
133.05
 11
2
 21
133.05
  0
LINE
  8
0
 10
2
 20
133.05
 11
2
 21
132.95
  0
LINE
  8
0
 10
2
 20
132.95
 11
0
 21
132.95
  0
LINE
  8
0
 10
0
 20
132.95
 11
0
 21
132.05
  0
LINE
  8
0
 10
0
 20
132.05
 11
2
 21
132.05
  0
LINE
  8
0
 10
2
 20
132.05
 11
2
 21
131.95
  0
LINE
  8
0
 10
2
 20
131.95
 11
0
 21
131.95
  0
LINE
  8
0
 10
0
 20
131.95
 11
0
 21
131.05
  0
LINE
  8
0
 10
0
 20
131.05
 11
2
 21
131.05
  0
LINE
  8
0
 10
2
 20
131.05
 11
2
 21
130.95
  0
LINE
  8
0
 10
2
 20
130.95
 11
0
 21
130.95
  0
LINE
  8
0
 10
0
 20
130.95
 11
0
 21
130.05
  0
LINE
  8
0
 10
0
 20
130.05
 11
6
 21
130.05
  0
LINE
  8
0
 10
6
 20
130.05
 11
6
 21
129.95
  0
LINE
  8
0
 10
6
 20
129.95
 11
0
 21
129.95
  0
LINE
  8
0
 10
0
 20
129.95
 11
0
 21
129.05
  0
LINE
  8
0
 10
0
 20
129.05
 11
2
 21
129.05
  0
LINE
  8
0
 10
2
 20
129.05
 11
2
 21
128.95
  0
LINE
  8
0
 10
2
 20
128.95
 11
0
 21
128.95
  0
LINE
  8
0
 10
0
 20
128.95
 11
0
 21
128.05
  0
LINE
  8
0
 10
0
 20
128.05
 11
2
 21
128.05
  0
LINE
  8
0
 10
2
 20
128.05
 11
2
 21
127.95
  0
LINE
  8
0
 10
2
 20
127.95
 11
0
 21
127.95
  0
LINE
  8
0
 10
0
 20
127.95
 11
0
 21
127.05
  0
LINE
  8
0
 10
0
 20
127.05
 11
2
 21
127.05
  0
LINE
  8
0
 10
2
 20
127.05
 11
2
 21
126.95
  0
LINE
  8
0
 10
2
 20
126.95
 11
0
 21
126.95
  0
LINE
  8
0
 10
0
 20
126.95
 11
0
 21
126.05
  0
LINE
  8
0
 10
0
 20
126.05
 11
2
 21
126.05
  0
LINE
  8
0
 10
2
 20
126.05
 11
2
 21
125.95
  0
LINE
  8
0
 10
2
 20
125.95
 11
0
 21
125.95
  0
LINE
  8
0
 10
0
 20
125.95
 11
0
 21
125.05
  0
LINE
  8
0
 10
0
 20
125.05
 11
4
 21
125.05
  0
LINE
  8
0
 10
4
 20
125.05
 11
4
 21
124.95
  0
LINE
  8
0
 10
4
 20
124.95
 11
0
 21
124.95
  0
LINE
  8
0
 10
0
 20
124.95
 11
0
 21
124.05
  0
LINE
  8
0
 10
0
 20
124.05
 11
2
 21
124.05
  0
LINE
  8
0
 10
2
 20
124.05
 11
2
 21
123.95
  0
LINE
  8
0
 10
2
 20
123.95
 11
0
 21
123.95
  0
LINE
  8
0
 10
0
 20
123.95
 11
0
 21
123.05
  0
LINE
  8
0
 10
0
 20
123.05
 11
2
 21
123.05
  0
LINE
  8
0
 10
2
 20
123.05
 11
2
 21
122.95
  0
LINE
  8
0
 10
2
 20
122.95
 11
0
 21
122.95
  0
LINE
  8
0
 10
0
 20
122.95
 11
0
 21
122.05
  0
LINE
  8
0
 10
0
 20
122.05
 11
2
 21
122.05
  0
LINE
  8
0
 10
2
 20
122.05
 11
2
 21
121.95
  0
LINE
  8
0
 10
2
 20
121.95
 11
0
 21
121.95
  0
LINE
  8
0
 10
0
 20
121.95
 11
0
 21
121.05
  0
LINE
  8
0
 10
0
 20
121.05
 11
2
 21
121.05
  0
LINE
  8
0
 10
2
 20
121.05
 11
2
 21
120.95
  0
LINE
  8
0
 10
2
 20
120.95
 11
0
 21
120.95
  0
LINE
  8
0
 10
0
 20
120.95
 11
0
 21
120.05
  0
LINE
  8
0
 10
0
 20
120.05
 11
6
 21
120.05
  0
LINE
  8
0
 10
6
 20
120.05
 11
6
 21
119.95
  0
LINE
  8
0
 10
6
 20
119.95
 11
0
 21
119.95
  0
LINE
  8
0
 10
0
 20
119.95
 11
0
 21
119.05
  0
LINE
  8
0
 10
0
 20
119.05
 11
2
 21
119.05
  0
LINE
  8
0
 10
2
 20
119.05
 11
2
 21
118.95
  0
LINE
  8
0
 10
2
 20
118.95
 11
0
 21
118.95
  0
LINE
  8
0
 10
0
 20
118.95
 11
0
 21
118.05
  0
LINE
  8
0
 10
0
 20
118.05
 11
2
 21
118.05
  0
LINE
  8
0
 10
2
 20
118.05
 11
2
 21
117.95
  0
LINE
  8
0
 10
2
 20
117.95
 11
0
 21
117.95
  0
LINE
  8
0
 10
0
 20
117.95
 11
0
 21
117.05
  0
LINE
  8
0
 10
0
 20
117.05
 11
2
 21
117.05
  0
LINE
  8
0
 10
2
 20
117.05
 11
2
 21
116.95
  0
LINE
  8
0
 10
2
 20
116.95
 11
0
 21
116.95
  0
LINE
  8
0
 10
0
 20
116.95
 11
0
 21
116.05
  0
LINE
  8
0
 10
0
 20
116.05
 11
2
 21
116.05
  0
LINE
  8
0
 10
2
 20
116.05
 11
2
 21
115.95
  0
LINE
  8
0
 10
2
 20
115.95
 11
0
 21
115.95
  0
LINE
  8
0
 10
0
 20
115.95
 11
0
 21
115.05
  0
LINE
  8
0
 10
0
 20
115.05
 11
4
 21
115.05
  0
LINE
  8
0
 10
4
 20
115.05
 11
4
 21
114.95
  0
LINE
  8
0
 10
4
 20
114.95
 11
0
 21
114.95
  0
LINE
  8
0
 10
0
 20
114.95
 11
0
 21
114.05
  0
LINE
  8
0
 10
0
 20
114.05
 11
2
 21
114.05
  0
LINE
  8
0
 10
2
 20
114.05
 11
2
 21
113.95
  0
LINE
  8
0
 10
2
 20
113.95
 11
0
 21
113.95
  0
LINE
  8
0
 10
0
 20
113.95
 11
0
 21
113.05
  0
LINE
  8
0
 10
0
 20
113.05
 11
2
 21
113.05
  0
LINE
  8
0
 10
2
 20
113.05
 11
2
 21
112.95
  0
LINE
  8
0
 10
2
 20
112.95
 11
0
 21
112.95
  0
LINE
  8
0
 10
0
 20
112.95
 11
0
 21
112.05
  0
LINE
  8
0
 10
0
 20
112.05
 11
2
 21
112.05
  0
LINE
  8
0
 10
2
 20
112.05
 11
2
 21
111.95
  0
LINE
  8
0
 10
2
 20
111.95
 11
0
 21
111.95
  0
LINE
  8
0
 10
0
 20
111.95
 11
0
 21
111.05
  0
LINE
  8
0
 10
0
 20
111.05
 11
2
 21
111.05
  0
LINE
  8
0
 10
2
 20
111.05
 11
2
 21
110.95
  0
LINE
  8
0
 10
2
 20
110.95
 11
0
 21
110.95
  0
LINE
  8
0
 10
0
 20
110.95
 11
0
 21
110.05
  0
LINE
  8
0
 10
0
 20
110.05
 11
6
 21
110.05
  0
LINE
  8
0
 10
6
 20
110.05
 11
6
 21
109.95
  0
LINE
  8
0
 10
6
 20
109.95
 11
0
 21
109.95
  0
LINE
  8
0
 10
0
 20
109.95
 11
0
 21
109.05
  0
LINE
  8
0
 10
0
 20
109.05
 11
2
 21
109.05
  0
LINE
  8
0
 10
2
 20
109.05
 11
2
 21
108.95
  0
LINE
  8
0
 10
2
 20
108.95
 11
0
 21
108.95
  0
LINE
  8
0
 10
0
 20
108.95
 11
0
 21
108.05
  0
LINE
  8
0
 10
0
 20
108.05
 11
2
 21
108.05
  0
LINE
  8
0
 10
2
 20
108.05
 11
2
 21
107.95
  0
LINE
  8
0
 10
2
 20
107.95
 11
0
 21
107.95
  0
LINE
  8
0
 10
0
 20
107.95
 11
0
 21
107.05
  0
LINE
  8
0
 10
0
 20
107.05
 11
2
 21
107.05
  0
LINE
  8
0
 10
2
 20
107.05
 11
2
 21
106.95
  0
LINE
  8
0
 10
2
 20
106.95
 11
0
 21
106.95
  0
LINE
  8
0
 10
0
 20
106.95
 11
0
 21
106.05
  0
LINE
  8
0
 10
0
 20
106.05
 11
2
 21
106.05
  0
LINE
  8
0
 10
2
 20
106.05
 11
2
 21
105.95
  0
LINE
  8
0
 10
2
 20
105.95
 11
0
 21
105.95
  0
LINE
  8
0
 10
0
 20
105.95
 11
0
 21
105.05
  0
LINE
  8
0
 10
0
 20
105.05
 11
4
 21
105.05
  0
LINE
  8
0
 10
4
 20
105.05
 11
4
 21
104.95
  0
LINE
  8
0
 10
4
 20
104.95
 11
0
 21
104.95
  0
LINE
  8
0
 10
0
 20
104.95
 11
0
 21
104.05
  0
LINE
  8
0
 10
0
 20
104.05
 11
2
 21
104.05
  0
LINE
  8
0
 10
2
 20
104.05
 11
2
 21
103.95
  0
LINE
  8
0
 10
2
 20
103.95
 11
0
 21
103.95
  0
LINE
  8
0
 10
0
 20
103.95
 11
0
 21
103.05
  0
LINE
  8
0
 10
0
 20
103.05
 11
2
 21
103.05
  0
LINE
  8
0
 10
2
 20
103.05
 11
2
 21
102.95
  0
LINE
  8
0
 10
2
 20
102.95
 11
0
 21
102.95
  0
LINE
  8
0
 10
0
 20
102.95
 11
0
 21
102.05
  0
LINE
  8
0
 10
0
 20
102.05
 11
2
 21
102.05
  0
LINE
  8
0
 10
2
 20
102.05
 11
2
 21
101.95
  0
LINE
  8
0
 10
2
 20
101.95
 11
0
 21
101.95
  0
LINE
  8
0
 10
0
 20
101.95
 11
0
 21
101.05
  0
LINE
  8
0
 10
0
 20
101.05
 11
2
 21
101.05
  0
LINE
  8
0
 10
2
 20
101.05
 11
2
 21
100.95
  0
LINE
  8
0
 10
2
 20
100.95
 11
0
 21
100.95
  0
LINE
  8
0
 10
0
 20
100.95
 11
0
 21
100.05
  0
LINE
  8
0
 10
0
 20
100.05
 11
6
 21
100.05
  0
LINE
  8
0
 10
6
 20
100.05
 11
6
 21
99.95
  0
LINE
  8
0
 10
6
 20
99.95
 11
0
 21
99.95
  0
LINE
  8
0
 10
0
 20
99.95
 11
0
 21
99.05
  0
LINE
  8
0
 10
0
 20
99.05
 11
2
 21
99.05
  0
LINE
  8
0
 10
2
 20
99.05
 11
2
 21
98.95
  0
LINE
  8
0
 10
2
 20
98.95
 11
0
 21
98.95
  0
LINE
  8
0
 10
0
 20
98.95
 11
0
 21
98.05
  0
LINE
  8
0
 10
0
 20
98.05
 11
2
 21
98.05
  0
LINE
  8
0
 10
2
 20
98.05
 11
2
 21
97.95
  0
LINE
  8
0
 10
2
 20
97.95
 11
0
 21
97.95
  0
LINE
  8
0
 10
0
 20
97.95
 11
0
 21
97.05
  0
LINE
  8
0
 10
0
 20
97.05
 11
2
 21
97.05
  0
LINE
  8
0
 10
2
 20
97.05
 11
2
 21
96.95
  0
LINE
  8
0
 10
2
 20
96.95
 11
0
 21
96.95
  0
LINE
  8
0
 10
0
 20
96.95
 11
0
 21
96.05
  0
LINE
  8
0
 10
0
 20
96.05
 11
2
 21
96.05
  0
LINE
  8
0
 10
2
 20
96.05
 11
2
 21
95.95
  0
LINE
  8
0
 10
2
 20
95.95
 11
0
 21
95.95
  0
LINE
  8
0
 10
0
 20
95.95
 11
0
 21
95.05
  0
LINE
  8
0
 10
0
 20
95.05
 11
4
 21
95.05
  0
LINE
  8
0
 10
4
 20
95.05
 11
4
 21
94.95
  0
LINE
  8
0
 10
4
 20
94.95
 11
0
 21
94.95
  0
LINE
  8
0
 10
0
 20
94.95
 11
0
 21
94.05
  0
LINE
  8
0
 10
0
 20
94.05
 11
2
 21
94.05
  0
LINE
  8
0
 10
2
 20
94.05
 11
2
 21
93.95
  0
LINE
  8
0
 10
2
 20
93.95
 11
0
 21
93.95
  0
LINE
  8
0
 10
0
 20
93.95
 11
0
 21
93.05
  0
LINE
  8
0
 10
0
 20
93.05
 11
2
 21
93.05
  0
LINE
  8
0
 10
2
 20
93.05
 11
2
 21
92.95
  0
LINE
  8
0
 10
2
 20
92.95
 11
0
 21
92.95
  0
LINE
  8
0
 10
0
 20
92.95
 11
0
 21
92.05
  0
LINE
  8
0
 10
0
 20
92.05
 11
2
 21
92.05
  0
LINE
  8
0
 10
2
 20
92.05
 11
2
 21
91.95
  0
LINE
  8
0
 10
2
 20
91.95
 11
0
 21
91.95
  0
LINE
  8
0
 10
0
 20
91.95
 11
0
 21
91.05
  0
LINE
  8
0
 10
0
 20
91.05
 11
2
 21
91.05
  0
LINE
  8
0
 10
2
 20
91.05
 11
2
 21
90.95
  0
LINE
  8
0
 10
2
 20
90.95
 11
0
 21
90.95
  0
LINE
  8
0
 10
0
 20
90.95
 11
0
 21
90.05
  0
LINE
  8
0
 10
0
 20
90.05
 11
6
 21
90.05
  0
LINE
  8
0
 10
6
 20
90.05
 11
6
 21
89.95
  0
LINE
  8
0
 10
6
 20
89.95
 11
0
 21
89.95
  0
LINE
  8
0
 10
0
 20
89.95
 11
0
 21
89.05
  0
LINE
  8
0
 10
0
 20
89.05
 11
2
 21
89.05
  0
LINE
  8
0
 10
2
 20
89.05
 11
2
 21
88.95
  0
LINE
  8
0
 10
2
 20
88.95
 11
0
 21
88.95
  0
LINE
  8
0
 10
0
 20
88.95
 11
0
 21
88.05
  0
LINE
  8
0
 10
0
 20
88.05
 11
2
 21
88.05
  0
LINE
  8
0
 10
2
 20
88.05
 11
2
 21
87.95
  0
LINE
  8
0
 10
2
 20
87.95
 11
0
 21
87.95
  0
LINE
  8
0
 10
0
 20
87.95
 11
0
 21
87.05
  0
LINE
  8
0
 10
0
 20
87.05
 11
2
 21
87.05
  0
LINE
  8
0
 10
2
 20
87.05
 11
2
 21
86.95
  0
LINE
  8
0
 10
2
 20
86.95
 11
0
 21
86.95
  0
LINE
  8
0
 10
0
 20
86.95
 11
0
 21
86.05
  0
LINE
  8
0
 10
0
 20
86.05
 11
2
 21
86.05
  0
LINE
  8
0
 10
2
 20
86.05
 11
2
 21
85.95
  0
LINE
  8
0
 10
2
 20
85.95
 11
0
 21
85.95
  0
LINE
  8
0
 10
0
 20
85.95
 11
0
 21
85.05
  0
LINE
  8
0
 10
0
 20
85.05
 11
4
 21
85.05
  0
LINE
  8
0
 10
4
 20
85.05
 11
4
 21
84.95
  0
LINE
  8
0
 10
4
 20
84.95
 11
0
 21
84.95
  0
LINE
  8
0
 10
0
 20
84.95
 11
0
 21
84.05
  0
LINE
  8
0
 10
0
 20
84.05
 11
2
 21
84.05
  0
LINE
  8
0
 10
2
 20
84.05
 11
2
 21
83.95
  0
LINE
  8
0
 10
2
 20
83.95
 11
0
 21
83.95
  0
LINE
  8
0
 10
0
 20
83.95
 11
0
 21
83.05
  0
LINE
  8
0
 10
0
 20
83.05
 11
2
 21
83.05
  0
LINE
  8
0
 10
2
 20
83.05
 11
2
 21
82.95
  0
LINE
  8
0
 10
2
 20
82.95
 11
0
 21
82.95
  0
LINE
  8
0
 10
0
 20
82.95
 11
0
 21
82.05
  0
LINE
  8
0
 10
0
 20
82.05
 11
2
 21
82.05
  0
LINE
  8
0
 10
2
 20
82.05
 11
2
 21
81.95
  0
LINE
  8
0
 10
2
 20
81.95
 11
0
 21
81.95
  0
LINE
  8
0
 10
0
 20
81.95
 11
0
 21
81.05
  0
LINE
  8
0
 10
0
 20
81.05
 11
2
 21
81.05
  0
LINE
  8
0
 10
2
 20
81.05
 11
2
 21
80.95
  0
LINE
  8
0
 10
2
 20
80.95
 11
0
 21
80.95
  0
LINE
  8
0
 10
0
 20
80.95
 11
0
 21
80.05
  0
LINE
  8
0
 10
0
 20
80.05
 11
6
 21
80.05
  0
LINE
  8
0
 10
6
 20
80.05
 11
6
 21
79.95
  0
LINE
  8
0
 10
6
 20
79.95
 11
0
 21
79.95
  0
LINE
  8
0
 10
0
 20
79.95
 11
0
 21
79.05
  0
LINE
  8
0
 10
0
 20
79.05
 11
2
 21
79.05
  0
LINE
  8
0
 10
2
 20
79.05
 11
2
 21
78.95
  0
LINE
  8
0
 10
2
 20
78.95
 11
0
 21
78.95
  0
LINE
  8
0
 10
0
 20
78.95
 11
0
 21
78.05
  0
LINE
  8
0
 10
0
 20
78.05
 11
2
 21
78.05
  0
LINE
  8
0
 10
2
 20
78.05
 11
2
 21
77.95
  0
LINE
  8
0
 10
2
 20
77.95
 11
0
 21
77.95
  0
LINE
  8
0
 10
0
 20
77.95
 11
0
 21
77.05
  0
LINE
  8
0
 10
0
 20
77.05
 11
2
 21
77.05
  0
LINE
  8
0
 10
2
 20
77.05
 11
2
 21
76.95
  0
LINE
  8
0
 10
2
 20
76.95
 11
0
 21
76.95
  0
LINE
  8
0
 10
0
 20
76.95
 11
0
 21
76.05
  0
LINE
  8
0
 10
0
 20
76.05
 11
2
 21
76.05
  0
LINE
  8
0
 10
2
 20
76.05
 11
2
 21
75.95
  0
LINE
  8
0
 10
2
 20
75.95
 11
0
 21
75.95
  0
LINE
  8
0
 10
0
 20
75.95
 11
0
 21
75.05
  0
LINE
  8
0
 10
0
 20
75.05
 11
4
 21
75.05
  0
LINE
  8
0
 10
4
 20
75.05
 11
4
 21
74.95
  0
LINE
  8
0
 10
4
 20
74.95
 11
0
 21
74.95
  0
LINE
  8
0
 10
0
 20
74.95
 11
0
 21
74.05
  0
LINE
  8
0
 10
0
 20
74.05
 11
2
 21
74.05
  0
LINE
  8
0
 10
2
 20
74.05
 11
2
 21
73.95
  0
LINE
  8
0
 10
2
 20
73.95
 11
0
 21
73.95
  0
LINE
  8
0
 10
0
 20
73.95
 11
0
 21
73.05
  0
LINE
  8
0
 10
0
 20
73.05
 11
2
 21
73.05
  0
LINE
  8
0
 10
2
 20
73.05
 11
2
 21
72.95
  0
LINE
  8
0
 10
2
 20
72.95
 11
0
 21
72.95
  0
LINE
  8
0
 10
0
 20
72.95
 11
0
 21
72.05
  0
LINE
  8
0
 10
0
 20
72.05
 11
2
 21
72.05
  0
LINE
  8
0
 10
2
 20
72.05
 11
2
 21
71.95
  0
LINE
  8
0
 10
2
 20
71.95
 11
0
 21
71.95
  0
LINE
  8
0
 10
0
 20
71.95
 11
0
 21
71.05
  0
LINE
  8
0
 10
0
 20
71.05
 11
2
 21
71.05
  0
LINE
  8
0
 10
2
 20
71.05
 11
2
 21
70.95
  0
LINE
  8
0
 10
2
 20
70.95
 11
0
 21
70.95
  0
LINE
  8
0
 10
0
 20
70.95
 11
0
 21
70.05
  0
LINE
  8
0
 10
0
 20
70.05
 11
6
 21
70.05
  0
LINE
  8
0
 10
6
 20
70.05
 11
6
 21
69.95
  0
LINE
  8
0
 10
6
 20
69.95
 11
0
 21
69.95
  0
LINE
  8
0
 10
0
 20
69.95
 11
0
 21
69.05
  0
LINE
  8
0
 10
0
 20
69.05
 11
2
 21
69.05
  0
LINE
  8
0
 10
2
 20
69.05
 11
2
 21
68.95
  0
LINE
  8
0
 10
2
 20
68.95
 11
0
 21
68.95
  0
LINE
  8
0
 10
0
 20
68.95
 11
0
 21
68.05
  0
LINE
  8
0
 10
0
 20
68.05
 11
2
 21
68.05
  0
LINE
  8
0
 10
2
 20
68.05
 11
2
 21
67.95
  0
LINE
  8
0
 10
2
 20
67.95
 11
0
 21
67.95
  0
LINE
  8
0
 10
0
 20
67.95
 11
0
 21
67.05
  0
LINE
  8
0
 10
0
 20
67.05
 11
2
 21
67.05
  0
LINE
  8
0
 10
2
 20
67.05
 11
2
 21
66.95
  0
LINE
  8
0
 10
2
 20
66.95
 11
0
 21
66.95
  0
LINE
  8
0
 10
0
 20
66.95
 11
0
 21
66.05
  0
LINE
  8
0
 10
0
 20
66.05
 11
2
 21
66.05
  0
LINE
  8
0
 10
2
 20
66.05
 11
2
 21
65.95
  0
LINE
  8
0
 10
2
 20
65.95
 11
0
 21
65.95
  0
LINE
  8
0
 10
0
 20
65.95
 11
0
 21
65.05
  0
LINE
  8
0
 10
0
 20
65.05
 11
4
 21
65.05
  0
LINE
  8
0
 10
4
 20
65.05
 11
4
 21
64.95
  0
LINE
  8
0
 10
4
 20
64.95
 11
0
 21
64.95
  0
LINE
  8
0
 10
0
 20
64.95
 11
0
 21
64.05
  0
LINE
  8
0
 10
0
 20
64.05
 11
2
 21
64.05
  0
LINE
  8
0
 10
2
 20
64.05
 11
2
 21
63.95
  0
LINE
  8
0
 10
2
 20
63.95
 11
0
 21
63.95
  0
LINE
  8
0
 10
0
 20
63.95
 11
0
 21
63.05
  0
LINE
  8
0
 10
0
 20
63.05
 11
2
 21
63.05
  0
LINE
  8
0
 10
2
 20
63.05
 11
2
 21
62.95
  0
LINE
  8
0
 10
2
 20
62.95
 11
0
 21
62.95
  0
LINE
  8
0
 10
0
 20
62.95
 11
0
 21
62.05
  0
LINE
  8
0
 10
0
 20
62.05
 11
2
 21
62.05
  0
LINE
  8
0
 10
2
 20
62.05
 11
2
 21
61.95
  0
LINE
  8
0
 10
2
 20
61.95
 11
0
 21
61.95
  0
LINE
  8
0
 10
0
 20
61.95
 11
0
 21
61.05
  0
LINE
  8
0
 10
0
 20
61.05
 11
2
 21
61.05
  0
LINE
  8
0
 10
2
 20
61.05
 11
2
 21
60.95
  0
LINE
  8
0
 10
2
 20
60.95
 11
0
 21
60.95
  0
LINE
  8
0
 10
0
 20
60.95
 11
0
 21
60.05
  0
LINE
  8
0
 10
0
 20
60.05
 11
6
 21
60.05
  0
LINE
  8
0
 10
6
 20
60.05
 11
6
 21
59.95
  0
LINE
  8
0
 10
6
 20
59.95
 11
0
 21
59.95
  0
LINE
  8
0
 10
0
 20
59.95
 11
0
 21
59.05
  0
LINE
  8
0
 10
0
 20
59.05
 11
2
 21
59.05
  0
LINE
  8
0
 10
2
 20
59.05
 11
2
 21
58.95
  0
LINE
  8
0
 10
2
 20
58.95
 11
0
 21
58.95
  0
LINE
  8
0
 10
0
 20
58.95
 11
0
 21
58.05
  0
LINE
  8
0
 10
0
 20
58.05
 11
2
 21
58.05
  0
LINE
  8
0
 10
2
 20
58.05
 11
2
 21
57.95
  0
LINE
  8
0
 10
2
 20
57.95
 11
0
 21
57.95
  0
LINE
  8
0
 10
0
 20
57.95
 11
0
 21
57.05
  0
LINE
  8
0
 10
0
 20
57.05
 11
2
 21
57.05
  0
LINE
  8
0
 10
2
 20
57.05
 11
2
 21
56.95
  0
LINE
  8
0
 10
2
 20
56.95
 11
0
 21
56.95
  0
LINE
  8
0
 10
0
 20
56.95
 11
0
 21
56.05
  0
LINE
  8
0
 10
0
 20
56.05
 11
2
 21
56.05
  0
LINE
  8
0
 10
2
 20
56.05
 11
2
 21
55.95
  0
LINE
  8
0
 10
2
 20
55.95
 11
0
 21
55.95
  0
LINE
  8
0
 10
0
 20
55.95
 11
0
 21
55.05
  0
LINE
  8
0
 10
0
 20
55.05
 11
4
 21
55.05
  0
LINE
  8
0
 10
4
 20
55.05
 11
4
 21
54.95
  0
LINE
  8
0
 10
4
 20
54.95
 11
0
 21
54.95
  0
LINE
  8
0
 10
0
 20
54.95
 11
0
 21
54.05
  0
LINE
  8
0
 10
0
 20
54.05
 11
2
 21
54.05
  0
LINE
  8
0
 10
2
 20
54.05
 11
2
 21
53.95
  0
LINE
  8
0
 10
2
 20
53.95
 11
0
 21
53.95
  0
LINE
  8
0
 10
0
 20
53.95
 11
0
 21
53.05
  0
LINE
  8
0
 10
0
 20
53.05
 11
2
 21
53.05
  0
LINE
  8
0
 10
2
 20
53.05
 11
2
 21
52.95
  0
LINE
  8
0
 10
2
 20
52.95
 11
0
 21
52.95
  0
LINE
  8
0
 10
0
 20
52.95
 11
0
 21
52.05
  0
LINE
  8
0
 10
0
 20
52.05
 11
2
 21
52.05
  0
LINE
  8
0
 10
2
 20
52.05
 11
2
 21
51.95
  0
LINE
  8
0
 10
2
 20
51.95
 11
0
 21
51.95
  0
LINE
  8
0
 10
0
 20
51.95
 11
0
 21
51.05
  0
LINE
  8
0
 10
0
 20
51.05
 11
2
 21
51.05
  0
LINE
  8
0
 10
2
 20
51.05
 11
2
 21
50.95
  0
LINE
  8
0
 10
2
 20
50.95
 11
0
 21
50.95
  0
LINE
  8
0
 10
0
 20
50.95
 11
0
 21
50.05
  0
LINE
  8
0
 10
0
 20
50.05
 11
6
 21
50.05
  0
LINE
  8
0
 10
6
 20
50.05
 11
6
 21
49.95
  0
LINE
  8
0
 10
6
 20
49.95
 11
0
 21
49.95
  0
LINE
  8
0
 10
0
 20
49.95
 11
0
 21
49.05
  0
LINE
  8
0
 10
0
 20
49.05
 11
2
 21
49.05
  0
LINE
  8
0
 10
2
 20
49.05
 11
2
 21
48.95
  0
LINE
  8
0
 10
2
 20
48.95
 11
0
 21
48.95
  0
LINE
  8
0
 10
0
 20
48.95
 11
0
 21
48.05
  0
LINE
  8
0
 10
0
 20
48.05
 11
2
 21
48.05
  0
LINE
  8
0
 10
2
 20
48.05
 11
2
 21
47.95
  0
LINE
  8
0
 10
2
 20
47.95
 11
0
 21
47.95
  0
LINE
  8
0
 10
0
 20
47.95
 11
0
 21
47.05
  0
LINE
  8
0
 10
0
 20
47.05
 11
2
 21
47.05
  0
LINE
  8
0
 10
2
 20
47.05
 11
2
 21
46.95
  0
LINE
  8
0
 10
2
 20
46.95
 11
0
 21
46.95
  0
LINE
  8
0
 10
0
 20
46.95
 11
0
 21
46.05
  0
LINE
  8
0
 10
0
 20
46.05
 11
2
 21
46.05
  0
LINE
  8
0
 10
2
 20
46.05
 11
2
 21
45.95
  0
LINE
  8
0
 10
2
 20
45.95
 11
0
 21
45.95
  0
LINE
  8
0
 10
0
 20
45.95
 11
0
 21
45.05
  0
LINE
  8
0
 10
0
 20
45.05
 11
4
 21
45.05
  0
LINE
  8
0
 10
4
 20
45.05
 11
4
 21
44.95
  0
LINE
  8
0
 10
4
 20
44.95
 11
0
 21
44.95
  0
LINE
  8
0
 10
0
 20
44.95
 11
0
 21
44.05
  0
LINE
  8
0
 10
0
 20
44.05
 11
2
 21
44.05
  0
LINE
  8
0
 10
2
 20
44.05
 11
2
 21
43.95
  0
LINE
  8
0
 10
2
 20
43.95
 11
0
 21
43.95
  0
LINE
  8
0
 10
0
 20
43.95
 11
0
 21
43.05
  0
LINE
  8
0
 10
0
 20
43.05
 11
2
 21
43.05
  0
LINE
  8
0
 10
2
 20
43.05
 11
2
 21
42.95
  0
LINE
  8
0
 10
2
 20
42.95
 11
0
 21
42.95
  0
LINE
  8
0
 10
0
 20
42.95
 11
0
 21
42.05
  0
LINE
  8
0
 10
0
 20
42.05
 11
2
 21
42.05
  0
LINE
  8
0
 10
2
 20
42.05
 11
2
 21
41.95
  0
LINE
  8
0
 10
2
 20
41.95
 11
0
 21
41.95
  0
LINE
  8
0
 10
0
 20
41.95
 11
0
 21
41.05
  0
LINE
  8
0
 10
0
 20
41.05
 11
2
 21
41.05
  0
LINE
  8
0
 10
2
 20
41.05
 11
2
 21
40.95
  0
LINE
  8
0
 10
2
 20
40.95
 11
0
 21
40.95
  0
LINE
  8
0
 10
0
 20
40.95
 11
0
 21
40.05
  0
LINE
  8
0
 10
0
 20
40.05
 11
6
 21
40.05
  0
LINE
  8
0
 10
6
 20
40.05
 11
6
 21
39.95
  0
LINE
  8
0
 10
6
 20
39.95
 11
0
 21
39.95
  0
LINE
  8
0
 10
0
 20
39.95
 11
0
 21
39.05
  0
LINE
  8
0
 10
0
 20
39.05
 11
2
 21
39.05
  0
LINE
  8
0
 10
2
 20
39.05
 11
2
 21
38.95
  0
LINE
  8
0
 10
2
 20
38.95
 11
0
 21
38.95
  0
LINE
  8
0
 10
0
 20
38.95
 11
0
 21
38.05
  0
LINE
  8
0
 10
0
 20
38.05
 11
2
 21
38.05
  0
LINE
  8
0
 10
2
 20
38.05
 11
2
 21
37.95
  0
LINE
  8
0
 10
2
 20
37.95
 11
0
 21
37.95
  0
LINE
  8
0
 10
0
 20
37.95
 11
0
 21
37.05
  0
LINE
  8
0
 10
0
 20
37.05
 11
2
 21
37.05
  0
LINE
  8
0
 10
2
 20
37.05
 11
2
 21
36.95
  0
LINE
  8
0
 10
2
 20
36.95
 11
0
 21
36.95
  0
LINE
  8
0
 10
0
 20
36.95
 11
0
 21
36.05
  0
LINE
  8
0
 10
0
 20
36.05
 11
2
 21
36.05
  0
LINE
  8
0
 10
2
 20
36.05
 11
2
 21
35.95
  0
LINE
  8
0
 10
2
 20
35.95
 11
0
 21
35.95
  0
LINE
  8
0
 10
0
 20
35.95
 11
0
 21
35.05
  0
LINE
  8
0
 10
0
 20
35.05
 11
4
 21
35.05
  0
LINE
  8
0
 10
4
 20
35.05
 11
4
 21
34.95
  0
LINE
  8
0
 10
4
 20
34.95
 11
0
 21
34.95
  0
LINE
  8
0
 10
0
 20
34.95
 11
0
 21
34.05
  0
LINE
  8
0
 10
0
 20
34.05
 11
2
 21
34.05
  0
LINE
  8
0
 10
2
 20
34.05
 11
2
 21
33.95
  0
LINE
  8
0
 10
2
 20
33.95
 11
0
 21
33.95
  0
LINE
  8
0
 10
0
 20
33.95
 11
0
 21
33.05
  0
LINE
  8
0
 10
0
 20
33.05
 11
2
 21
33.05
  0
LINE
  8
0
 10
2
 20
33.05
 11
2
 21
32.95
  0
LINE
  8
0
 10
2
 20
32.95
 11
0
 21
32.95
  0
LINE
  8
0
 10
0
 20
32.95
 11
0
 21
32.05
  0
LINE
  8
0
 10
0
 20
32.05
 11
2
 21
32.05
  0
LINE
  8
0
 10
2
 20
32.05
 11
2
 21
31.95
  0
LINE
  8
0
 10
2
 20
31.95
 11
0
 21
31.95
  0
LINE
  8
0
 10
0
 20
31.95
 11
0
 21
31.05
  0
LINE
  8
0
 10
0
 20
31.05
 11
2
 21
31.05
  0
LINE
  8
0
 10
2
 20
31.05
 11
2
 21
30.95
  0
LINE
  8
0
 10
2
 20
30.95
 11
0
 21
30.95
  0
LINE
  8
0
 10
0
 20
30.95
 11
0
 21
30.05
  0
LINE
  8
0
 10
0
 20
30.05
 11
6
 21
30.05
  0
LINE
  8
0
 10
6
 20
30.05
 11
6
 21
29.95
  0
LINE
  8
0
 10
6
 20
29.95
 11
0
 21
29.95
  0
LINE
  8
0
 10
0
 20
29.95
 11
0
 21
29.05
  0
LINE
  8
0
 10
0
 20
29.05
 11
2
 21
29.05
  0
LINE
  8
0
 10
2
 20
29.05
 11
2
 21
28.95
  0
LINE
  8
0
 10
2
 20
28.95
 11
0
 21
28.95
  0
LINE
  8
0
 10
0
 20
28.95
 11
0
 21
28.05
  0
LINE
  8
0
 10
0
 20
28.05
 11
2
 21
28.05
  0
LINE
  8
0
 10
2
 20
28.05
 11
2
 21
27.95
  0
LINE
  8
0
 10
2
 20
27.95
 11
0
 21
27.95
  0
LINE
  8
0
 10
0
 20
27.95
 11
0
 21
27.05
  0
LINE
  8
0
 10
0
 20
27.05
 11
2
 21
27.05
  0
LINE
  8
0
 10
2
 20
27.05
 11
2
 21
26.95
  0
LINE
  8
0
 10
2
 20
26.95
 11
0
 21
26.95
  0
LINE
  8
0
 10
0
 20
26.95
 11
0
 21
26.05
  0
LINE
  8
0
 10
0
 20
26.05
 11
2
 21
26.05
  0
LINE
  8
0
 10
2
 20
26.05
 11
2
 21
25.95
  0
LINE
  8
0
 10
2
 20
25.95
 11
0
 21
25.95
  0
LINE
  8
0
 10
0
 20
25.95
 11
0
 21
25.05
  0
LINE
  8
0
 10
0
 20
25.05
 11
4
 21
25.05
  0
LINE
  8
0
 10
4
 20
25.05
 11
4
 21
24.95
  0
LINE
  8
0
 10
4
 20
24.95
 11
0
 21
24.95
  0
LINE
  8
0
 10
0
 20
24.95
 11
0
 21
24.05
  0
LINE
  8
0
 10
0
 20
24.05
 11
2
 21
24.05
  0
LINE
  8
0
 10
2
 20
24.05
 11
2
 21
23.95
  0
LINE
  8
0
 10
2
 20
23.95
 11
0
 21
23.95
  0
LINE
  8
0
 10
0
 20
23.95
 11
0
 21
23.05
  0
LINE
  8
0
 10
0
 20
23.05
 11
2
 21
23.05
  0
LINE
  8
0
 10
2
 20
23.05
 11
2
 21
22.95
  0
LINE
  8
0
 10
2
 20
22.95
 11
0
 21
22.95
  0
LINE
  8
0
 10
0
 20
22.95
 11
0
 21
22.05
  0
LINE
  8
0
 10
0
 20
22.05
 11
2
 21
22.05
  0
LINE
  8
0
 10
2
 20
22.05
 11
2
 21
21.95
  0
LINE
  8
0
 10
2
 20
21.95
 11
0
 21
21.95
  0
LINE
  8
0
 10
0
 20
21.95
 11
0
 21
21.05
  0
LINE
  8
0
 10
0
 20
21.05
 11
2
 21
21.05
  0
LINE
  8
0
 10
2
 20
21.05
 11
2
 21
20.95
  0
LINE
  8
0
 10
2
 20
20.95
 11
0
 21
20.95
  0
LINE
  8
0
 10
0
 20
20.95
 11
0
 21
20.05
  0
LINE
  8
0
 10
0
 20
20.05
 11
6
 21
20.05
  0
LINE
  8
0
 10
6
 20
20.05
 11
6
 21
19.95
  0
LINE
  8
0
 10
6
 20
19.95
 11
0
 21
19.95
  0
LINE
  8
0
 10
0
 20
19.95
 11
0
 21
19.05
  0
LINE
  8
0
 10
0
 20
19.05
 11
2
 21
19.05
  0
LINE
  8
0
 10
2
 20
19.05
 11
2
 21
18.95
  0
LINE
  8
0
 10
2
 20
18.95
 11
0
 21
18.95
  0
LINE
  8
0
 10
0
 20
18.95
 11
0
 21
18.05
  0
LINE
  8
0
 10
0
 20
18.05
 11
2
 21
18.05
  0
LINE
  8
0
 10
2
 20
18.05
 11
2
 21
17.95
  0
LINE
  8
0
 10
2
 20
17.95
 11
0
 21
17.95
  0
LINE
  8
0
 10
0
 20
17.95
 11
0
 21
17.05
  0
LINE
  8
0
 10
0
 20
17.05
 11
2
 21
17.05
  0
LINE
  8
0
 10
2
 20
17.05
 11
2
 21
16.95
  0
LINE
  8
0
 10
2
 20
16.95
 11
0
 21
16.95
  0
LINE
  8
0
 10
0
 20
16.95
 11
0
 21
16.05
  0
LINE
  8
0
 10
0
 20
16.05
 11
2
 21
16.05
  0
LINE
  8
0
 10
2
 20
16.05
 11
2
 21
15.95
  0
LINE
  8
0
 10
2
 20
15.95
 11
0
 21
15.95
  0
LINE
  8
0
 10
0
 20
15.95
 11
0
 21
15.05
  0
LINE
  8
0
 10
0
 20
15.05
 11
4
 21
15.05
  0
LINE
  8
0
 10
4
 20
15.05
 11
4
 21
14.95
  0
LINE
  8
0
 10
4
 20
14.95
 11
0
 21
14.95
  0
LINE
  8
0
 10
0
 20
14.95
 11
0
 21
14.05
  0
LINE
  8
0
 10
0
 20
14.05
 11
2
 21
14.05
  0
LINE
  8
0
 10
2
 20
14.05
 11
2
 21
13.95
  0
LINE
  8
0
 10
2
 20
13.95
 11
0
 21
13.95
  0
LINE
  8
0
 10
0
 20
13.95
 11
0
 21
13.05
  0
LINE
  8
0
 10
0
 20
13.05
 11
2
 21
13.05
  0
LINE
  8
0
 10
2
 20
13.05
 11
2
 21
12.95
  0
LINE
  8
0
 10
2
 20
12.95
 11
0
 21
12.95
  0
LINE
  8
0
 10
0
 20
12.95
 11
0
 21
12.05
  0
LINE
  8
0
 10
0
 20
12.05
 11
2
 21
12.05
  0
LINE
  8
0
 10
2
 20
12.05
 11
2
 21
11.95
  0
LINE
  8
0
 10
2
 20
11.95
 11
0
 21
11.95
  0
LINE
  8
0
 10
0
 20
11.95
 11
0
 21
11.05
  0
LINE
  8
0
 10
0
 20
11.05
 11
2
 21
11.05
  0
LINE
  8
0
 10
2
 20
11.05
 11
2
 21
10.95
  0
LINE
  8
0
 10
2
 20
10.95
 11
0
 21
10.95
  0
LINE
  8
0
 10
0
 20
10.95
 11
0
 21
10.05
  0
LINE
  8
0
 10
0
 20
10.05
 11
6
 21
10.05
  0
LINE
  8
0
 10
6
 20
10.05
 11
6
 21
9.95
  0
LINE
  8
0
 10
6
 20
9.95
 11
0
 21
9.95
  0
LINE
  8
0
 10
0
 20
9.95
 11
0
 21
9.04999
  0
LINE
  8
0
 10
0
 20
9.04999
 11
2
 21
9.04999
  0
LINE
  8
0
 10
2
 20
9.04999
 11
2
 21
8.95
  0
LINE
  8
0
 10
2
 20
8.95
 11
0
 21
8.95
  0
LINE
  8
0
 10
0
 20
8.95
 11
0
 21
8.04999
  0
LINE
  8
0
 10
0
 20
8.04999
 11
2
 21
8.04999
  0
LINE
  8
0
 10
2
 20
8.04999
 11
2
 21
7.95
  0
LINE
  8
0
 10
2
 20
7.95
 11
0
 21
7.95
  0
LINE
  8
0
 10
0
 20
7.95
 11
0
 21
7.04999
  0
LINE
  8
0
 10
0
 20
7.04999
 11
2
 21
7.04999
  0
LINE
  8
0
 10
2
 20
7.04999
 11
2
 21
6.95
  0
LINE
  8
0
 10
2
 20
6.95
 11
0
 21
6.95
  0
LINE
  8
0
 10
0
 20
6.95
 11
0
 21
6.04999
  0
LINE
  8
0
 10
0
 20
6.04999
 11
2
 21
6.04999
  0
LINE
  8
0
 10
2
 20
6.04999
 11
2
 21
5.95
  0
LINE
  8
0
 10
2
 20
5.95
 11
0
 21
5.95
  0
LINE
  8
0
 10
0
 20
5.95
 11
0
 21
5.04999
  0
LINE
  8
0
 10
0
 20
5.04999
 11
4
 21
5.04999
  0
LINE
  8
0
 10
4
 20
5.04999
 11
4
 21
4.95
  0
LINE
  8
0
 10
4
 20
4.95
 11
0
 21
4.95
  0
LINE
  8
0
 10
0
 20
4.95
 11
0
 21
4.04999
  0
LINE
  8
0
 10
0
 20
4.04999
 11
2
 21
4.04999
  0
LINE
  8
0
 10
2
 20
4.04999
 11
2
 21
3.95
  0
LINE
  8
0
 10
2
 20
3.95
 11
0
 21
3.95
  0
LINE
  8
0
 10
0
 20
3.95
 11
0
 21
3.04999
  0
LINE
  8
0
 10
0
 20
3.04999
 11
2
 21
3.04999
  0
LINE
  8
0
 10
2
 20
3.04999
 11
2
 21
2.95
  0
LINE
  8
0
 10
2
 20
2.95
 11
0
 21
2.95
  0
LINE
  8
0
 10
0
 20
2.95
 11
0
 21
2.04999
  0
LINE
  8
0
 10
0
 20
2.04999
 11
2
 21
2.04999
  0
LINE
  8
0
 10
2
 20
2.04999
 11
2
 21
1.95
  0
LINE
  8
0
 10
2
 20
1.95
 11
0
 21
1.95
  0
LINE
  8
0
 10
0
 20
1.95
 11
0
 21
1.04999
  0
LINE
  8
0
 10
0
 20
1.04999
 11
2
 21
1.04999
  0
LINE
  8
0
 10
2
 20
1.04999
 11
2
 21
0.949997
  0
LINE
  8
0
 10
2
 20
0.949997
 11
0
 21
0.949997
  0
LINE
  8
0
 10
0
 20
0.949997
 11
0
 21
0
  0
LINE
  8
0
 10
0
 20
0
 11
10
 21
0
  0
LINE
  8
0
 10
10
 20
0
 11
10
 21
300
  0
ENDSEC
  0
SECTION
  2
OBJECTS
  0
DICTIONARY
  0
ENDSEC
  0
EOF
