<?xml version="1.0" standalone="no"?>
<!DOCTYPE svg PUBLIC "-//W3C//DTD SVG 1.1//EN" "http://www.w3.org/Graphics/SVG/1.1/DTD/svg11.dtd">
<svg width="300mm" height="10mm" viewBox="0 -10 300 10" xmlns="http://www.w3.org/2000/svg" version="1.1">
<title>OpenSCAD Model</title>
<path d="
M 1.04999,-2 L 1.04999,-0 L 1.95,-0 L 1.95,-2 L 2.04999,-2 L 2.04999,-0
 L 2.95,-0 L 2.95,-2 L 3.04999,-2 L 3.04999,-0 L 3.95,-0 L 3.95,-2
 L 4.04999,-2 L 4.04999,-0 L 4.95,-0 L 4.95,-4 L 5.04999,-4 L 5.04999,-0
 L 5.95,-0 L 5.95,-2 L 6.04999,-2 L 6.04999,-0 L 6.95,-0 L 6.95,-2
 L 7.04999,-2 L 7.04999,-0 L 7.95,-0 L 7.95,-2 L 8.04999,-2 L 8.04999,-0
 L 8.95,-0 L 8.95,-2 L 9.04999,-2 L 9.04999,-0 L 9.95,-0 L 9.95,-6
 L 10.05,-6 L 10.05,-0 L 10.95,-0 L 10.95,-2 L 11.05,-2 L 11.05,-0
 L 11.95,-0 L 11.95,-2 L 12.05,-2 L 12.05,-0 L 12.95,-0 L 12.95,-2
 L 13.05,-2 L 13.05,-0 L 13.95,-0 L 13.95,-2 L 14.05,-2 L 14.05,-0
 L 14.95,-0 L 14.95,-4 L 15.05,-4 L 15.05,-0 L 15.95,-0 L 15.95,-2
 L 16.05,-2 L 16.05,-0 L 16.95,-0 L 16.95,-2 L 17.05,-2 L 17.05,-0
 L 17.95,-0 L 17.95,-2 L 18.05,-2 L 18.05,-0 L 18.95,-0 L 18.95,-2
 L 19.05,-2 L 19.05,-0 L 19.95,-0 L 19.95,-6 L 20.05,-6 L 20.05,-0
 L 20.95,-0 L 20.95,-2 L 21.05,-2 L 21.05,-0 L 21.95,-0 L 21.95,-2
 L 22.05,-2 L 22.05,-0 L 22.95,-0 L 22.95,-2 L 23.05,-2 L 23.05,-0
 L 23.95,-0 L 23.95,-2 L 24.05,-2 L 24.05,-0 L 24.95,-0 L 24.95,-4
 L 25.05,-4 L 25.05,-0 L 25.95,-0 L 25.95,-2 L 26.05,-2 L 26.05,-0
 L 26.95,-0 L 26.95,-2 L 27.05,-2 L 27.05,-0 L 27.95,-0 L 27.95,-2
 L 28.05,-2 L 28.05,-0 L 28.95,-0 L 28.95,-2 L 29.05,-2 L 29.05,-0
 L 29.95,-0 L 29.95,-6 L 30.05,-6 L 30.05,-0 L 30.95,-0 L 30.95,-2
 L 31.05,-2 L 31.05,-0 L 31.95,-0 L 31.95,-2 L 32.05,-2 L 32.05,-0
 L 32.95,-0 L 32.95,-2 L 33.05,-2 L 33.05,-0 L 33.95,-0 L 33.95,-2
 L 34.05,-2 L 34.05,-0 L 34.95,-0 L 34.95,-4 L 35.05,-4 L 35.05,-0
 L 35.95,-0 L 35.95,-2 L 36.05,-2 L 36.05,-0 L 36.95,-0 L 36.95,-2
 L 37.05,-2 L 37.05,-0 L 37.95,-0 L 37.95,-2 L 38.05,-2 L 38.05,-0
 L 38.95,-0 L 38.95,-2 L 39.05,-2 L 39.05,-0 L 39.95,-0 L 39.95,-6
 L 40.05,-6 L 40.05,-0 L 40.95,-0 L 40.95,-2 L 41.05,-2 L 41.05,-0
 L 41.95,-0 L 41.95,-2 L 42.05,-2 L 42.05,-0 L 42.95,-0 L 42.95,-2
 L 43.05,-2 L 43.05,-0 L 43.95,-0 L 43.95,-2 L 44.05,-2 L 44.05,-0
 L 44.95,-0 L 44.95,-4 L 45.05,-4 L 45.05,-0 L 45.95,-0 L 45.95,-2
 L 46.05,-2 L 46.05,-0 L 46.95,-0 L 46.95,-2 L 47.05,-2 L 47.05,-0
 L 47.95,-0 L 47.95,-2 L 48.05,-2 L 48.05,-0 L 48.95,-0 L 48.95,-2
 L 49.05,-2 L 49.05,-0 L 49.95,-0 L 49.95,-6 L 50.05,-6 L 50.05,-0
 L 50.95,-0 L 50.95,-2 L 51.05,-2 L 51.05,-0 L 51.95,-0 L 51.95,-2
 L 52.05,-2 L 52.05,-0 L 52.95,-0 L 52.95,-2 L 53.05,-2 L 53.05,-0
 L 53.95,-0 L 53.95,-2 L 54.05,-2 L 54.05,-0 L 54.95,-0 L 54.95,-4
 L 55.05,-4 L 55.05,-0 L 55.95,-0 L 55.95,-2 L 56.05,-2 L 56.05,-0
 L 56.95,-0 L 56.95,-2 L 57.05,-2 L 57.05,-0 L 57.95,-0 L 57.95,-2
 L 58.05,-2 L 58.05,-0 L 58.95,-0 L 58.95,-2 L 59.05,-2 L 59.05,-0
 L 59.95,-0 L 59.95,-6 L 60.05,-6 L 60.05,-0 L 60.95,-0 L 60.95,-2
 L 61.05,-2 L 61.05,-0 L 61.95,-0 L 61.95,-2 L 62.05,-2 L 62.05,-0
 L 62.95,-0 L 62.95,-2 L 63.05,-2 L 63.05,-0 L 63.95,-0 L 63.95,-2
 L 64.05,-2 L 64.05,-0 L 64.95,-0 L 64.95,-4 L 65.05,-4 L 65.05,-0
 L 65.95,-0 L 65.95,-2 L 66.05,-2 L 66.05,-0 L 66.95,-0 L 66.95,-2
 L 67.05,-2 L 67.05,-0 L 67.95,-0 L 67.95,-2 L 68.05,-2 L 68.05,-0
 L 68.95,-0 L 68.95,-2 L 69.05,-2 L 69.05,-0 L 69.95,-0 L 69.95,-6
 L 70.05,-6 L 70.05,-0 L 70.95,-0 L 70.95,-2 L 71.05,-2 L 71.05,-0
 L 71.95,-0 L 71.95,-2 L 72.05,-2 L 72.05,-0 L 72.95,-0 L 72.95,-2
 L 73.05,-2 L 73.05,-0 L 73.95,-0 L 73.95,-2 L 74.05,-2 L 74.05,-0
 L 74.95,-0 L 74.95,-4 L 75.05,-4 L 75.05,-0 L 75.95,-0 L 75.95,-2
 L 76.05,-2 L 76.05,-0 L 76.95,-0 L 76.95,-2 L 77.05,-2 L 77.05,-0
 L 77.95,-0 L 77.95,-2 L 78.05,-2 L 78.05,-0 L 78.95,-0 L 78.95,-2
 L 79.05,-2 L 79.05,-0 L 79.95,-0 L 79.95,-6 L 80.05,-6 L 80.05,-0
 L 80.95,-0 L 80.95,-2 L 81.05,-2 L 81.05,-0 L 81.95,-0 L 81.95,-2
 L 82.05,-2 L 82.05,-0 L 82.95,-0 L 82.95,-2 L 83.05,-2 L 83.05,-0
 L 83.95,-0 L 83.95,-2 L 84.05,-2 L 84.05,-0 L 84.95,-0 L 84.95,-4
 L 85.05,-4 L 85.05,-0 L 85.95,-0 L 85.95,-2 L 86.05,-2 L 86.05,-0
 L 86.95,-0 L 86.95,-2 L 87.05,-2 L 87.05,-0 L 87.95,-0 L 87.95,-2
 L 88.05,-2 L 88.05,-0 L 88.95,-0 L 88.95,-2 L 89.05,-2 L 89.05,-0
 L 89.95,-0 L 89.95,-6 L 90.05,-6 L 90.05,-0 L 90.95,-0 L 90.95,-2
 L 91.05,-2 L 91.05,-0 L 91.95,-0 L 91.95,-2 L 92.05,-2 L 92.05,-0
 L 92.95,-0 L 92.95,-2 L 93.05,-2 L 93.05,-0 L 93.95,-0 L 93.95,-2
 L 94.05,-2 L 94.05,-0 L 94.95,-0 L 94.95,-4 L 95.05,-4 L 95.05,-0
 L 95.95,-0 L 95.95,-2 L 96.05,-2 L 96.05,-0 L 96.95,-0 L 96.95,-2
 L 97.05,-2 L 97.05,-0 L 97.95,-0 L 97.95,-2 L 98.05,-2 L 98.05,-0
 L 98.95,-0 L 98.95,-2 L 99.05,-2 L 99.05,-0 L 99.95,-0 L 99.95,-6
 L 100.05,-6 L 100.05,-0 L 100.95,-0 L 100.95,-2 L 101.05,-2 L 101.05,-0
 L 101.95,-0 L 101.95,-2 L 102.05,-2 L 102.05,-0 L 102.95,-0 L 102.95,-2
 L 103.05,-2 L 103.05,-0 L 103.95,-0 L 103.95,-2 L 104.05,-2 L 104.05,-0
 L 104.95,-0 L 104.95,-4 L 105.05,-4 L 105.05,-0 L 105.95,-0 L 105.95,-2
 L 106.05,-2 L 106.05,-0 L 106.95,-0 L 106.95,-2 L 107.05,-2 L 107.05,-0
 L 107.95,-0 L 107.95,-2 L 108.05,-2 L 108.05,-0 L 108.95,-0 L 108.95,-2
 L 109.05,-2 L 109.05,-0 L 109.95,-0 L 109.95,-6 L 110.05,-6 L 110.05,-0
 L 110.95,-0 L 110.95,-2 L 111.05,-2 L 111.05,-0 L 111.95,-0 L 111.95,-2
 L 112.05,-2 L 112.05,-0 L 112.95,-0 L 112.95,-2 L 113.05,-2 L 113.05,-0
 L 113.95,-0 L 113.95,-2 L 114.05,-2 L 114.05,-0 L 114.95,-0 L 114.95,-4
 L 115.05,-4 L 115.05,-0 L 115.95,-0 L 115.95,-2 L 116.05,-2 L 116.05,-0
 L 116.95,-0 L 116.95,-2 L 117.05,-2 L 117.05,-0 L 117.95,-0 L 117.95,-2
 L 118.05,-2 L 118.05,-0 L 118.95,-0 L 118.95,-2 L 119.05,-2 L 119.05,-0
 L 119.95,-0 L 119.95,-6 L 120.05,-6 L 120.05,-0 L 120.95,-0 L 120.95,-2
 L 121.05,-2 L 121.05,-0 L 121.95,-0 L 121.95,-2 L 122.05,-2 L 122.05,-0
 L 122.95,-0 L 122.95,-2 L 123.05,-2 L 123.05,-0 L 123.95,-0 L 123.95,-2
 L 124.05,-2 L 124.05,-0 L 124.95,-0 L 124.95,-4 L 125.05,-4 L 125.05,-0
 L 125.95,-0 L 125.95,-2 L 126.05,-2 L 126.05,-0 L 126.95,-0 L 126.95,-2
 L 127.05,-2 L 127.05,-0 L 127.95,-0 L 127.95,-2 L 128.05,-2 L 128.05,-0
 L 128.95,-0 L 128.95,-2 L 129.05,-2 L 129.05,-0 L 129.95,-0 L 129.95,-6
 L 130.05,-6 L 130.05,-0 L 130.95,-0 L 130.95,-2 L 131.05,-2 L 131.05,-0
 L 131.95,-0 L 131.95,-2 L 132.05,-2 L 132.05,-0 L 132.95,-0 L 132.95,-2
 L 133.05,-2 L 133.05,-0 L 133.95,-0 L 133.95,-2 L 134.05,-2 L 134.05,-0
 L 134.95,-0 L 134.95,-4 L 135.05,-4 L 135.05,-0 L 135.95,-0 L 135.95,-2
 L 136.05,-2 L 136.05,-0 L 136.95,-0 L 136.95,-2 L 137.05,-2 L 137.05,-0
 L 137.95,-0 L 137.95,-2 L 138.05,-2 L 138.05,-0 L 138.95,-0 L 138.95,-2
 L 139.05,-2 L 139.05,-0 L 139.95,-0 L 139.95,-6 L 140.05,-6 L 140.05,-0
 L 140.95,-0 L 140.95,-2 L 141.05,-2 L 141.05,-0 L 141.95,-0 L 141.95,-2
 L 142.05,-2 L 142.05,-0 L 142.95,-0 L 142.95,-2 L 143.05,-2 L 143.05,-0
 L 143.95,-0 L 143.95,-2 L 144.05,-2 L 144.05,-0 L 144.95,-0 L 144.95,-4
 L 145.05,-4 L 145.05,-0 L 145.95,-0 L 145.95,-2 L 146.05,-2 L 146.05,-0
 L 146.95,-0 L 146.95,-2 L 147.05,-2 L 147.05,-0 L 147.95,-0 L 147.95,-2
 L 148.05,-2 L 148.05,-0 L 148.95,-0 L 148.95,-2 L 149.05,-2 L 149.05,-0
 L 149.95,-0 L 149.95,-6 L 150.05,-6 L 150.05,-0 L 150.95,-0 L 150.95,-2
 L 151.05,-2 L 151.05,-0 L 151.95,-0 L 151.95,-2 L 152.05,-2 L 152.05,-0
 L 152.95,-0 L 152.95,-2 L 153.05,-2 L 153.05,-0 L 153.95,-0 L 153.95,-2
 L 154.05,-2 L 154.05,-0 L 154.95,-0 L 154.95,-4 L 155.05,-4 L 155.05,-0
 L 155.95,-0 L 155.95,-2 L 156.05,-2 L 156.05,-0 L 156.95,-0 L 156.95,-2
 L 157.05,-2 L 157.05,-0 L 157.95,-0 L 157.95,-2 L 158.05,-2 L 158.05,-0
 L 158.95,-0 L 158.95,-2 L 159.05,-2 L 159.05,-0 L 159.95,-0 L 159.95,-6
 L 160.05,-6 L 160.05,-0 L 160.95,-0 L 160.95,-2 L 161.05,-2 L 161.05,-0
 L 161.95,-0 L 161.95,-2 L 162.05,-2 L 162.05,-0 L 162.95,-0 L 162.95,-2
 L 163.05,-2 L 163.05,-0 L 163.95,-0 L 163.95,-2 L 164.05,-2 L 164.05,-0
 L 164.95,-0 L 164.95,-4 L 165.05,-4 L 165.05,-0 L 165.95,-0 L 165.95,-2
 L 166.05,-2 L 166.05,-0 L 166.95,-0 L 166.95,-2 L 167.05,-2 L 167.05,-0
 L 167.95,-0 L 167.95,-2 L 168.05,-2 L 168.05,-0 L 168.95,-0 L 168.95,-2
 L 169.05,-2 L 169.05,-0 L 169.95,-0 L 169.95,-6 L 170.05,-6 L 170.05,-0
 L 170.95,-0 L 170.95,-2 L 171.05,-2 L 171.05,-0 L 171.95,-0 L 171.95,-2
 L 172.05,-2 L 172.05,-0 L 172.95,-0 L 172.95,-2 L 173.05,-2 L 173.05,-0
 L 173.95,-0 L 173.95,-2 L 174.05,-2 L 174.05,-0 L 174.95,-0 L 174.95,-4
 L 175.05,-4 L 175.05,-0 L 175.95,-0 L 175.95,-2 L 176.05,-2 L 176.05,-0
 L 176.95,-0 L 176.95,-2 L 177.05,-2 L 177.05,-0 L 177.95,-0 L 177.95,-2
 L 178.05,-2 L 178.05,-0 L 178.95,-0 L 178.95,-2 L 179.05,-2 L 179.05,-0
 L 179.95,-0 L 179.95,-6 L 180.05,-6 L 180.05,-0 L 180.95,-0 L 180.95,-2
 L 181.05,-2 L 181.05,-0 L 181.95,-0 L 181.95,-2 L 182.05,-2 L 182.05,-0
 L 182.95,-0 L 182.95,-2 L 183.05,-2 L 183.05,-0 L 183.95,-0 L 183.95,-2
 L 184.05,-2 L 184.05,-0 L 184.95,-0 L 184.95,-4 L 185.05,-4 L 185.05,-0
 L 185.95,-0 L 185.95,-2 L 186.05,-2 L 186.05,-0 L 186.95,-0 L 186.95,-2
 L 187.05,-2 L 187.05,-0 L 187.95,-0 L 187.95,-2 L 188.05,-2 L 188.05,-0
 L 188.95,-0 L 188.95,-2 L 189.05,-2 L 189.05,-0 L 189.95,-0 L 189.95,-6
 L 190.05,-6 L 190.05,-0 L 190.95,-0 L 190.95,-2 L 191.05,-2 L 191.05,-0
 L 191.95,-0 L 191.95,-2 L 192.05,-2 L 192.05,-0 L 192.95,-0 L 192.95,-2
 L 193.05,-2 L 193.05,-0 L 193.95,-0 L 193.95,-2 L 194.05,-2 L 194.05,-0
 L 194.95,-0 L 194.95,-4 L 195.05,-4 L 195.05,-0 L 195.95,-0 L 195.95,-2
 L 196.05,-2 L 196.05,-0 L 196.95,-0 L 196.95,-2 L 197.05,-2 L 197.05,-0
 L 197.95,-0 L 197.95,-2 L 198.05,-2 L 198.05,-0 L 198.95,-0 L 198.95,-2
 L 199.05,-2 L 199.05,-0 L 199.95,-0 L 199.95,-6 L 200.05,-6 L 200.05,-0
 L 200.95,-0 L 200.95,-2 L 201.05,-2 L 201.05,-0 L 201.95,-0 L 201.95,-2
 L 202.05,-2 L 202.05,-0 L 202.95,-0 L 202.95,-2 L 203.05,-2 L 203.05,-0
 L 203.95,-0 L 203.95,-2 L 204.05,-2 L 204.05,-0 L 204.95,-0 L 204.95,-4
 L 205.05,-4 L 205.05,-0 L 205.95,-0 L 205.95,-2 L 206.05,-2 L 206.05,-0
 L 206.95,-0 L 206.95,-2 L 207.05,-2 L 207.05,-0 L 207.95,-0 L 207.95,-2
 L 208.05,-2 L 208.05,-0 L 208.95,-0 L 208.95,-2 L 209.05,-2 L 209.05,-0
 L 209.95,-0 L 209.95,-6 L 210.05,-6 L 210.05,-0 L 210.95,-0 L 210.95,-2
 L 211.05,-2 L 211.05,-0 L 211.95,-0 L 211.95,-2 L 212.05,-2 L 212.05,-0
 L 212.95,-0 L 212.95,-2 L 213.05,-2 L 213.05,-0 L 213.95,-0 L 213.95,-2
 L 214.05,-2 L 214.05,-0 L 214.95,-0 L 214.95,-4 L 215.05,-4 L 215.05,-0
 L 215.95,-0 L 215.95,-2 L 216.05,-2 L 216.05,-0 L 216.95,-0 L 216.95,-2
 L 217.05,-2 L 217.05,-0 L 217.95,-0 L 217.95,-2 L 218.05,-2 L 218.05,-0
 L 218.95,-0 L 218.95,-2 L 219.05,-2 L 219.05,-0 L 219.95,-0 L 219.95,-6
 L 220.05,-6 L 220.05,-0 L 220.95,-0 L 220.95,-2 L 221.05,-2 L 221.05,-0
 L 221.95,-0 L 221.95,-2 L 222.05,-2 L 222.05,-0 L 222.95,-0 L 222.95,-2
 L 223.05,-2 L 223.05,-0 L 223.95,-0 L 223.95,-2 L 224.05,-2 L 224.05,-0
 L 224.95,-0 L 224.95,-4 L 225.05,-4 L 225.05,-0 L 225.95,-0 L 225.95,-2
 L 226.05,-2 L 226.05,-0 L 226.95,-0 L 226.95,-2 L 227.05,-2 L 227.05,-0
 L 227.95,-0 L 227.95,-2 L 228.05,-2 L 228.05,-0 L 228.95,-0 L 228.95,-2
 L 229.05,-2 L 229.05,-0 L 229.95,-0 L 229.95,-6 L 230.05,-6 L 230.05,-0
 L 230.95,-0 L 230.95,-2 L 231.05,-2 L 231.05,-0 L 231.95,-0 L 231.95,-2
 L 232.05,-2 L 232.05,-0 L 232.95,-0 L 232.95,-2 L 233.05,-2 L 233.05,-0
 L 233.95,-0 L 233.95,-2 L 234.05,-2 L 234.05,-0 L 234.95,-0 L 234.95,-4
 L 235.05,-4 L 235.05,-0 L 235.95,-0 L 235.95,-2 L 236.05,-2 L 236.05,-0
 L 236.95,-0 L 236.95,-2 L 237.05,-2 L 237.05,-0 L 237.95,-0 L 237.95,-2
 L 238.05,-2 L 238.05,-0 L 238.95,-0 L 238.95,-2 L 239.05,-2 L 239.05,-0
 L 239.95,-0 L 239.95,-6 L 240.05,-6 L 240.05,-0 L 240.95,-0 L 240.95,-2
 L 241.05,-2 L 241.05,-0 L 241.95,-0 L 241.95,-2 L 242.05,-2 L 242.05,-0
 L 242.95,-0 L 242.95,-2 L 243.05,-2 L 243.05,-0 L 243.95,-0 L 243.95,-2
 L 244.05,-2 L 244.05,-0 L 244.95,-0 L 244.95,-4 L 245.05,-4 L 245.05,-0
 L 245.95,-0 L 245.95,-2 L 246.05,-2 L 246.05,-0 L 246.95,-0 L 246.95,-2
 L 247.05,-2 L 247.05,-0 L 247.95,-0 L 247.95,-2 L 248.05,-2 L 248.05,-0
 L 248.95,-0 L 248.95,-2 L 249.05,-2 L 249.05,-0 L 249.95,-0 L 249.95,-6
 L 250.05,-6 L 250.05,-0 L 250.95,-0 L 250.95,-2 L 251.05,-2 L 251.05,-0
 L 251.95,-0 L 251.95,-2 L 252.05,-2 L 252.05,-0 L 252.95,-0 L 252.95,-2
 L 253.05,-2 L 253.05,-0 L 253.95,-0 L 253.95,-2 L 254.05,-2 L 254.05,-0
 L 254.95,-0 L 254.95,-4 L 255.05,-4 L 255.05,-0 L 255.95,-0 L 255.95,-2
 L 256.05,-2 L 256.05,-0 L 256.95,-0 L 256.95,-2 L 257.05,-2 L 257.05,-0
 L 257.95,-0 L 257.95,-2 L 258.05,-2 L 258.05,-0 L 258.95,-0 L 258.95,-2
 L 259.05,-2 L 259.05,-0 L 259.95,-0 L 259.95,-6 L 260.05,-6 L 260.05,-0
 L 260.95,-0 L 260.95,-2 L 261.05,-2 L 261.05,-0 L 261.95,-0 L 261.95,-2
 L 262.05,-2 L 262.05,-0 L 262.95,-0 L 262.95,-2 L 263.05,-2 L 263.05,-0
 L 263.95,-0 L 263.95,-2 L 264.05,-2 L 264.05,-0 L 264.95,-0 L 264.95,-4
 L 265.05,-4 L 265.05,-0 L 265.95,-0 L 265.95,-2 L 266.05,-2 L 266.05,-0
 L 266.95,-0 L 266.95,-2 L 267.05,-2 L 267.05,-0 L 267.95,-0 L 267.95,-2
 L 268.05,-2 L 268.05,-0 L 268.95,-0 L 268.95,-2 L 269.05,-2 L 269.05,-0
 L 269.95,-0 L 269.95,-6 L 270.05,-6 L 270.05,-0 L 270.95,-0 L 270.95,-2
 L 271.05,-2 L 271.05,-0 L 271.95,-0 L 271.95,-2 L 272.05,-2 L 272.05,-0
 L 272.95,-0 L 272.95,-2 L 273.05,-2 L 273.05,-0 L 273.95,-0 L 273.95,-2
 L 274.05,-2 L 274.05,-0 L 274.95,-0 L 274.95,-4 L 275.05,-4 L 275.05,-0
 L 275.95,-0 L 275.95,-2 L 276.05,-2 L 276.05,-0 L 276.95,-0 L 276.95,-2
 L 277.05,-2 L 277.05,-0 L 277.95,-0 L 277.95,-2 L 278.05,-2 L 278.05,-0
 L 278.95,-0 L 278.95,-2 L 279.05,-2 L 279.05,-0 L 279.95,-0 L 279.95,-6
 L 280.05,-6 L 280.05,-0 L 280.95,-0 L 280.95,-2 L 281.05,-2 L 281.05,-0
 L 281.95,-0 L 281.95,-2 L 282.05,-2 L 282.05,-0 L 282.95,-0 L 282.95,-2
 L 283.05,-2 L 283.05,-0 L 283.95,-0 L 283.95,-2 L 284.05,-2 L 284.05,-0
 L 284.95,-0 L 284.95,-4 L 285.05,-4 L 285.05,-0 L 285.95,-0 L 285.95,-2
 L 286.05,-2 L 286.05,-0 L 286.95,-0 L 286.95,-2 L 287.05,-2 L 287.05,-0
 L 287.95,-0 L 287.95,-2 L 288.05,-2 L 288.05,-0 L 288.95,-0 L 288.95,-2
 L 289.05,-2 L 289.05,-0 L 289.95,-0 L 289.95,-6 L 290.05,-6 L 290.05,-0
 L 290.95,-0 L 290.95,-2 L 291.05,-2 L 291.05,-0 L 291.95,-0 L 291.95,-2
 L 292.05,-2 L 292.05,-0 L 292.95,-0 L 292.95,-2 L 293.05,-2 L 293.05,-0
 L 293.95,-0 L 293.95,-2 L 294.05,-2 L 294.05,-0 L 294.95,-0 L 294.95,-4
 L 295.05,-4 L 295.05,-0 L 295.95,-0 L 295.95,-2 L 296.05,-2 L 296.05,-0
 L 296.95,-0 L 296.95,-2 L 297.05,-2 L 297.05,-0 L 297.95,-0 L 297.95,-2
 L 298.05,-2 L 298.05,-0 L 298.95,-0 L 298.95,-2 L 299.05,-2 L 299.05,-0
 L 300,-0 L 300,-10 L 0,-10 L 0,-0 L 0.949997,-0 L 0.949997,-2
 z
" stroke="black" fill="lightgray" stroke-width="0.5"/>
</svg>
