<?xml version="1.0" standalone="no"?>
<!DOCTYPE svg PUBLIC "-//W3C//DTD SVG 1.1//EN" "http://www.w3.org/Graphics/SVG/1.1/DTD/svg11.dtd">
<svg width="10mm" height="300mm" viewBox="0 -300 10 300" xmlns="http://www.w3.org/2000/svg" version="1.1">
<title>OpenSCAD Model</title>
<path d="
M 10,-300 L 0,-300 L 0,-299.05 L 2,-299.05 L 2,-298.95 L 0,-298.95
 L 0,-298.05 L 2,-298.05 L 2,-297.95 L 0,-297.95 L 0,-297.05 L 2,-297.05
 L 2,-296.95 L 0,-296.95 L 0,-296.05 L 2,-296.05 L 2,-295.95 L 0,-295.95
 L 0,-295.05 L 4,-295.05 L 4,-294.95 L 0,-294.95 L 0,-294.05 L 2,-294.05
 L 2,-293.95 L 0,-293.95 L 0,-293.05 L 2,-293.05 L 2,-292.95 L 0,-292.95
 L 0,-292.05 L 2,-292.05 L 2,-291.95 L 0,-291.95 L 0,-291.05 L 2,-291.05
 L 2,-290.95 L 0,-290.95 L 0,-290.05 L 6,-290.05 L 6,-289.95 L 0,-289.95
 L 0,-289.05 L 2,-289.05 L 2,-288.95 L 0,-288.95 L 0,-288.05 L 2,-288.05
 L 2,-287.95 L 0,-287.95 L 0,-287.05 L 2,-287.05 L 2,-286.95 L 0,-286.95
 L 0,-286.05 L 2,-286.05 L 2,-285.95 L 0,-285.95 L 0,-285.05 L 4,-285.05
 L 4,-284.95 L 0,-284.95 L 0,-284.05 L 2,-284.05 L 2,-283.95 L 0,-283.95
 L 0,-283.05 L 2,-283.05 L 2,-282.95 L 0,-282.95 L 0,-282.05 L 2,-282.05
 L 2,-281.95 L 0,-281.95 L 0,-281.05 L 2,-281.05 L 2,-280.95 L 0,-280.95
 L 0,-280.05 L 6,-280.05 L 6,-279.95 L 0,-279.95 L 0,-279.05 L 2,-279.05
 L 2,-278.95 L 0,-278.95 L 0,-278.05 L 2,-278.05 L 2,-277.95 L 0,-277.95
 L 0,-277.05 L 2,-277.05 L 2,-276.95 L 0,-276.95 L 0,-276.05 L 2,-276.05
 L 2,-275.95 L 0,-275.95 L 0,-275.05 L 4,-275.05 L 4,-274.95 L 0,-274.95
 L 0,-274.05 L 2,-274.05 L 2,-273.95 L 0,-273.95 L 0,-273.05 L 2,-273.05
 L 2,-272.95 L 0,-272.95 L 0,-272.05 L 2,-272.05 L 2,-271.95 L 0,-271.95
 L 0,-271.05 L 2,-271.05 L 2,-270.95 L 0,-270.95 L 0,-270.05 L 6,-270.05
 L 6,-269.95 L 0,-269.95 L 0,-269.05 L 2,-269.05 L 2,-268.95 L 0,-268.95
 L 0,-268.05 L 2,-268.05 L 2,-267.95 L 0,-267.95 L 0,-267.05 L 2,-267.05
 L 2,-266.95 L 0,-266.95 L 0,-266.05 L 2,-266.05 L 2,-265.95 L 0,-265.95
 L 0,-265.05 L 4,-265.05 L 4,-264.95 L 0,-264.95 L 0,-264.05 L 2,-264.05
 L 2,-263.95 L 0,-263.95 L 0,-263.05 L 2,-263.05 L 2,-262.95 L 0,-262.95
 L 0,-262.05 L 2,-262.05 L 2,-261.95 L 0,-261.95 L 0,-261.05 L 2,-261.05
 L 2,-260.95 L 0,-260.95 L 0,-260.05 L 6,-260.05 L 6,-259.95 L 0,-259.95
 L 0,-259.05 L 2,-259.05 L 2,-258.95 L 0,-258.95 L 0,-258.05 L 2,-258.05
 L 2,-257.95 L 0,-257.95 L 0,-257.05 L 2,-257.05 L 2,-256.95 L 0,-256.95
 L 0,-256.05 L 2,-256.05 L 2,-255.95 L 0,-255.95 L 0,-255.05 L 4,-255.05
 L 4,-254.95 L 0,-254.95 L 0,-254.05 L 2,-254.05 L 2,-253.95 L 0,-253.95
 L 0,-253.05 L 2,-253.05 L 2,-252.95 L 0,-252.95 L 0,-252.05 L 2,-252.05
 L 2,-251.95 L 0,-251.95 L 0,-251.05 L 2,-251.05 L 2,-250.95 L 0,-250.95
 L 0,-250.05 L 6,-250.05 L 6,-249.95 L 0,-249.95 L 0,-249.05 L 2,-249.05
 L 2,-248.95 L 0,-248.95 L 0,-248.05 L 2,-248.05 L 2,-247.95 L 0,-247.95
 L 0,-247.05 L 2,-247.05 L 2,-246.95 L 0,-246.95 L 0,-246.05 L 2,-246.05
 L 2,-245.95 L 0,-245.95 L 0,-245.05 L 4,-245.05 L 4,-244.95 L 0,-244.95
 L 0,-244.05 L 2,-244.05 L 2,-243.95 L 0,-243.95 L 0,-243.05 L 2,-243.05
 L 2,-242.95 L 0,-242.95 L 0,-242.05 L 2,-242.05 L 2,-241.95 L 0,-241.95
 L 0,-241.05 L 2,-241.05 L 2,-240.95 L 0,-240.95 L 0,-240.05 L 6,-240.05
 L 6,-239.95 L 0,-239.95 L 0,-239.05 L 2,-239.05 L 2,-238.95 L 0,-238.95
 L 0,-238.05 L 2,-238.05 L 2,-237.95 L 0,-237.95 L 0,-237.05 L 2,-237.05
 L 2,-236.95 L 0,-236.95 L 0,-236.05 L 2,-236.05 L 2,-235.95 L 0,-235.95
 L 0,-235.05 L 4,-235.05 L 4,-234.95 L 0,-234.95 L 0,-234.05 L 2,-234.05
 L 2,-233.95 L 0,-233.95 L 0,-233.05 L 2,-233.05 L 2,-232.95 L 0,-232.95
 L 0,-232.05 L 2,-232.05 L 2,-231.95 L 0,-231.95 L 0,-231.05 L 2,-231.05
 L 2,-230.95 L 0,-230.95 L 0,-230.05 L 6,-230.05 L 6,-229.95 L 0,-229.95
 L 0,-229.05 L 2,-229.05 L 2,-228.95 L 0,-228.95 L 0,-228.05 L 2,-228.05
 L 2,-227.95 L 0,-227.95 L 0,-227.05 L 2,-227.05 L 2,-226.95 L 0,-226.95
 L 0,-226.05 L 2,-226.05 L 2,-225.95 L 0,-225.95 L 0,-225.05 L 4,-225.05
 L 4,-224.95 L 0,-224.95 L 0,-224.05 L 2,-224.05 L 2,-223.95 L 0,-223.95
 L 0,-223.05 L 2,-223.05 L 2,-222.95 L 0,-222.95 L 0,-222.05 L 2,-222.05
 L 2,-221.95 L 0,-221.95 L 0,-221.05 L 2,-221.05 L 2,-220.95 L 0,-220.95
 L 0,-220.05 L 6,-220.05 L 6,-219.95 L 0,-219.95 L 0,-219.05 L 2,-219.05
 L 2,-218.95 L 0,-218.95 L 0,-218.05 L 2,-218.05 L 2,-217.95 L 0,-217.95
 L 0,-217.05 L 2,-217.05 L 2,-216.95 L 0,-216.95 L 0,-216.05 L 2,-216.05
 L 2,-215.95 L 0,-215.95 L 0,-215.05 L 4,-215.05 L 4,-214.95 L 0,-214.95
 L 0,-214.05 L 2,-214.05 L 2,-213.95 L 0,-213.95 L 0,-213.05 L 2,-213.05
 L 2,-212.95 L 0,-212.95 L 0,-212.05 L 2,-212.05 L 2,-211.95 L 0,-211.95
 L 0,-211.05 L 2,-211.05 L 2,-210.95 L 0,-210.95 L 0,-210.05 L 6,-210.05
 L 6,-209.95 L 0,-209.95 L 0,-209.05 L 2,-209.05 L 2,-208.95 L 0,-208.95
 L 0,-208.05 L 2,-208.05 L 2,-207.95 L 0,-207.95 L 0,-207.05 L 2,-207.05
 L 2,-206.95 L 0,-206.95 L 0,-206.05 L 2,-206.05 L 2,-205.95 L 0,-205.95
 L 0,-205.05 L 4,-205.05 L 4,-204.95 L 0,-204.95 L 0,-204.05 L 2,-204.05
 L 2,-203.95 L 0,-203.95 L 0,-203.05 L 2,-203.05 L 2,-202.95 L 0,-202.95
 L 0,-202.05 L 2,-202.05 L 2,-201.95 L 0,-201.95 L 0,-201.05 L 2,-201.05
 L 2,-200.95 L 0,-200.95 L 0,-200.05 L 6,-200.05 L 6,-199.95 L 0,-199.95
 L 0,-199.05 L 2,-199.05 L 2,-198.95 L 0,-198.95 L 0,-198.05 L 2,-198.05
 L 2,-197.95 L 0,-197.95 L 0,-197.05 L 2,-197.05 L 2,-196.95 L 0,-196.95
 L 0,-196.05 L 2,-196.05 L 2,-195.95 L 0,-195.95 L 0,-195.05 L 4,-195.05
 L 4,-194.95 L 0,-194.95 L 0,-194.05 L 2,-194.05 L 2,-193.95 L 0,-193.95
 L 0,-193.05 L 2,-193.05 L 2,-192.95 L 0,-192.95 L 0,-192.05 L 2,-192.05
 L 2,-191.95 L 0,-191.95 L 0,-191.05 L 2,-191.05 L 2,-190.95 L 0,-190.95
 L 0,-190.05 L 6,-190.05 L 6,-189.95 L 0,-189.95 L 0,-189.05 L 2,-189.05
 L 2,-188.95 L 0,-188.95 L 0,-188.05 L 2,-188.05 L 2,-187.95 L 0,-187.95
 L 0,-187.05 L 2,-187.05 L 2,-186.95 L 0,-186.95 L 0,-186.05 L 2,-186.05
 L 2,-185.95 L 0,-185.95 L 0,-185.05 L 4,-185.05 L 4,-184.95 L 0,-184.95
 L 0,-184.05 L 2,-184.05 L 2,-183.95 L 0,-183.95 L 0,-183.05 L 2,-183.05
 L 2,-182.95 L 0,-182.95 L 0,-182.05 L 2,-182.05 L 2,-181.95 L 0,-181.95
 L 0,-181.05 L 2,-181.05 L 2,-180.95 L 0,-180.95 L 0,-180.05 L 6,-180.05
 L 6,-179.95 L 0,-179.95 L 0,-179.05 L 2,-179.05 L 2,-178.95 L 0,-178.95
 L 0,-178.05 L 2,-178.05 L 2,-177.95 L 0,-177.95 L 0,-177.05 L 2,-177.05
 L 2,-176.95 L 0,-176.95 L 0,-176.05 L 2,-176.05 L 2,-175.95 L 0,-175.95
 L 0,-175.05 L 4,-175.05 L 4,-174.95 L 0,-174.95 L 0,-174.05 L 2,-174.05
 L 2,-173.95 L 0,-173.95 L 0,-173.05 L 2,-173.05 L 2,-172.95 L 0,-172.95
 L 0,-172.05 L 2,-172.05 L 2,-171.95 L 0,-171.95 L 0,-171.05 L 2,-171.05
 L 2,-170.95 L 0,-170.95 L 0,-170.05 L 6,-170.05 L 6,-169.95 L 0,-169.95
 L 0,-169.05 L 2,-169.05 L 2,-168.95 L 0,-168.95 L 0,-168.05 L 2,-168.05
 L 2,-167.95 L 0,-167.95 L 0,-167.05 L 2,-167.05 L 2,-166.95 L 0,-166.95
 L 0,-166.05 L 2,-166.05 L 2,-165.95 L 0,-165.95 L 0,-165.05 L 4,-165.05
 L 4,-164.95 L 0,-164.95 L 0,-164.05 L 2,-164.05 L 2,-163.95 L 0,-163.95
 L 0,-163.05 L 2,-163.05 L 2,-162.95 L 0,-162.95 L 0,-162.05 L 2,-162.05
 L 2,-161.95 L 0,-161.95 L 0,-161.05 L 2,-161.05 L 2,-160.95 L 0,-160.95
 L 0,-160.05 L 6,-160.05 L 6,-159.95 L 0,-159.95 L 0,-159.05 L 2,-159.05
 L 2,-158.95 L 0,-158.95 L 0,-158.05 L 2,-158.05 L 2,-157.95 L 0,-157.95
 L 0,-157.05 L 2,-157.05 L 2,-156.95 L 0,-156.95 L 0,-156.05 L 2,-156.05
 L 2,-155.95 L 0,-155.95 L 0,-155.05 L 4,-155.05 L 4,-154.95 L 0,-154.95
 L 0,-154.05 L 2,-154.05 L 2,-153.95 L 0,-153.95 L 0,-153.05 L 2,-153.05
 L 2,-152.95 L 0,-152.95 L 0,-152.05 L 2,-152.05 L 2,-151.95 L 0,-151.95
 L 0,-151.05 L 2,-151.05 L 2,-150.95 L 0,-150.95 L 0,-150.05 L 6,-150.05
 L 6,-149.95 L 0,-149.95 L 0,-149.05 L 2,-149.05 L 2,-148.95 L 0,-148.95
 L 0,-148.05 L 2,-148.05 L 2,-147.95 L 0,-147.95 L 0,-147.05 L 2,-147.05
 L 2,-146.95 L 0,-146.95 L 0,-146.05 L 2,-146.05 L 2,-145.95 L 0,-145.95
 L 0,-145.05 L 4,-145.05 L 4,-144.95 L 0,-144.95 L 0,-144.05 L 2,-144.05
 L 2,-143.95 L 0,-143.95 L 0,-143.05 L 2,-143.05 L 2,-142.95 L 0,-142.95
 L 0,-142.05 L 2,-142.05 L 2,-141.95 L 0,-141.95 L 0,-141.05 L 2,-141.05
 L 2,-140.95 L 0,-140.95 L 0,-140.05 L 6,-140.05 L 6,-139.95 L 0,-139.95
 L 0,-139.05 L 2,-139.05 L 2,-138.95 L 0,-138.95 L 0,-138.05 L 2,-138.05
 L 2,-137.95 L 0,-137.95 L 0,-137.05 L 2,-137.05 L 2,-136.95 L 0,-136.95
 L 0,-136.05 L 2,-136.05 L 2,-135.95 L 0,-135.95 L 0,-135.05 L 4,-135.05
 L 4,-134.95 L 0,-134.95 L 0,-134.05 L 2,-134.05 L 2,-133.95 L 0,-133.95
 L 0,-133.05 L 2,-133.05 L 2,-132.95 L 0,-132.95 L 0,-132.05 L 2,-132.05
 L 2,-131.95 L 0,-131.95 L 0,-131.05 L 2,-131.05 L 2,-130.95 L 0,-130.95
 L 0,-130.05 L 6,-130.05 L 6,-129.95 L 0,-129.95 L 0,-129.05 L 2,-129.05
 L 2,-128.95 L 0,-128.95 L 0,-128.05 L 2,-128.05 L 2,-127.95 L 0,-127.95
 L 0,-127.05 L 2,-127.05 L 2,-126.95 L 0,-126.95 L 0,-126.05 L 2,-126.05
 L 2,-125.95 L 0,-125.95 L 0,-125.05 L 4,-125.05 L 4,-124.95 L 0,-124.95
 L 0,-124.05 L 2,-124.05 L 2,-123.95 L 0,-123.95 L 0,-123.05 L 2,-123.05
 L 2,-122.95 L 0,-122.95 L 0,-122.05 L 2,-122.05 L 2,-121.95 L 0,-121.95
 L 0,-121.05 L 2,-121.05 L 2,-120.95 L 0,-120.95 L 0,-120.05 L 6,-120.05
 L 6,-119.95 L 0,-119.95 L 0,-119.05 L 2,-119.05 L 2,-118.95 L 0,-118.95
 L 0,-118.05 L 2,-118.05 L 2,-117.95 L 0,-117.95 L 0,-117.05 L 2,-117.05
 L 2,-116.95 L 0,-116.95 L 0,-116.05 L 2,-116.05 L 2,-115.95 L 0,-115.95
 L 0,-115.05 L 4,-115.05 L 4,-114.95 L 0,-114.95 L 0,-114.05 L 2,-114.05
 L 2,-113.95 L 0,-113.95 L 0,-113.05 L 2,-113.05 L 2,-112.95 L 0,-112.95
 L 0,-112.05 L 2,-112.05 L 2,-111.95 L 0,-111.95 L 0,-111.05 L 2,-111.05
 L 2,-110.95 L 0,-110.95 L 0,-110.05 L 6,-110.05 L 6,-109.95 L 0,-109.95
 L 0,-109.05 L 2,-109.05 L 2,-108.95 L 0,-108.95 L 0,-108.05 L 2,-108.05
 L 2,-107.95 L 0,-107.95 L 0,-107.05 L 2,-107.05 L 2,-106.95 L 0,-106.95
 L 0,-106.05 L 2,-106.05 L 2,-105.95 L 0,-105.95 L 0,-105.05 L 4,-105.05
 L 4,-104.95 L 0,-104.95 L 0,-104.05 L 2,-104.05 L 2,-103.95 L 0,-103.95
 L 0,-103.05 L 2,-103.05 L 2,-102.95 L 0,-102.95 L 0,-102.05 L 2,-102.05
 L 2,-101.95 L 0,-101.95 L 0,-101.05 L 2,-101.05 L 2,-100.95 L 0,-100.95
 L 0,-100.05 L 6,-100.05 L 6,-99.95 L 0,-99.95 L 0,-99.05 L 2,-99.05
 L 2,-98.95 L 0,-98.95 L 0,-98.05 L 2,-98.05 L 2,-97.95 L 0,-97.95
 L 0,-97.05 L 2,-97.05 L 2,-96.95 L 0,-96.95 L 0,-96.05 L 2,-96.05
 L 2,-95.95 L 0,-95.95 L 0,-95.05 L 4,-95.05 L 4,-94.95 L 0,-94.95
 L 0,-94.05 L 2,-94.05 L 2,-93.95 L 0,-93.95 L 0,-93.05 L 2,-93.05
 L 2,-92.95 L 0,-92.95 L 0,-92.05 L 2,-92.05 L 2,-91.95 L 0,-91.95
 L 0,-91.05 L 2,-91.05 L 2,-90.95 L 0,-90.95 L 0,-90.05 L 6,-90.05
 L 6,-89.95 L 0,-89.95 L 0,-89.05 L 2,-89.05 L 2,-88.95 L 0,-88.95
 L 0,-88.05 L 2,-88.05 L 2,-87.95 L 0,-87.95 L 0,-87.05 L 2,-87.05
 L 2,-86.95 L 0,-86.95 L 0,-86.05 L 2,-86.05 L 2,-85.95 L 0,-85.95
 L 0,-85.05 L 4,-85.05 L 4,-84.95 L 0,-84.95 L 0,-84.05 L 2,-84.05
 L 2,-83.95 L 0,-83.95 L 0,-83.05 L 2,-83.05 L 2,-82.95 L 0,-82.95
 L 0,-82.05 L 2,-82.05 L 2,-81.95 L 0,-81.95 L 0,-81.05 L 2,-81.05
 L 2,-80.95 L 0,-80.95 L 0,-80.05 L 6,-80.05 L 6,-79.95 L 0,-79.95
 L 0,-79.05 L 2,-79.05 L 2,-78.95 L 0,-78.95 L 0,-78.05 L 2,-78.05
 L 2,-77.95 L 0,-77.95 L 0,-77.05 L 2,-77.05 L 2,-76.95 L 0,-76.95
 L 0,-76.05 L 2,-76.05 L 2,-75.95 L 0,-75.95 L 0,-75.05 L 4,-75.05
 L 4,-74.95 L 0,-74.95 L 0,-74.05 L 2,-74.05 L 2,-73.95 L 0,-73.95
 L 0,-73.05 L 2,-73.05 L 2,-72.95 L 0,-72.95 L 0,-72.05 L 2,-72.05
 L 2,-71.95 L 0,-71.95 L 0,-71.05 L 2,-71.05 L 2,-70.95 L 0,-70.95
 L 0,-70.05 L 6,-70.05 L 6,-69.95 L 0,-69.95 L 0,-69.05 L 2,-69.05
 L 2,-68.95 L 0,-68.95 L 0,-68.05 L 2,-68.05 L 2,-67.95 L 0,-67.95
 L 0,-67.05 L 2,-67.05 L 2,-66.95 L 0,-66.95 L 0,-66.05 L 2,-66.05
 L 2,-65.95 L 0,-65.95 L 0,-65.05 L 4,-65.05 L 4,-64.95 L 0,-64.95
 L 0,-64.05 L 2,-64.05 L 2,-63.95 L 0,-63.95 L 0,-63.05 L 2,-63.05
 L 2,-62.95 L 0,-62.95 L 0,-62.05 L 2,-62.05 L 2,-61.95 L 0,-61.95
 L 0,-61.05 L 2,-61.05 L 2,-60.95 L 0,-60.95 L 0,-60.05 L 6,-60.05
 L 6,-59.95 L 0,-59.95 L 0,-59.05 L 2,-59.05 L 2,-58.95 L 0,-58.95
 L 0,-58.05 L 2,-58.05 L 2,-57.95 L 0,-57.95 L 0,-57.05 L 2,-57.05
 L 2,-56.95 L 0,-56.95 L 0,-56.05 L 2,-56.05 L 2,-55.95 L 0,-55.95
 L 0,-55.05 L 4,-55.05 L 4,-54.95 L 0,-54.95 L 0,-54.05 L 2,-54.05
 L 2,-53.95 L 0,-53.95 L 0,-53.05 L 2,-53.05 L 2,-52.95 L 0,-52.95
 L 0,-52.05 L 2,-52.05 L 2,-51.95 L 0,-51.95 L 0,-51.05 L 2,-51.05
 L 2,-50.95 L 0,-50.95 L 0,-50.05 L 6,-50.05 L 6,-49.95 L 0,-49.95
 L 0,-49.05 L 2,-49.05 L 2,-48.95 L 0,-48.95 L 0,-48.05 L 2,-48.05
 L 2,-47.95 L 0,-47.95 L 0,-47.05 L 2,-47.05 L 2,-46.95 L 0,-46.95
 L 0,-46.05 L 2,-46.05 L 2,-45.95 L 0,-45.95 L 0,-45.05 L 4,-45.05
 L 4,-44.95 L 0,-44.95 L 0,-44.05 L 2,-44.05 L 2,-43.95 L 0,-43.95
 L 0,-43.05 L 2,-43.05 L 2,-42.95 L 0,-42.95 L 0,-42.05 L 2,-42.05
 L 2,-41.95 L 0,-41.95 L 0,-41.05 L 2,-41.05 L 2,-40.95 L 0,-40.95
 L 0,-40.05 L 6,-40.05 L 6,-39.95 L 0,-39.95 L 0,-39.05 L 2,-39.05
 L 2,-38.95 L 0,-38.95 L 0,-38.05 L 2,-38.05 L 2,-37.95 L 0,-37.95
 L 0,-37.05 L 2,-37.05 L 2,-36.95 L 0,-36.95 L 0,-36.05 L 2,-36.05
 L 2,-35.95 L 0,-35.95 L 0,-35.05 L 4,-35.05 L 4,-34.95 L 0,-34.95
 L 0,-34.05 L 2,-34.05 L 2,-33.95 L 0,-33.95 L 0,-33.05 L 2,-33.05
 L 2,-32.95 L 0,-32.95 L 0,-32.05 L 2,-32.05 L 2,-31.95 L 0,-31.95
 L 0,-31.05 L 2,-31.05 L 2,-30.95 L 0,-30.95 L 0,-30.05 L 6,-30.05
 L 6,-29.95 L 0,-29.95 L 0,-29.05 L 2,-29.05 L 2,-28.95 L 0,-28.95
 L 0,-28.05 L 2,-28.05 L 2,-27.95 L 0,-27.95 L 0,-27.05 L 2,-27.05
 L 2,-26.95 L 0,-26.95 L 0,-26.05 L 2,-26.05 L 2,-25.95 L 0,-25.95
 L 0,-25.05 L 4,-25.05 L 4,-24.95 L 0,-24.95 L 0,-24.05 L 2,-24.05
 L 2,-23.95 L 0,-23.95 L 0,-23.05 L 2,-23.05 L 2,-22.95 L 0,-22.95
 L 0,-22.05 L 2,-22.05 L 2,-21.95 L 0,-21.95 L 0,-21.05 L 2,-21.05
 L 2,-20.95 L 0,-20.95 L 0,-20.05 L 6,-20.05 L 6,-19.95 L 0,-19.95
 L 0,-19.05 L 2,-19.05 L 2,-18.95 L 0,-18.95 L 0,-18.05 L 2,-18.05
 L 2,-17.95 L 0,-17.95 L 0,-17.05 L 2,-17.05 L 2,-16.95 L 0,-16.95
 L 0,-16.05 L 2,-16.05 L 2,-15.95 L 0,-15.95 L 0,-15.05 L 4,-15.05
 L 4,-14.95 L 0,-14.95 L 0,-14.05 L 2,-14.05 L 2,-13.95 L 0,-13.95
 L 0,-13.05 L 2,-13.05 L 2,-12.95 L 0,-12.95 L 0,-12.05 L 2,-12.05
 L 2,-11.95 L 0,-11.95 L 0,-11.05 L 2,-11.05 L 2,-10.95 L 0,-10.95
 L 0,-10.05 L 6,-10.05 L 6,-9.95 L 0,-9.95 L 0,-9.04999 L 2,-9.04999
 L 2,-8.95 L 0,-8.95 L 0,-8.04999 L 2,-8.04999 L 2,-7.95 L 0,-7.95
 L 0,-7.04999 L 2,-7.04999 L 2,-6.95 L 0,-6.95 L 0,-6.04999 L 2,-6.04999
 L 2,-5.95 L 0,-5.95 L 0,-5.04999 L 4,-5.04999 L 4,-4.95 L 0,-4.95
 L 0,-4.04999 L 2,-4.04999 L 2,-3.95 L 0,-3.95 L 0,-3.04999 L 2,-3.04999
 L 2,-2.95 L 0,-2.95 L 0,-2.04999 L 2,-2.04999 L 2,-1.95 L 0,-1.95
 L 0,-1.04999 L 2,-1.04999 L 2,-0.949997 L 0,-0.949997 L 0,-0 L 10,-0
 z
" stroke="black" fill="lightgray" stroke-width="0.5"/>
</svg>
